<?xml version="1.0" standalone="no"?>
<!DOCTYPE svg PUBLIC "-//W3C//DTD SVG 1.1//EN" "http://www.w3.org/Graphics/SVG/1.1/DTD/svg11.dtd" >
<svg>
<metadata>
Created by FontForge 20110222 at Thu Feb 27 07:37:05 2014
 By Orthosie Webhosting
Part of this font software is copyrighted (c) 2006 Linotype GmbH, www.linotype.com. All rights reserved. This font software may not be reproduced, modified, disclosed or transferred without the express written approval of Linotype GmbH. Copyright Esselte Letraset Ltd., 1990.
</metadata>
<defs>
<font id="FrankfurterComMedium" horiz-adv-x="500" >
  <font-face 
    font-family="FrankfurterComMedium"
    font-weight="500"
    font-stretch="normal"
    units-per-em="1000"
    panose-1="2 15 6 4 2 2 4 8 12 4"
    ascent="800"
    descent="-200"
    x-height="473"
    cap-height="673"
    bbox="-54 -267 1049 893"
    underline-thickness="50"
    underline-position="-50"
    unicode-range="U+000D-FB02"
  />
<missing-glyph horiz-adv-x="485" 
d="M210 174h53v-63h-53v63zM211 238q0 25 2.5 43t9 32.5t17.5 27.5t28 28q30 29 38 46t8 34q0 34 -21.5 57t-50.5 23t-50.5 -20.5t-26.5 -69.5l-48 8q7 69 42 99.5t86 30.5q52 0 85 -33.5t33 -90.5q0 -31 -12 -55.5t-48 -57.5q-16 -14 -25 -24t-13.5 -19.5t-6 -20
t-1.5 -26.5v-28h-46v16zM438 47v585h-391v-585h391zM0 680h485v-680h-485v680z" />
    <glyph glyph-name="IJ" unicode="IJ" horiz-adv-x="872" 
d="M73 96v475v17q1 39 21.5 62t55.5 23t55.5 -23.5t20.5 -61.5v-17v-475v-17q0 -39 -20.5 -62.5t-55.5 -23.5t-56 24t-21 62v17zM469 233q5 -40 31.5 -65t65.5 -25q28 0 51.5 14t34.5 37q4 8 6.5 15t4 16t2 21t0.5 30v295v17q1 39 21.5 62t55.5 23q34 0 55 -23.5t21 -61.5
v-17v-312q0 -59 -11 -96.5t-39 -73.5q-76 -99 -200 -99q-51 0 -97 19.5t-80.5 52.5t-54.5 77t-20 93q0 38 21 62t55 24q29 0 50.5 -19.5t24.5 -48.5z" />
    <glyph glyph-name="ij" unicode="ij" horiz-adv-x="510" 
d="M62 82v309v15q1 34 19 54t47 20q30 0 48.5 -20.5t18.5 -53.5v-15v-309v-15q-1 -34 -19 -54t-47 -20q-30 0 -48.5 20.5t-18.5 53.5v15zM128 668q33 0 56 -23t23 -56t-23.5 -56.5t-57.5 -23.5q-16 0 -30.5 6.5t-25.5 17t-17.5 24.5t-6.5 30q0 35 23.5 58t58.5 23zM384 668
q33 0 56 -23t23 -56t-23.5 -56.5t-56.5 -23.5t-56.5 23t-23.5 55q0 35 23 58t58 23zM281 -28q32 20 32 95v324v15q1 34 19 54t48 20t48 -20.5t18 -53.5v-15v-317v-37v-34t-1 -22t-2 -15.5t-4 -15.5q-6 -24 -20 -45.5t-33 -37.5t-41 -25t-44 -9q-35 0 -56.5 19t-21.5 48
q0 35 32 55z" />
    <glyph glyph-name="napostrophe" unicode="&#x22;n" horiz-adv-x="543" 
d="M57 82v169q0 49 11 84.5t36 67.5q30 38 74 59t92 21q56 0 106.5 -28.5t80.5 -77.5q14 -23 21.5 -56.5t7.5 -73.5v-165v-15q-1 -34 -19 -54t-47 -20q-30 0 -48.5 20.5t-18.5 53.5v15v153q0 30 -2 43t-7 26q-9 20 -29.5 33t-43.5 13q-35 0 -58 -25t-23 -61v-25v-157v-15
q-1 -34 -19 -54t-48 -20q-29 0 -47.5 20.5t-18.5 53.5v15zM-6 642q8 16 20 25.5t32 9.5q21 0 39 -15.5t18 -40.5q0 -13 -6 -25l-34 -72q-5 -11 -19.5 -20.5t-30.5 -9.5q-23 0 -40 16.5t-17 40.5q0 14 7 27z" />
    <glyph glyph-name="fi" unicode="fi" horiz-adv-x="537" 
d="M74 82v271q-71 5 -71 60q0 27 18.5 43.5t48.5 16.5h4v12q1 28 2.5 47.5t5 33.5t9 25.5t13.5 22.5q17 24 44.5 38.5t55.5 14.5q40 0 64 -24t24 -66q0 -29 -11.5 -48.5t-28.5 -19.5q-4 0 -7.5 1.5t-8.5 3.5l-6 3q-3 2 -8 2q-8 0 -11.5 -10t-3.5 -36h184q23 0 34 -1.5
t20 -6.5q33 -17 33 -66v-15v-302v-15q-1 -34 -19 -54t-48 -20q-29 0 -47.5 20.5t-18.5 53.5v15v271h-138v-271v-15q-1 -34 -19 -54t-48 -20t-48 20.5t-18 53.5v15zM412 668q32 0 55.5 -23t23.5 -56t-23.5 -56t-57.5 -23q-16 0 -30.5 6t-25.5 16.5t-17.5 24.5t-6.5 30
q0 35 23.5 58t58.5 23z" />
    <glyph glyph-name="fl" unicode="fl" horiz-adv-x="537" 
d="M73 82v271q-70 5 -70 60q0 27 18.5 43.5t48.5 16.5h3l1 12q1 28 2.5 47.5t5 33.5t9 25.5t13.5 22.5q17 24 44.5 38.5t55.5 14.5q40 0 64 -24t24 -66q0 -29 -11.5 -48t-28.5 -19q-7 0 -16 4l-6 3q-3 2 -8 2q-8 0 -11.5 -10t-4.5 -36h138v105v15q1 34 19 54t48 20
q29 0 47.5 -20.5t18.5 -53.5v-9v-502v-15q-1 -34 -19 -54t-47 -20q-30 0 -48.5 20.5t-18.5 53.5v15v271h-138v-271v-15q0 -34 -18 -54t-48 -20t-48.5 20.5t-18.5 53.5v15z" />
    <glyph glyph-name=".notdef" horiz-adv-x="485" 
d="M210 174h53v-63h-53v63zM211 238q0 25 2.5 43t9 32.5t17.5 27.5t28 28q30 29 38 46t8 34q0 34 -21.5 57t-50.5 23t-50.5 -20.5t-26.5 -69.5l-48 8q7 69 42 99.5t86 30.5q52 0 85 -33.5t33 -90.5q0 -31 -12 -55.5t-48 -57.5q-16 -14 -25 -24t-13.5 -19.5t-6 -20
t-1.5 -26.5v-28h-46v16zM438 47v585h-391v-585h391zM0 680h485v-680h-485v680z" />
    <glyph glyph-name=".null" 
 />
    <glyph glyph-name="nonmarkingreturn" unicode="&#xd;" horiz-adv-x="0" 
 />
    <glyph glyph-name="space" unicode=" " horiz-adv-x="260" 
 />
    <glyph glyph-name="exclam" unicode="!" horiz-adv-x="293" 
d="M147 -10q-36 0 -61.5 25.5t-25.5 61.5t25.5 61t61.5 25t61 -25t25 -61t-25 -61.5t-61 -25.5zM77 296v287v16q1 35 19.5 56.5t50.5 21.5t51 -21.5t19 -56.5v-16v-287v-15q-1 -36 -19.5 -57t-50.5 -21t-51 21.5t-19 56.5v15z" />
    <glyph glyph-name="quotedbl" unicode="&#x22;" horiz-adv-x="431" 
d="M66 582q-4 14 -5 19t-1 11q0 13 6 25.5t15.5 22t22.5 15t27 5.5q26 0 46.5 -19.5t20.5 -45.5q0 -6 -1.5 -12.5t-6.5 -24.5l-25 -96q-9 -34 -16.5 -46.5t-19.5 -12.5t-19.5 13t-17.5 48zM239 582q-4 14 -5 19t-1 11q0 13 6 25.5t15.5 22t22.5 15t27 5.5q27 0 47 -19.5
t20 -45.5q0 -6 -1.5 -12.5t-6.5 -24.5l-25 -96q-9 -34 -16.5 -46.5t-19.5 -12.5t-19.5 13t-17.5 48z" />
    <glyph glyph-name="numbersign" unicode="#" horiz-adv-x="532" 
d="M302 269l17 116h-85l-16 -116h84zM115 178h-80v91h96l17 116h-84v91h97l26 174h86l-26 -174h86l25 174h87l-26 -174h79v-91h-93l-16 -116h82v-90h-97l-26 -179h-87l26 179h-85l-25 -179h-88z" />
    <glyph glyph-name="dollar" unicode="$" horiz-adv-x="548" 
d="M198 2v3q-33 11 -53.5 19.5t-39.5 21.5q-75 48 -75 111q0 33 20 55t51 22q18 0 35 -7.5t38 -24.5q23 -19 38 -30.5t26.5 -17.5t21.5 -8t24 -2q34 0 56.5 21t22.5 52q0 32 -24.5 51.5t-81.5 33.5l-82 20q-61 15 -96 58.5t-35 103.5q0 45 18 83.5t50 63.5q17 13 34.5 22.5
t46.5 20.5q1 16 3 25.5t6 18.5q10 18 28.5 29t39.5 11q32 0 52.5 -21t23.5 -58l17 -6q34 -11 52 -20.5t35 -23.5q38 -35 38 -73q0 -30 -20 -51.5t-47 -21.5q-11 0 -22 3.5t-21 11.5q-3 2 -11.5 9t-22.5 18q-20 15 -37 21.5t-37 6.5q-32 0 -52.5 -17t-20.5 -44q0 -32 37 -48
q8 -4 21 -7.5t47 -11.5q114 -26 165 -76t51 -135q0 -38 -12.5 -72.5t-34.5 -62t-52.5 -47t-67.5 -27.5v-9q-2 -27 -6.5 -41t-15.5 -25q-24 -22 -55 -22q-36 0 -56 24t-20 68v2z" />
    <glyph glyph-name="percent" unicode="%" horiz-adv-x="754" 
d="M290 40q-23 -49 -52 -49q-17 0 -29.5 11.5t-12.5 26.5q0 9 3.5 20.5t8.5 24.5l6 12l245 526q17 35 30 48.5t32 13.5q17 0 27.5 -10t10.5 -27q0 -8 -3.5 -21t-8.5 -25l-4 -7l-247 -531zM553 299q32 0 60 -12t49 -32.5t33 -48.5t12 -59q0 -32 -12 -60t-32.5 -48.5
t-48.5 -32.5t-60 -12t-59.5 12t-48.5 32.5t-33 48.5t-12 60q0 31 12 59t33 48.5t48.5 32.5t58.5 12zM199 673q32 0 60 -12t48.5 -32.5t32.5 -48.5t12 -59q0 -32 -12 -60t-32.5 -48.5t-48.5 -32.5t-59 -12q-32 0 -60 12t-48.5 32.5t-32.5 48t-12 59.5q0 31 12 59t32.5 49
t48 33t59.5 12zM553 208q-25 0 -43 -17.5t-18 -42.5q0 -26 18 -44.5t44 -18.5t43.5 18t17.5 44t-18 43.5t-44 17.5zM199 582q-26 0 -43.5 -18t-17.5 -43q0 -26 17.5 -44t43.5 -18t43.5 17.5t17.5 43.5t-17.5 44t-43.5 18z" />
    <glyph glyph-name="ampersand" unicode="&#x26;" horiz-adv-x="606" 
d="M442 41q-32 -27 -74.5 -42t-88.5 -15q-53 0 -98 18.5t-79 51t-53 76.5t-19 94q0 54 19.5 93.5t62.5 71.5q-38 47 -38 106q0 37 17 70.5t45.5 59.5t66 41.5t78.5 15.5q47 0 88.5 -19.5t71.5 -55.5q20 -24 31.5 -50t11.5 -49q0 -27 -19.5 -46.5t-46.5 -19.5q-31 0 -50 24
q-5 5 -7 11t-10 25q-19 48 -68 48q-29 0 -49.5 -19t-20.5 -45q0 -16 10 -31.5t22 -28.5l163 -165q11 42 25.5 58.5t42.5 16.5q31 0 50.5 -23.5t19.5 -61.5q0 -10 -1 -19t-4 -19.5t-8.5 -24.5t-13.5 -33l40 -39q26 -26 26 -53q0 -29 -20 -49t-49 -20q-12 0 -25.5 7t-25.5 18z
M199 293q-16 -16 -22.5 -32t-6.5 -40q0 -46 31 -76.5t77 -30.5q21 0 37 5t33 19z" />
    <glyph glyph-name="quotesingle" unicode="'" horiz-adv-x="258" 
d="M66 582q-4 14 -5 19t-1 11q0 13 6 25.5t16 22t22.5 15t26.5 5.5q27 0 47 -19.5t20 -45.5q0 -6 -1 -12.5t-6 -24.5l-26 -96q-9 -34 -16.5 -46.5t-18.5 -12.5q-12 0 -20 13t-18 48z" />
    <glyph glyph-name="parenleft" unicode="(" horiz-adv-x="446" 
d="M73 343q0 39 9 82t25 85t38 80t48 68q21 23 48.5 46.5t55.5 41.5q23 14 37.5 19.5t29.5 5.5q28 0 48.5 -21t20.5 -50q0 -24 -11.5 -39.5t-41.5 -32.5q-38 -22 -68 -53.5t-52 -70.5t-33.5 -83.5t-11.5 -91.5q0 -94 44.5 -172.5t122.5 -123.5q26 -16 38 -31.5t12 -35.5
q0 -32 -20.5 -53.5t-49.5 -21.5q-34 0 -97 48q-94 71 -143 173.5t-49 230.5z" />
    <glyph glyph-name="parenright" unicode=")" horiz-adv-x="446" 
d="M373 319q0 -39 -9 -82t-25 -84.5t-38 -79.5t-49 -68q-20 -24 -47.5 -47.5t-55.5 -41.5q-23 -14 -37.5 -19.5t-29.5 -5.5q-29 0 -49 21t-20 50q0 24 11.5 39.5t41.5 32.5q37 22 67.5 53.5t52.5 70.5t33.5 83.5t11.5 91.5q0 94 -45 172.5t-122 123.5q-26 16 -38 31.5
t-12 35.5q0 32 20.5 53.5t49.5 21.5q34 0 97 -48q94 -71 143 -173.5t49 -230.5z" />
    <glyph glyph-name="asterisk" unicode="*" horiz-adv-x="435" 
d="M218 444l-42 -57q-15 -20 -37 -20q-17 0 -29.5 11.5t-12.5 28.5q0 18 13 34l36 49l-55 20q-19 7 -26.5 16t-7.5 24q0 19 10.5 31t27.5 12q11 0 24 -5l58 -21v71q0 17 11.5 28t29.5 11t29.5 -11t11.5 -28v-71l57 21q13 5 25 5q16 0 27 -12.5t11 -30.5q0 -15 -8 -24
t-27 -16l-55 -20l37 -49q12 -17 12 -34t-12 -28.5t-29 -11.5q-23 0 -38 20z" />
    <glyph glyph-name="plus" unicode="+" horiz-adv-x="553" 
d="M228 221h-190v92h190v211h96v-211h190v-92h-190v-213h-96v213z" />
    <glyph glyph-name="comma" unicode="," horiz-adv-x="281" 
d="M113 -10l-6 3q-54 26 -54 81q0 18 7 33.5t18.5 27.5t27.5 19t34 7t33.5 -6.5t27.5 -18t19 -27t7 -33.5q0 -11 -3 -22.5t-8 -25.5l-32 -87q-9 -23 -19 -33t-26 -10q-17 0 -29.5 12t-12.5 27q0 10 8 34z" />
    <glyph glyph-name="hyphen" unicode="-" horiz-adv-x="367" 
d="M156 198h-9q-38 0 -59 17.5t-21 48.5q0 30 20.5 48.5t53.5 18.5h15h54h15q34 -1 54 -19t20 -47q0 -30 -20.5 -48.5t-53.5 -18.5h-8h-61z" />
    <glyph glyph-name="period" unicode="." horiz-adv-x="280" 
d="M139 -10q-36 0 -61 25.5t-25 61.5t25 61t61 25t61.5 -25t25.5 -61t-25.5 -61.5t-61.5 -25.5z" />
    <glyph glyph-name="slash" unicode="/" horiz-adv-x="343" 
d="M131 -59q-15 -52 -62 -52q-26 0 -43.5 17t-17.5 43q0 5 1 12t3 12l4 14l192 719l4 14q15 53 61 53q26 0 43.5 -17t17.5 -43q0 -13 -3 -25l-2 -7l-194 -725z" />
    <glyph glyph-name="zero" unicode="0" horiz-adv-x="747" 
d="M372 677q72 0 134.5 -27t109.5 -73.5t74 -109t27 -133.5t-27 -134t-73.5 -109.5t-109 -73.5t-133.5 -27t-134 27t-109.5 73.5t-73.5 109.5t-27 134t27 133.5t73.5 109t108.5 73.5t133 27zM372 525q-39 0 -73.5 -15t-61 -40.5t-41.5 -60t-15 -73.5q0 -41 15 -76t41 -61.5
t61 -41.5t75 -15t74.5 15t60.5 41t41 61t15 75q0 39 -15 74t-41 61t-61 41t-75 15z" />
    <glyph glyph-name="one" unicode="1" horiz-adv-x="330" 
d="M103 96v430l-23 1h-15q-36 0 -57 19t-21 51q0 31 21.5 50.5t56.5 19.5h15h90q86 0 86 -103v-468v-17q0 -40 -20.5 -63t-55.5 -23t-56 24t-21 62v17z" />
    <glyph glyph-name="two" unicode="2" horiz-adv-x="538" 
d="M141 0q-4 0 -8 0.5t-9 1.5l-36 8q-19 7 -31.5 24.5t-12.5 36.5q0 12 8 30t18 27l253 249q29 29 29 63q0 16 -7 31t-18.5 26.5t-27 18.5t-32.5 7q-35 0 -59.5 -25.5t-24.5 -61.5l1 -18q0 -32 -22 -53.5t-54 -21.5q-36 0 -57 26t-21 71q0 49 18.5 92t50.5 75t74.5 51
t90.5 19q51 0 94.5 -19t76 -51.5t51 -77t18.5 -95.5q0 -45 -16.5 -85t-48.5 -70l-146 -139h121h16q36 -1 57 -19.5t21 -50.5t-21.5 -51t-56.5 -19h-16h-273z" />
    <glyph glyph-name="three" unicode="3" horiz-adv-x="548" 
d="M180 223q1 -17 9 -32.5t20.5 -26.5t28 -17.5t33.5 -6.5t34.5 7t29 19t19.5 27.5t7 32.5q0 30 -21 56t-51 36q-12 3 -18.5 5t-10 3.5t-5 3l-4.5 4.5q-6 6 -9 15.5t-3 20.5q0 33 22 43l25 13q14 8 23 21t9 28q0 21 -15.5 36.5t-35.5 15.5q-37 0 -54 -50q-10 -26 -25.5 -37
t-42.5 -11q-35 0 -57 22.5t-22 58.5q0 25 14.5 53.5t40.5 54.5q59 59 143 59q41 0 78 -15t65.5 -40.5t45.5 -59.5t17 -71q0 -29 -10 -54t-33 -51q20 -13 30.5 -21.5t19.5 -20.5q19 -22 30 -53.5t11 -62.5q0 -48 -20 -91t-54 -75.5t-79 -52t-94 -19.5t-94 19t-79 51t-54.5 74
t-20.5 88q0 37 22.5 61t57.5 24q32 0 52.5 -18t23.5 -47z" />
    <glyph glyph-name="four" unicode="4" horiz-adv-x="607" 
d="M353 96v41h-237q-4 0 -15 2.5t-21 5.5q-47 12 -47 81v62q0 13 7 31.5t18 32.5l12 15l166 233l10 14q18 28 38 40.5t47 12.5h22h67q29 0 42 -4t24 -16q20 -21 20 -68v-302h8q39 0 61 -18.5t22 -51.5q0 -19 -10 -36t-25 -25q-11 -5 -23 -7t-33 -2v-41v-17
q-1 -39 -21.5 -62.5t-55.5 -23.5t-55.5 24t-20.5 62v17zM353 277v249l-175 -249h175z" />
    <glyph glyph-name="five" unicode="5" horiz-adv-x="532" 
d="M71 581l2 15q6 38 28.5 54.5t68.5 16.5h213h16q35 -1 56 -19.5t21 -50.5t-21 -51t-56 -19h-16h-167l-6 -46q14 2 22.5 2h17.5q54 0 100 -18.5t79.5 -51.5t53 -78t19.5 -97q0 -51 -19.5 -96.5t-53.5 -79t-79 -53t-97 -19.5q-101 0 -175 71q-55 52 -55 101q0 32 21 53
t53 21q29 0 49 -18q4 -3 7.5 -8.5t13.5 -20.5q33 -50 85 -50q41 0 69.5 28.5t28.5 69.5q0 52 -42.5 81t-118.5 29q-14 0 -27 -0.5t-24 -1.5q-18 -3 -25 -3q-30 0 -48 16.5t-18 44.5v9.5t1 10.5z" />
    <glyph glyph-name="six" unicode="6" horiz-adv-x="578" 
d="M247 621l18 24q15 20 30.5 28.5t34.5 8.5q31 0 54 -22t23 -51q0 -13 -5 -27.5t-16 -28.5l-10 -13l-40 -56q47 -5 86 -25t67 -50.5t43.5 -71.5t15.5 -88q0 -54 -20 -101t-55 -82.5t-82 -55.5t-101 -20q-53 0 -100.5 20.5t-83 55t-56 81t-20.5 99.5q0 42 14.5 84.5
t40.5 76.5zM288 355q-22 0 -41 -8.5t-33.5 -22.5t-22.5 -33.5t-8 -40.5q0 -22 8.5 -41.5t22.5 -34t33.5 -23t41.5 -8.5t41 8.5t33.5 23t23 33.5t8.5 41t-8.5 41.5t-23 33.5t-34 22.5t-41.5 8.5z" />
    <glyph glyph-name="seven" unicode="7" horiz-adv-x="464" 
d="M248 48q-24 -55 -73 -55q-15 0 -29 6t-24.5 15.5t-16.5 22.5t-6 28q0 18 8 39l7 16l162 407h-190h-16q-35 1 -56 19.5t-21 50.5q0 31 21 50.5t56 19.5h16h274q90 0 90 -87q0 -16 -3 -29t-11 -33l-182 -454z" />
    <glyph glyph-name="eight" unicode="8" horiz-adv-x="540" 
d="M438 387q39 -28 57 -64t18 -87q0 -52 -18.5 -97t-51.5 -78t-77.5 -52t-95.5 -19q-50 0 -94.5 19.5t-77.5 52.5t-52.5 77.5t-19.5 94.5q0 49 18 85t58 68q-11 15 -18 27t-11.5 23t-6 21.5t-1.5 23.5q0 39 16.5 74.5t44.5 62.5t65 42.5t78 15.5t78.5 -16t65.5 -43t44.5 -63
t16.5 -76q0 -26 -8 -46t-28 -46zM270 527q-21 0 -36.5 -14.5t-15.5 -34.5q0 -23 15 -38t37 -15q21 0 36 15t15 36t-15.5 36t-35.5 15zM270 317q-36 0 -61.5 -26t-25.5 -63q0 -36 26 -62t62 -26q18 0 34 7t28 19t19 28t7 34q0 37 -25.5 63t-63.5 26z" />
    <glyph glyph-name="nine" unicode="9" horiz-adv-x="578" 
d="M208 135l34 47q-48 6 -87 26t-67 50.5t-43 71t-15 88.5q0 54 20 101t55 82.5t82 55.5t101 20q53 0 100 -20.5t82.5 -55.5t56.5 -81t21 -98q0 -40 -15 -84.5t-41 -78.5l-163 -216q-23 -30 -38 -40t-37 -10q-15 0 -29 6t-24.5 16t-17 23t-6.5 28q0 13 5 27.5t16 27.5z
M290 312q21 0 40.5 8t33.5 22.5t22.5 33.5t8.5 41t-8.5 41.5t-23 34t-33.5 23t-41 8.5t-41.5 -8.5t-33.5 -23t-22.5 -33.5t-8.5 -41t8.5 -41.5t22.5 -33.5t33.5 -22.5t42.5 -8.5z" />
    <glyph glyph-name="colon" unicode=":" horiz-adv-x="280" 
d="M139 220q-36 0 -61 25.5t-25 61.5t25 61t61 25t61.5 -25t25.5 -61t-25.5 -61.5t-61.5 -25.5zM139 -10q-36 0 -61 25.5t-25 61.5t25 61t61 25t61.5 -25t25.5 -61t-25.5 -61.5t-61.5 -25.5z" />
    <glyph glyph-name="semicolon" unicode=";" horiz-adv-x="281" 
d="M140 220q-36 0 -61.5 25.5t-25.5 61.5t25.5 61t61.5 25t61.5 -25t25.5 -61t-25.5 -61.5t-61.5 -25.5zM114 -10l-6 3q-55 27 -55 81q0 18 7 33.5t19 27.5t28 19t34 7t33.5 -6.5t27 -18t18.5 -27t7 -33.5q0 -21 -10 -48l-32 -87q-9 -23 -19 -33t-26 -10q-17 0 -29.5 12
t-12.5 27q0 10 8 34z" />
    <glyph glyph-name="less" unicode="&#x3c;" horiz-adv-x="553" 
d="M50 223v85l453 216v-104l-339 -154v-2l339 -153v-104z" />
    <glyph glyph-name="equal" unicode="=" horiz-adv-x="553" 
d="M39 417h475v-92h-475v92zM39 210h475v-91h-475v91z" />
    <glyph glyph-name="greater" unicode="&#x3e;" horiz-adv-x="553" 
d="M50 110l346 154v2l-346 155v103l453 -213v-92l-453 -212v103z" />
    <glyph glyph-name="question" unicode="?" horiz-adv-x="541" 
d="M273 -10q-36 0 -61 25.5t-25 61.5t25 61t61 25t61.5 -25t25.5 -61t-25.5 -61.5t-61.5 -25.5zM505 436q0 -48 -19 -90.5t-51 -74.5t-75 -50.5t-91 -18.5q-37 0 -59 18t-22 49q0 29 17 45t55 22q109 17 109 104q0 21 -8 40t-22.5 33.5t-33.5 22.5t-40 8q-80 0 -104 -98
q-12 -54 -64 -54q-29 0 -48 19.5t-19 50.5q0 29 15 65.5t38 64.5q34 40 82 62.5t102 22.5q49 0 92.5 -19t75.5 -51.5t51 -76.5t19 -94z" />
    <glyph glyph-name="at" unicode="@" horiz-adv-x="734" 
d="M504 303q-2 -10 -3 -19.5t-1 -19.5q0 -17 7.5 -26.5t25.5 -9.5q30 0 50.5 16.5t33 41.5t17.5 53t5 52q0 54 -19.5 97.5t-53 74t-79 47t-97.5 16.5q-65 0 -117.5 -24t-90 -65t-57.5 -95.5t-20 -115.5q0 -66 20.5 -116.5t58 -85t89 -52t113.5 -17.5q26 0 50.5 3t49.5 8
q5 1 8.5 2t8.5 1q12 0 21 -6.5t9 -19.5q0 -17 -18.5 -27.5t-42.5 -16.5t-48.5 -8t-36.5 -2q-76 0 -141 22.5t-113 65.5t-75 105.5t-27 143.5q0 76 27 141.5t75 114t114 76.5t144 28q64 0 122.5 -21t102.5 -59.5t70 -93t26 -122.5q0 -43 -11.5 -84t-35.5 -72.5t-59.5 -51
t-83.5 -19.5q-38 0 -61 15.5t-35 52.5q-20 -31 -48.5 -49.5t-66.5 -18.5q-29 0 -50 11t-34.5 29t-20.5 42t-7 50q0 47 16 88t44.5 71.5t68.5 48t88 17.5q11 0 30.5 -1.5t38 -6.5t32.5 -14.5t14 -25.5q0 -5 -0.5 -10.5t-1.5 -10.5zM340 240q17 0 30.5 10t23 25t16 32t8.5 31
l17 101q-12 4 -29 4q-26 0 -46.5 -14t-34 -35t-20.5 -46t-7 -48q0 -10 2 -20.5t6.5 -19.5t13 -14.5t20.5 -5.5z" />
    <glyph glyph-name="A" unicode="A" horiz-adv-x="628" 
d="M470 64l-23 50h-268l-21 -49l-6 -15q-25 -54 -75 -54q-31 0 -54 21.5t-23 51.5q0 19 11 43l7 15l221 495q21 47 73 47q24 0 43.5 -12t29.5 -35l227 -493q11 -24 14 -35t3 -25q0 -30 -23 -52t-54 -22q-51 0 -75 53zM394 246l-81 192l-79 -192h160z" />
    <glyph glyph-name="B" unicode="B" horiz-adv-x="612" 
d="M161 0q-88 2 -88 89v18v453v18q0 89 88 89h18h155q95 0 147 -40q32 -25 49.5 -63t17.5 -83q0 -40 -13 -70t-42 -54q88 -58 88 -161q0 -53 -22.5 -96.5t-62.5 -69.5q-45 -30 -117 -30h-200h-18zM332 405q28 0 42 6t22.5 21t8.5 32q0 29 -19.5 45.5t-54.5 16.5h-105v-121
h106zM348 139q17 0 27 2t19 8q14 8 23.5 24.5t9.5 33.5q0 32 -21.5 51t-56.5 19h-123v-138h122z" />
    <glyph glyph-name="C" unicode="C" horiz-adv-x="665" 
d="M520 208q25 24 57 24q31 0 53 -22t22 -53q0 -32 -36 -68q-46 -46 -110.5 -72.5t-130.5 -26.5q-71 0 -133.5 27.5t-109.5 74t-74.5 109t-27.5 133.5t27 133.5t74 109t109.5 73.5t133.5 27q120 0 218 -80q29 -24 41.5 -43t12.5 -42q0 -31 -21.5 -52.5t-53.5 -21.5
q-29 0 -56 24l-16 15q-25 23 -58 35.5t-68 12.5q-39 0 -74 -15t-60.5 -41.5t-40.5 -61.5t-15 -74t15 -74t41.5 -61t61.5 -41t74 -15q32 0 65 11.5t53 29.5z" />
    <glyph glyph-name="D" unicode="D" horiz-adv-x="698" 
d="M162 0q-89 2 -89 89v18v453v18q2 89 89 89h18h129q77 0 129.5 -16t99.5 -53q62 -50 96 -119t34 -147q0 -43 -11 -84.5t-32 -78t-51 -67.5t-67 -54q-78 -48 -198 -48h-129h-18zM291 139q50 0 81 6.5t57 23.5q40 26 63 69t23 94q0 43 -16 78.5t-45.5 60.5t-70.5 39t-91 14
h-66v-385h65z" />
    <glyph glyph-name="E" unicode="E" horiz-adv-x="536" 
d="M162 0q-89 2 -89 89v18v453v18q2 89 89 89h18h244h16q35 -1 56 -19.5t21 -50.5t-21 -51t-56 -19h-16h-198v-124h156h14q32 -1 51.5 -17.5t19.5 -45.5t-19.5 -46.5t-51.5 -17.5h-14h-156v-136h203h16q35 -1 56.5 -19.5t21.5 -50.5t-21.5 -51t-56.5 -19h-16h-249h-18z" />
    <glyph glyph-name="F" unicode="F" horiz-adv-x="535" 
d="M73 96v464v18q2 89 89 89h18h249h15q36 -1 57 -19.5t21 -50.5t-21.5 -51t-56.5 -19h-15h-203v-130h157h14q32 -1 51.5 -18t19.5 -46q0 -28 -19.5 -45.5t-51.5 -17.5h-14h-157v-174v-17q0 -39 -20.5 -62.5t-55.5 -23.5t-56 24t-21 62v17z" />
    <glyph glyph-name="G" unicode="G" horiz-adv-x="689" 
d="M392 248q-36 1 -57 19.5t-21 50.5q0 31 21.5 50.5t56.5 19.5h15h136h17q89 -2 89 -89v-18v-83q0 -32 -10.5 -61.5t-30.5 -52.5q-18 -21 -43.5 -38t-56 -29.5t-64.5 -19.5t-67 -7q-71 0 -134.5 27.5t-110.5 74t-74.5 109t-27.5 133.5t27 133.5t74 109t109.5 73.5t134.5 27
q48 0 95 -14t89 -40q28 -18 39.5 -35.5t11.5 -40.5q0 -32 -21.5 -53.5t-53.5 -21.5q-8 0 -12.5 0.5t-10 3t-14.5 7.5t-24 15q-20 14 -46 21.5t-52 7.5q-40 0 -75 -15.5t-61.5 -41.5t-41.5 -61.5t-15 -74.5q0 -41 16 -77t44 -62.5t66.5 -41.5t82.5 -15q38 0 64 12t37 34
q8 16 8 53v11h-94h-15z" />
    <glyph glyph-name="H" unicode="H" horiz-adv-x="701" 
d="M73 96v475v17q1 39 21.5 62t55.5 23t55.5 -23.5t20.5 -61.5v-17v-162h249v162v17q0 39 20.5 62t55.5 23t56 -23.5t21 -61.5v-17v-475v-17q-2 -39 -22 -62.5t-55 -23.5t-55.5 24t-20.5 62v17v173h-249v-173v-17q0 -39 -20.5 -62.5t-55.5 -23.5t-56 24t-21 62v17z" />
    <glyph glyph-name="I" unicode="I" horiz-adv-x="300" 
d="M73 96v475v17q1 39 21.5 62t55.5 23t55.5 -23.5t20.5 -61.5v-17v-475v-17q0 -39 -20.5 -62.5t-55.5 -23.5t-56 24t-21 62v17z" />
    <glyph glyph-name="J" unicode="J" horiz-adv-x="572" 
d="M169 233q5 -40 31.5 -65t65.5 -25q28 0 51.5 14t34.5 37q4 8 6.5 15t4 16t2 21t0.5 30v295v17q1 39 21.5 62t55.5 23q34 0 55 -23.5t21 -61.5v-17v-312q0 -59 -11 -96.5t-39 -73.5q-76 -99 -200 -99q-51 0 -97 19.5t-80.5 52.5t-54.5 77t-20 93q0 38 21 62t55 24
q29 0 50.5 -19.5t24.5 -48.5z" />
    <glyph glyph-name="K" unicode="K" horiz-adv-x="640" 
d="M481 30l-255 240v-174v-17q0 -39 -20.5 -62.5t-55.5 -23.5t-56 24t-21 62v17v475v17q1 39 21.5 62t55.5 23t55.5 -23.5t20.5 -61.5v-17v-159l224 224l11 12q29 28 59 28q32 0 54.5 -22.5t22.5 -54.5q0 -17 -9 -32t-32 -38l-190 -186l219 -202q26 -24 35 -38.5t9 -34.5
q0 -32 -23 -54.5t-55 -22.5q-28 0 -57 27z" />
    <glyph glyph-name="L" unicode="L" horiz-adv-x="516" 
d="M162 0q-89 2 -89 89v18v464v17q1 39 21.5 62t55.5 23t55.5 -23.5t20.5 -61.5v-17v-431h183h16q35 -1 56 -19.5t21 -50.5t-21 -51t-56 -19h-16h-229h-18z" />
    <glyph glyph-name="M" unicode="M" horiz-adv-x="819" 
d="M250 345l-63 -267l-4 -16q-17 -67 -77 -67q-32 0 -53.5 21.5t-21.5 53.5q0 6 0.5 13.5t2.5 13.5l4 16l117 496q7 30 26.5 47t45.5 17q50 0 72 -58l108 -297l104 288q13 35 30.5 51t43.5 16q28 0 47.5 -17.5t27.5 -49.5l121 -492l4 -16q3 -15 3 -30q0 -30 -22 -51.5
t-53 -21.5q-29 0 -49 17t-28 49l-4 17l-65 267l-89 -286l-5 -14q-8 -24 -25.5 -37.5t-39.5 -13.5q-50 0 -70 65z" />
    <glyph glyph-name="N" unicode="N" horiz-adv-x="724" 
d="M226 387v-291v-17q0 -39 -20.5 -62.5t-55.5 -23.5t-56 24t-21 62v17v488q0 22 2.5 33.5t10.5 22.5q22 33 60 33q21 0 36.5 -9t35.5 -35l280 -353v295v17q1 39 21.5 62t54.5 23q35 0 56 -23.5t21 -61.5v-17v-480q0 -28 -2 -40.5t-10 -23.5q-11 -17 -29.5 -27t-39.5 -10
t-35.5 9.5t-36.5 38.5z" />
    <glyph glyph-name="O" unicode="O" horiz-adv-x="749" 
d="M373 677q66 0 130 -27t115 -76q49 -47 75 -109.5t26 -132.5q0 -71 -27 -133t-74 -108.5t-109.5 -73.5t-133.5 -27q-72 0 -134.5 27t-109.5 73.5t-74 109t-27 133.5t27 134t73.5 109.5t109 73.5t133.5 27zM375 525q-39 0 -74.5 -15.5t-61.5 -41.5t-41.5 -61.5t-15.5 -74.5
t15 -74t41.5 -61t61.5 -41t75 -15t74.5 15t60.5 41t41 60.5t15 74.5t-15 75t-41 61t-61 41.5t-74 15.5z" />
    <glyph glyph-name="P" unicode="P" horiz-adv-x="576" 
d="M73 96v464v18q0 89 88 89h18h113q20 0 44 -3.5t48 -8.5q90 -21 140 -102q18 -30 28 -64t10 -68t-9.5 -66.5t-27.5 -61t-43 -51.5t-56 -38q-27 -13 -54 -18t-72 -5h-74v-85v-17q-1 -39 -21.5 -62.5t-55.5 -23.5t-55.5 24t-20.5 62v17zM286 321q34 0 48.5 2.5t28.5 10.5
q23 13 37 36.5t14 49.5q0 28 -16 53.5t-41 37.5q-22 10 -71 10h-60v-200h60z" />
    <glyph glyph-name="Q" unicode="Q" horiz-adv-x="763" 
d="M610 23l-33 28q-50 -32 -98 -46.5t-101 -14.5q-72 0 -135.5 27t-110.5 73.5t-74.5 109.5t-27.5 134t27 133.5t74 109t110 73.5t134 27q72 0 135 -27.5t110 -74.5t74.5 -110t27.5 -135q0 -44 -10 -82.5t-33 -82.5l30 -27l13 -11q32 -29 32 -62q0 -32 -22 -54.5t-54 -22.5
q-28 0 -55 24zM377 525q-40 0 -75 -15t-61.5 -41t-41.5 -61t-15 -74q0 -40 15.5 -75t41.5 -61.5t61.5 -41.5t75.5 -15q39 0 74 15t60.5 41t40.5 60.5t15 74.5q0 39 -15 74.5t-41.5 61.5t-61 41.5t-73.5 15.5z" />
    <glyph glyph-name="R" unicode="R" horiz-adv-x="595" 
d="M226 191v-95v-17q0 -39 -20.5 -62.5t-55.5 -23.5t-56 24t-21 62v17v464v18q2 89 89 89h18h103q59 0 98 -9.5t71 -30.5q52 -34 82 -88.5t30 -114.5q0 -70 -39.5 -121t-112.5 -77l114 -83q42 -32 42 -71q0 -32 -21.5 -55t-53.5 -23q-25 0 -53 22zM284 323q34 0 52.5 3.5
t32.5 11.5q22 14 34.5 36.5t12.5 48.5q0 29 -15.5 53t-41.5 37q-7 3 -13.5 5t-14.5 3t-20 1.5t-30 0.5h-55v-200h58z" />
    <glyph glyph-name="S" unicode="S" horiz-adv-x="548" 
d="M221 299q-76 22 -114 49q-30 20 -46 54.5t-16 78.5q0 43 17 79t47.5 62t73.5 40.5t94 14.5q43 0 81.5 -10t67.5 -27.5t45.5 -41t16.5 -50.5q0 -29 -19.5 -50t-47.5 -21q-20 0 -38 13q-2 1 -11 8.5t-23 18.5q-40 32 -78 32q-31 0 -53 -18t-22 -43t17.5 -39t63.5 -25
q44 -11 76 -21.5t57 -22.5q53 -25 80.5 -69t27.5 -102q0 -49 -17.5 -89t-50 -69t-77 -45t-98.5 -16q-49 0 -93.5 13t-78 35.5t-53.5 52t-20 61.5q0 15 5.5 28t15 23t22 16t26.5 6q21 0 39 -8.5t43 -30.5q29 -27 54 -39t51 -12q34 0 56.5 20.5t22.5 51.5q0 26 -18.5 43.5
t-59.5 29.5z" />
    <glyph glyph-name="T" unicode="T" horiz-adv-x="557" 
d="M202 96v431h-109h-15q-36 1 -57 19.5t-21 50.5q0 31 21.5 50.5t56.5 19.5h15h370h16q35 -1 56.5 -19.5t21.5 -50.5t-21.5 -51t-56.5 -19h-16h-108v-431v-17q-1 -39 -21.5 -62.5t-55.5 -23.5q-34 0 -55 24t-21 62v17z" />
    <glyph glyph-name="U" unicode="U" horiz-adv-x="647" 
d="M53 571v17q0 39 20.5 62t55.5 23t56 -23.5t21 -61.5v-17v-311q0 -26 9 -48t24.5 -38t37 -25.5t46.5 -9.5q29 0 54.5 13.5t41.5 36.5q11 16 16 32.5t5 42.5v307v17q1 39 21.5 62t54.5 23q35 0 56 -23.5t21 -61.5v-17v-307q0 -58 -20.5 -108t-56.5 -87t-85 -58t-106 -21
t-106.5 21t-86.5 57.5t-58 86t-21 105.5v311z" />
    <glyph glyph-name="V" unicode="V" horiz-adv-x="635" 
d="M30 543l-7 15q-10 21 -10 43q0 15 6.5 28t17 23t24.5 16t29 6q29 0 46.5 -15.5t33.5 -56.5l147 -367l149 368q16 41 33.5 56t46.5 15q15 0 28.5 -6t24 -16t16.5 -23t6 -28q0 -21 -9 -42l-7 -15l-213 -489q-26 -58 -74 -58q-52 0 -77 58z" />
    <glyph glyph-name="W" unicode="W" horiz-adv-x="904" 
d="M452 397l-122 -351q-8 -25 -27.5 -39t-45.5 -14q-29 0 -45.5 14t-27.5 46l-162 495l-5 16q-3 9 -4 18t-1 17q0 29 22 50.5t53 21.5t48.5 -17t30.5 -60l96 -314l112 339q8 24 28.5 38.5t48.5 14.5q26 0 45.5 -12.5t27.5 -33.5l118 -346l92 316q12 43 30 61t50 18
t54.5 -21.5t22.5 -52.5q0 -18 -6 -34l-5 -16l-159 -498q-20 -60 -73 -60q-25 0 -44 14t-28 39z" />
    <glyph glyph-name="X" unicode="X" horiz-adv-x="596" 
d="M296 215l-124 -170q-23 -30 -39 -41t-39 -11q-15 0 -29.5 6t-25 16.5t-17 24t-6.5 28.5q0 17 6.5 31.5t24.5 38.5l154 204l-144 187q-19 24 -25.5 38t-6.5 30q0 32 23.5 54.5t56.5 22.5q22 0 37.5 -11t38.5 -40l115 -154l120 153l11 14q29 38 67 38q15 0 29.5 -6
t25 -16.5t17 -24t6.5 -27.5q0 -32 -31 -71l-149 -187l157 -205q17 -23 24 -38t7 -32q0 -15 -6.5 -28t-17 -23.5t-25 -16.5t-29.5 -6q-22 0 -37.5 10.5t-38.5 39.5z" />
    <glyph glyph-name="Y" unicode="Y" horiz-adv-x="577" 
d="M212 96v189l-171 248q-17 25 -22.5 38t-5.5 28q0 30 22.5 52.5t54.5 22.5q38 0 67 -40l9 -14l122 -176l122 176l10 14q15 20 31 30t36 10q31 0 54 -22.5t23 -52.5q0 -25 -19 -52l-9 -14l-171 -248v-189v-17q-1 -39 -21.5 -62.5t-54.5 -23.5q-35 0 -56 24t-21 62v17z" />
    <glyph glyph-name="Z" unicode="Z" horiz-adv-x="577" 
d="M111 0q-42 0 -65.5 20t-23.5 56q0 27 18 52l290 399h-217h-15q-36 1 -57 19.5t-21 50.5q0 31 21.5 50.5t56.5 19.5h15h328q23 0 36.5 -1.5t23.5 -5.5q20 -8 33 -28.5t13 -43.5q0 -26 -22 -56l-286 -392h225h16q35 -1 56 -19.5t21 -50.5t-21 -51t-56 -19h-16h-353z" />
    <glyph glyph-name="bracketleft" unicode="[" horiz-adv-x="356" 
d="M200 -109q-41 0 -60.5 7t-33.5 27q-8 11 -10.5 26t-2.5 47v666v18q2 89 89 89h18h57h16q36 -1 57 -19.5t21 -50.5t-21.5 -51t-56.5 -19h-16h-31v-600h37h15q36 -1 57 -19.5t21 -50.5t-21.5 -51t-56.5 -19h-15h-63z" />
    <glyph glyph-name="backslash" unicode="\" horiz-adv-x="343" 
d="M208 -44l-194 725l-2 7q-2 7 -3 13.5t-1 12.5q0 25 18 42t44 17q47 0 61 -53l4 -14l192 -719l4 -14q3 -12 3 -26q0 -24 -17.5 -41t-43.5 -17q-47 0 -61 52z" />
    <glyph glyph-name="bracketright" unicode="]" horiz-adv-x="356" 
d="M78 -109q-36 1 -57 19.5t-21 50.5t21.5 51t56.5 19h15h37v600h-32h-15q-36 1 -57 19.5t-21 50.5t21.5 51t56.5 19h16h57h18q89 -2 89 -89v-18v-666q0 -34 -3.5 -49.5t-12.5 -27.5q-14 -17 -33 -23.5t-58 -6.5h-63h-15z" />
    <glyph glyph-name="asciicircum" unicode="^" horiz-adv-x="553" 
d="M231 698h90l188 -422h-107l-125 306h-3l-125 -306h-105z" />
    <glyph glyph-name="underscore" unicode="_" 
d="M0 -175h500v-92h-500v92z" />
    <glyph glyph-name="grave" unicode="`" 
d="M149 599q-16 16 -16 38q0 24 17 40.5t42 16.5q12 0 21 -4.5t20 -15.5l49 -51q18 -18 18 -41t-17 -40t-40 -17q-11 0 -22 4.5t-17 11.5z" />
    <glyph glyph-name="a" unicode="a" horiz-adv-x="492" 
d="M436 82q0 -26 -3 -38.5t-12 -24.5q-20 -26 -54 -26q-21 0 -36 9.5t-26 31.5q-29 -23 -56 -33t-57 -10q-35 0 -65 13t-52.5 36.5t-35 54.5t-12.5 67q0 37 13.5 69t37 55.5t55 37t68.5 13.5q25 0 48.5 -7t50.5 -21q0 37 -13.5 52t-45.5 15q-16 0 -36 -5l-32 -9
q-14 -5 -23.5 -6.5t-17.5 -1.5q-23 0 -37.5 15t-14.5 38q0 39 44 62.5t115 23.5q49 0 89.5 -13.5t66.5 -39.5q22 -23 31.5 -56.5t9.5 -87.5v-196v-18zM300 166q0 29 -18.5 49t-47.5 20q-27 0 -46 -19.5t-19 -47.5q0 -29 19 -48t48 -19q28 0 46 18.5t18 46.5z" />
    <glyph glyph-name="b" unicode="b" horiz-adv-x="581" 
d="M60 578v15q1 34 19 54t48 20q29 0 47.5 -20.5t18.5 -53.5v-15v-141q31 24 62.5 35t70.5 11q49 0 90.5 -19t72 -52t48 -78t17.5 -97q0 -53 -17.5 -98.5t-48 -78.5t-73 -51.5t-92.5 -18.5q-42 0 -73 11.5t-63 39.5q-16 -48 -63 -48q-18 0 -32.5 7.5t-21.5 21.5
q-6 11 -8 22.5t-2 35.5v498zM302 349q-23 0 -43.5 -9t-35.5 -24t-24 -35.5t-9 -43.5q0 -24 9 -44.5t24 -35.5t35.5 -24t43.5 -9q24 0 44.5 9t35.5 24.5t24 36t9 44.5q0 23 -9 43t-24.5 35t-36 24t-43.5 9z" />
    <glyph glyph-name="c" unicode="c" horiz-adv-x="489" 
d="M27 238q0 50 19.5 95t53 78.5t78 53t94.5 19.5q38 0 75.5 -12t68.5 -33q27 -19 37.5 -34.5t10.5 -36.5q0 -28 -19.5 -47t-48.5 -19q-12 0 -20 3t-22 14q-22 17 -38.5 24t-37.5 7q-24 0 -45.5 -9t-37 -24.5t-24.5 -36t-9 -43.5q0 -24 9 -44.5t24.5 -35.5t36 -24t44.5 -9
q31 0 51 13q3 2 11.5 8t22.5 16q11 8 20.5 11.5t20.5 3.5q28 0 47.5 -19.5t19.5 -47.5q0 -22 -17 -43t-44.5 -38t-62 -27.5t-70.5 -10.5q-51 0 -96.5 19.5t-79 53.5t-53 79t-19.5 96z" />
    <glyph glyph-name="d" unicode="d" horiz-adv-x="581" 
d="M388 578v15q1 34 19 54t47 20q30 0 48.5 -20.5t18.5 -53.5v-15v-498q0 -24 -2 -36t-8 -22q-8 -14 -22 -21.5t-32 -7.5q-46 0 -63 48q-32 -28 -63 -39.5t-73 -11.5q-50 0 -92.5 18.5t-73 51.5t-48 78.5t-17.5 98.5q0 52 17.5 97t48 78t72 52t90.5 19q39 0 70.5 -11
t62.5 -35v141zM279 349q-23 0 -43.5 -9t-36 -24t-24.5 -35t-9 -43q0 -24 9 -44.5t24 -36t35.5 -24.5t44.5 -9q23 0 43.5 9t35.5 24.5t24 36t9 43.5t-9 43.5t-24 35.5t-35.5 24t-43.5 9z" />
    <glyph glyph-name="e" unicode="e" 
d="M203 154q31 -27 72 -27q20 0 38.5 6.5t38.5 21.5q12 9 21.5 12.5t20.5 3.5q29 0 48 -19t19 -47q0 -21 -12 -38.5t-38 -35.5q-28 -20 -64 -30.5t-72 -10.5q-50 0 -95 20t-79 54t-54 79t-20 95t19.5 94.5t53 78t77.5 53t94 19.5q40 0 78 -13.5t67 -36.5t46.5 -53t17.5 -63
q0 -22 -12.5 -36.5t-42.5 -28.5zM334 325q-18 28 -59 28q-44 0 -75.5 -29t-35.5 -72z" />
    <glyph glyph-name="f" unicode="f" horiz-adv-x="306" 
d="M74 82v271q-71 5 -71 60q0 27 18.5 43.5t48.5 16.5h4v12q0 23 1 39.5t3.5 29t5.5 22.5t8 19q18 35 50 53.5t75 18.5q26 0 49 -7.5t40 -20t27 -30t10 -36.5q0 -28 -18 -48t-43 -20q-14 0 -28 7l-14 8q-6 3 -11 3q-8 0 -14 -7t-7 -18q-1 -5 -1 -9v-16h24h13q31 -1 49 -17
t18 -43q0 -26 -18.5 -43t-48.5 -17h-13h-24v-271v-15q-1 -34 -19 -54t-48 -20t-48 20.5t-18 53.5v15z" />
    <glyph glyph-name="g" unicode="g" horiz-adv-x="546" 
d="M489 72q0 -55 -9.5 -92.5t-30.5 -63.5q-33 -41 -83 -63t-110 -22q-40 0 -76 9t-63.5 25t-43.5 37t-16 44q0 27 18.5 46t45.5 19q15 0 27 -5t34 -21q23 -16 40 -22.5t40 -6.5q45 0 69.5 28t24.5 80v8q-29 -21 -57 -30.5t-63 -9.5q-45 0 -83 17t-66 47t-44 70.5t-16 87.5
q0 48 16 90t43.5 73t65.5 48.5t82 17.5q38 0 67.5 -10t63.5 -35q8 20 23.5 31t35.5 11q15 0 29 -7t23 -20q8 -11 10.5 -22t2.5 -32v-327zM264 355q-20 0 -37.5 -7.5t-31 -20.5t-21 -31t-7.5 -38q0 -42 28 -70t69 -28t69 28t28 69t-28 69.5t-69 28.5z" />
    <glyph glyph-name="h" unicode="h" horiz-adv-x="542" 
d="M60 82v496v15q1 34 19 54t48 20t48 -20.5t18 -53.5v-9v-125q23 14 43 19t46 5q55 0 100 -23.5t72 -66.5q10 -15 16 -28t9.5 -28t5 -33t1.5 -43v-179v-15q-1 -34 -19 -54t-48 -20t-48 20.5t-18 53.5v15v166q0 23 -2.5 35t-8.5 24q-9 20 -28 31t-40 11q-20 0 -39 -10.5
t-29 -27.5q-7 -12 -10 -26.5t-3 -36.5v-166v-15q-1 -34 -18.5 -54t-47.5 -20t-48.5 20.5t-18.5 53.5v15z" />
    <glyph glyph-name="i" unicode="i" horiz-adv-x="253" 
d="M62 82v309v15q1 34 19 54t47 20q30 0 48.5 -20.5t18.5 -53.5v-15v-309v-15q-1 -34 -19 -54t-47 -20q-30 0 -48.5 20.5t-18.5 53.5v15zM128 668q33 0 56 -23t23 -56t-23.5 -56.5t-57.5 -23.5q-16 0 -30.5 6.5t-25.5 17t-17.5 24.5t-6.5 30q0 35 23.5 58t58.5 23z" />
    <glyph glyph-name="j" unicode="j" horiz-adv-x="257" 
d="M131 668q33 0 56 -23t23 -56t-23.5 -56.5t-56.5 -23.5t-56.5 23t-23.5 55q0 35 23 58t58 23zM28 -28q32 20 32 95v324v15q1 34 19 54t48 20t48 -20.5t18 -53.5v-15v-317v-37v-34t-1 -22t-2 -15.5t-4 -15.5q-6 -24 -20 -45.5t-33 -37.5t-41 -25t-44 -9q-35 0 -56.5 19
t-21.5 48q0 35 32 55z" />
    <glyph glyph-name="k" unicode="k" horiz-adv-x="497" 
d="M351 30l-158 167v-115v-15q-1 -34 -18.5 -54t-47.5 -20t-48.5 20.5t-18.5 53.5v15v496v15q1 34 19 54t48 20t48 -20.5t18 -53.5v-15v-252l164 129l11 10q27 19 51 19q26 0 45.5 -20.5t19.5 -47.5q0 -35 -34 -59l-12 -9l-127 -92l136 -131q22 -21 29.5 -34t7.5 -30
q0 -29 -20.5 -49t-49.5 -20q-26 0 -53 27z" />
    <glyph glyph-name="l" unicode="l" horiz-adv-x="253" 
d="M60 593q0 34 18.5 54t48.5 20t48 -20.5t18 -53.5v-523q0 -36 -17.5 -56.5t-48.5 -20.5q-30 0 -48.5 20.5t-18.5 53.5v526z" />
    <glyph glyph-name="m" unicode="m" horiz-adv-x="809" 
d="M57 82v200q0 41 16.5 77.5t44.5 64t65.5 43.5t79.5 16q73 0 142 -54q63 54 139 54q43 0 80.5 -16.5t66 -45t45 -67t16.5 -81.5v-191v-15q-1 -34 -18.5 -54t-47.5 -20t-48.5 20.5t-18.5 53.5v15v166q0 26 -1.5 38.5t-6.5 23.5q-8 19 -26 30.5t-40 11.5q-20 0 -36.5 -9.5
t-24.5 -26.5q-7 -14 -9.5 -28t-2.5 -40v-166v-15q0 -34 -18 -54t-48 -20t-48.5 20.5t-18.5 53.5v15v166q0 36 -6 56q-6 22 -25 36t-43 14q-25 0 -43.5 -13.5t-25.5 -36.5q-4 -11 -5 -22.5t-1 -33.5v-166v-15q-1 -34 -19 -54t-48 -20q-29 0 -47.5 20.5t-18.5 53.5v15z" />
    <glyph glyph-name="n" unicode="n" horiz-adv-x="543" 
d="M57 82v169q0 49 11 84.5t36 67.5q30 38 74 59t92 21q56 0 106.5 -28.5t80.5 -77.5q14 -23 21.5 -56.5t7.5 -73.5v-165v-15q-1 -34 -19 -54t-47 -20q-30 0 -48.5 20.5t-18.5 53.5v15v153q0 30 -2 43t-7 26q-9 20 -29.5 33t-43.5 13q-35 0 -58 -25t-23 -61v-25v-157v-15
q-1 -34 -19 -54t-48 -20q-29 0 -47.5 20.5t-18.5 53.5v15z" />
    <glyph glyph-name="o" unicode="o" horiz-adv-x="551" 
d="M277 483q51 0 96 -19.5t78.5 -53t53 -78.5t19.5 -97q0 -50 -19.5 -94.5t-53.5 -78t-79 -53t-96 -19.5t-96.5 19t-79 52t-53.5 77t-20 94q0 53 19.5 99t53 79.5t79 53t98.5 19.5zM277 350q-24 0 -45 -9t-36.5 -24.5t-24 -36.5t-8.5 -46q0 -22 9 -42t24.5 -35t36 -23.5
t43.5 -8.5t43.5 9t36 24t24.5 35.5t9 43.5q0 24 -9 44.5t-24 35.5t-35.5 24t-43.5 9z" />
    <glyph glyph-name="p" unicode="p" horiz-adv-x="581" 
d="M60 -104v498q0 24 2 36t8 22q16 28 54 28q47 0 63 -48q32 28 63 39.5t73 11.5q50 0 92.5 -18.5t73 -51.5t48 -78.5t17.5 -98.5t-17.5 -98t-48 -78t-72 -51.5t-90.5 -18.5q-39 0 -70.5 11t-62.5 36v-141v-15q-1 -35 -18.5 -54.5t-47.5 -19.5t-48.5 20t-18.5 54v15z
M302 124q23 0 43.5 9t36 24t24.5 35t9 43q0 24 -9 45t-24 36t-35.5 24t-44.5 9q-23 0 -43.5 -9t-35.5 -24t-24 -35.5t-9 -44.5q0 -23 9 -43.5t24 -35.5t35.5 -24t43.5 -9z" />
    <glyph glyph-name="q" unicode="q" horiz-adv-x="581" 
d="M388 -104v141q-31 -25 -62.5 -36t-70.5 -11q-49 0 -90.5 18.5t-72 51.5t-48 78t-17.5 98t17.5 98.5t48 78.5t73 51.5t92.5 18.5q42 0 73 -11.5t63 -39.5q17 48 63 48q18 0 32.5 -7.5t21.5 -20.5q6 -11 8 -23t2 -35v-498v-15q-1 -35 -19 -54.5t-48 -19.5q-29 0 -47.5 20.5
t-18.5 53.5v15zM279 124q23 0 43.5 9t35.5 24t24 35.5t9 43.5q0 24 -9 44.5t-24 35.5t-35.5 24t-43.5 9q-24 0 -44.5 -9t-35.5 -24t-24 -36t-9 -45q0 -23 9 -43t24.5 -35t36 -24t43.5 -9z" />
    <glyph glyph-name="r" unicode="r" horiz-adv-x="376" 
d="M60 82v301q0 15 0.5 24.5t1 16t2.5 11.5t5 10q20 35 57 35q41 0 61 -39q48 42 103 42q18 0 33.5 -6.5t27 -17.5t18.5 -26t7 -32q0 -33 -23.5 -56t-56.5 -23q-14 0 -21.5 3t-26.5 14q-15 9 -26 9q-16 0 -22.5 -14t-6.5 -47v-205v-15q-1 -34 -18.5 -54t-47.5 -20
t-48.5 20.5t-18.5 53.5v15z" />
    <glyph glyph-name="s" unicode="s" horiz-adv-x="446" 
d="M226 484q32 0 61 -7.5t50.5 -20.5t34.5 -30t13 -36q0 -23 -18 -41t-42 -18q-13 0 -25.5 4.5t-31.5 15.5q-24 14 -34 18.5t-21 4.5t-18 -7t-7 -16q0 -17 17 -27t63 -22q34 -9 52 -15.5t34 -14.5q31 -17 48 -47.5t17 -68.5q0 -37 -14 -67.5t-39.5 -52.5t-61 -34t-77.5 -12
q-39 0 -75 11t-64 29t-44.5 41.5t-16.5 49.5q0 27 18 47.5t43 20.5q17 0 33.5 -8.5t36.5 -25.5q15 -13 25.5 -21t19 -12.5t16.5 -6t18 -1.5q20 0 33 10t13 25q0 24 -44 34q-28 7 -61 18t-54 21q-33 17 -53 49t-20 69q0 42 25.5 78t68.5 53q34 13 81 13z" />
    <glyph glyph-name="t" unicode="t" horiz-adv-x="308" 
d="M83 82v271h-7q-32 0 -50.5 16t-18.5 44q0 62 76 60v71v15q1 35 19 54.5t48 19.5q29 0 47.5 -20.5t18.5 -53.5v-15v-71h15h14q30 -1 48 -17t18 -43q0 -26 -18.5 -43t-47.5 -17h-14h-15v-271v-15q-1 -34 -19 -54t-48 -20q-29 0 -47.5 20.5t-18.5 53.5v15z" />
    <glyph glyph-name="u" unicode="u" horiz-adv-x="543" 
d="M353 234v157v15q1 34 19 54t48 20q29 0 47.5 -20.5t18.5 -53.5v-15v-168q0 -49 -11 -85t-36 -67q-30 -38 -74 -59.5t-92 -21.5q-56 0 -106.5 28.5t-80.5 77.5q-14 23 -21.5 57t-7.5 73v165v15q1 34 18.5 54t47.5 20t48.5 -20.5t18.5 -53.5v-15v-153q0 -30 2 -43t7 -25
q9 -20 29.5 -33.5t43.5 -13.5q35 0 58 25t23 61v25z" />
    <glyph glyph-name="v" unicode="v" horiz-adv-x="475" 
d="M22 366l-6 13q-9 21 -9 39q0 26 19.5 44t45.5 18t40.5 -12.5t30.5 -46.5l96 -221l95 221q15 35 29.5 47t39.5 12q27 0 46.5 -18t19.5 -44q0 -19 -9 -37l-6 -14l-148 -325q-22 -49 -66 -49q-24 0 -38.5 11t-27.5 38z" />
    <glyph glyph-name="w" unicode="w" horiz-adv-x="690" 
d="M138 48l-121 327l-5 14q-6 16 -6 32q0 26 19.5 44t45.5 18q47 0 64 -52l4 -13l64 -196l75 204q11 29 26.5 42.5t41.5 13.5q46 0 65 -50l77 -210l59 192l4 15q19 54 66 54q27 0 47 -19t20 -46q0 -16 -6 -32l-5 -14l-116 -325q-11 -30 -25.5 -42t-39.5 -12q-26 0 -40.5 12
t-27.5 42l-79 197l-76 -196q-13 -32 -26.5 -43.5t-39.5 -11.5q-45 0 -61 42z" />
    <glyph glyph-name="x" unicode="x" horiz-adv-x="480" 
d="M242 146l-95 -113q-20 -23 -34 -32t-32 -9q-29 0 -49 20t-20 49q0 14 7 27.5t24 33.5l110 125l-90 108q-17 20 -23 33.5t-6 28.5q0 26 20 45t49 19q18 0 31 -8.5t33 -31.5l75 -92l79 91q20 23 34.5 32t32.5 9q28 0 48.5 -20.5t20.5 -49.5q0 -14 -7.5 -28t-25.5 -34
l-94 -102l107 -125q18 -20 24.5 -33.5t6.5 -27.5q0 -28 -20 -48.5t-48 -20.5q-18 0 -32.5 9.5t-34.5 33.5z" />
    <glyph glyph-name="y" unicode="y" horiz-adv-x="490" 
d="M113 -21q10 -3 20 -3q24 0 39 40l14 36l-152 312l-7 13q-10 23 -10 40q0 26 20.5 44.5t46.5 18.5q43 0 64 -46l6 -13l98 -217l90 212l6 15q22 49 67 49q27 0 48 -20t21 -46q0 -11 -3.5 -22.5t-12.5 -30.5l-191 -402q-14 -29 -21.5 -42t-18.5 -27q-20 -25 -50 -39.5
t-62 -14.5q-24 0 -45.5 7t-37.5 19t-25.5 27.5t-9.5 33.5q0 26 17.5 45.5t41.5 19.5q15 0 28 -4z" />
    <glyph glyph-name="z" unicode="z" horiz-adv-x="438" 
d="M99 0q-14 0 -23 1.5t-19 6.5q-16 8 -26.5 25.5t-10.5 34.5q0 7 1 12.5t4 11.5t9 14.5t15 20.5l172 224h-107h-14q-31 1 -49.5 17.5t-18.5 43.5q0 28 19 44.5t49 16.5h14h218q37 0 59.5 -19t22.5 -51q0 -19 -17 -42l-183 -239h123h14q31 -1 49 -17.5t18 -43.5t-18.5 -44
t-48.5 -17h-14h-238z" />
    <glyph glyph-name="braceleft" unicode="{" horiz-adv-x="310" 
d="M252 -109q-32 0 -60.5 5.5t-50 18.5t-36 35.5t-18.5 57.5q-1 8 -1 17.5v20.5q0 21 1 43.5t3 45.5t3.5 45t1.5 43q0 9 -2 18.5t-8 17.5t-17.5 14t-30.5 7q-11 0 -11 13v77q0 5 3 9t8 4q19 1 30.5 7t17.5 14t8 18t2 19q0 20 -1.5 41.5t-3.5 43.5t-3 45t-1 44v17q0 40 13 67
t35.5 43t52.5 22.5t65 6.5h18q5 0 8.5 -4t3.5 -9v-86q0 -5 -3.5 -9.5t-8.5 -4.5h-17q-21 -1 -30.5 -13.5t-9.5 -35.5q0 -20 1 -35.5t2.5 -30t2.5 -30.5t1 -37t-1 -41t-6 -36l1 1q-6 -28 -18 -44.5t-29 -25.5q29 -18 41 -57t12 -85q0 -15 -1 -33t-2.5 -36.5t-2.5 -35.5
t-1 -29q0 -23 8.5 -36.5t31.5 -14.5h17q5 0 8.5 -4t3.5 -9v-85q0 -5 -3.5 -9.5t-8.5 -4.5h-18z" />
    <glyph glyph-name="bar" unicode="|" 
d="M198 740h104v-830h-104v830z" />
    <glyph glyph-name="braceright" unicode="}" horiz-adv-x="310" 
d="M27 -10q0 5 3.5 9t8.5 4h16q13 0 21.5 5.5t12.5 14.5t5.5 20.5t1.5 22.5q0 33 -3.5 66.5t-3.5 76.5q0 55 13 82t41 42q-31 26 -42 61t-12 82q2 32 4.5 66t2.5 66q-2 23 -10.5 36t-29.5 14h-17q-5 0 -8.5 4.5t-3.5 9.5v86q0 5 3.5 9t8.5 4h18q34 0 62.5 -6t49.5 -20
t34.5 -37.5t18.5 -58.5q1 -8 1 -16v-18q0 -20 -1 -41.5t-3 -42.5q-2 -23 -3.5 -46t-1.5 -44q0 -9 2 -19t8 -18t18 -14t32 -7q5 0 8 -4t3 -9v-77q0 -13 -11 -13q-20 -1 -31.5 -7t-18 -14t-8.5 -17.5t-2 -18.5q0 -22 1.5 -46t3.5 -48q2 -21 3 -42t1 -41v-20t-1 -17
q-5 -35 -19 -57.5t-36 -36t-50 -19t-60 -5.5h-18q-5 0 -8.5 4.5t-3.5 9.5v85z" />
    <glyph glyph-name="asciitilde" unicode="~" horiz-adv-x="553" 
d="M44 197q1 37 8.5 69.5t22 56.5t36 37.5t50.5 13.5q32 0 63.5 -12t60 -27t53 -27t42.5 -12q15 0 24 15.5t11 57.5h94q-3 -41 -9.5 -74t-19 -56t-32 -35t-47.5 -12q-30 0 -58.5 12.5t-56 27t-54 27t-53.5 12.5q-18 0 -27 -16t-14 -58h-94z" />
    <glyph glyph-name="uni00A0" unicode="&#xa0;" horiz-adv-x="260" 
 />
    <glyph glyph-name="exclamdown" unicode="&#xa1;" horiz-adv-x="293" 
d="M147 677q36 0 61 -25.5t25 -61.5t-25 -61t-61 -25t-61.5 25t-25.5 61t25.5 61.5t61.5 25.5zM77 83v288v15q1 36 19.5 57t50.5 21q31 0 50.5 -21.5t19.5 -56.5v-15v-288v-15q-1 -36 -20 -57t-50 -21q-32 0 -51 21.5t-19 56.5v15z" />
    <glyph glyph-name="cent" unicode="&#xa2;" horiz-adv-x="490" 
d="M336 103q0 -25 -5 -38.5t-16 -22.5q-19 -16 -45 -16q-20 0 -35.5 9t-22.5 24q-6 13 -8 26t-2 42q-36 14 -59 28t-44 35q-34 33 -53 79.5t-19 94.5q0 41 13 78.5t36 68.5t55 54t71 34q1 48 16.5 67.5t50.5 19.5q37 0 52.5 -19.5t14.5 -67.5q23 -6 41.5 -14t38.5 -22
q27 -19 37 -33.5t10 -36.5q0 -29 -19.5 -47.5t-49.5 -18.5q-11 0 -18.5 3.5t-21.5 13.5q-20 17 -38 24t-39 7q-24 0 -44.5 -9t-36.5 -24.5t-25 -36t-9 -43.5t9 -43.5t24.5 -36t36 -24.5t44.5 -9q12 0 21 1.5t18.5 5.5t20.5 11.5t25 18.5q12 9 20.5 12t21.5 3q27 0 47 -20
t20 -47q0 -17 -10.5 -33.5t-28.5 -31.5t-42.5 -26.5t-52.5 -18.5v-21z" />
    <glyph glyph-name="sterling" unicode="&#xa3;" horiz-adv-x="588" 
d="M164 0q-39 2 -63 22t-24 52q0 15 4.5 34t15.5 51l12.5 37.5t7 22.5t3.5 15.5t2 15.5h-7q-29 0 -46 5.5t-28 17.5q-18 23 -18 47q0 30 21 50.5t53 20.5h6q-5 20 -6.5 33t-1.5 28q0 46 18 87t49 71.5t72 48.5t88 18q62 0 114.5 -32t85.5 -89q26 -47 26 -108q0 -44 -20 -70
t-54 -26q-15 0 -31 6.5t-25 17.5q-10 9 -17 26q-6 12 -6 15l2 31v2q0 1 -0.5 2t-0.5 3q-5 30 -25.5 48.5t-49.5 18.5q-15 0 -28 -6t-23.5 -16.5t-16.5 -23.5t-6 -28q0 -6 1.5 -13t7.5 -32q1 -5 3 -12h14h16q36 -1 57 -20t21 -51t-21.5 -51t-56.5 -19h-12h-7q0 -30 -10 -58.5
t-27 -51.5h248h16q36 -1 57 -19.5t21 -50.5t-21.5 -51t-56.5 -19h-15h-302h-16z" />
    <glyph glyph-name="currency" unicode="&#xa4;" horiz-adv-x="523" 
d="M15 134l83 80q-13 21 -23 50t-10 69q0 41 10 69.5t21 48.5l-86 78l66 68l75 -86q21 19 50 28.5t61 9.5t61 -9t50 -26l75 83l65 -68l-86 -78q11 -21 20 -49t9 -67q0 -40 -9 -69.5t-23 -49.5l84 -82l-64 -65l-72 87q-22 -20 -52.5 -30t-59.5 -10t-59.5 10t-50.5 30l-71 -87
zM262 449q-35 0 -60.5 -30t-25.5 -85q0 -29 7 -51t19 -37t27.5 -22.5t31.5 -7.5q34 0 59.5 30t25.5 88q0 53 -24.5 84t-59.5 31z" />
    <glyph glyph-name="yen" unicode="&#xa5;" horiz-adv-x="577" 
d="M212 96v157h-65h-15q-36 2 -57 20.5t-21 49.5q0 33 22 51.5t60 18.5h8l-103 140q-28 40 -28 66q0 31 22.5 53t54.5 22q23 0 40.5 -12.5t35.5 -41.5l122 -190l122 190q19 29 36.5 41.5t39.5 12.5q32 0 55 -22t23 -53q0 -26 -28 -66l-103 -140h9q38 0 60 -18.5t22 -51.5
q0 -31 -22 -51q-11 -11 -26.5 -15t-44.5 -4h-66v-157v-17q-1 -40 -21.5 -63t-54.5 -23q-35 0 -56 24t-21 62v17z" />
    <glyph glyph-name="brokenbar" unicode="&#xa6;" 
d="M198 260h104v-350h-104v350zM198 740h104v-350h-104v350z" />
    <glyph glyph-name="section" unicode="&#xa7;" horiz-adv-x="587" 
d="M235 161q-50 14 -90 30t-68 38t-42.5 53t-14.5 75q0 46 21.5 83t59.5 63q-35 40 -35 105q0 42 16.5 76.5t46 59.5t70.5 39t90 14q42 0 79 -10t64.5 -26.5t43.5 -39.5t16 -48q0 -29 -19 -48.5t-46 -19.5q-9 0 -18.5 3t-17.5 9q-2 1 -10.5 8t-22.5 18q-39 31 -75 31
q-29 0 -50.5 -17.5t-21.5 -41.5t17 -37t61 -24l46 -12q42 -10 73 -20.5t55 -21.5q51 -24 77.5 -66t26.5 -98q0 -51 -21 -90t-58 -65q16 -22 24.5 -48.5t8.5 -57.5q0 -47 -17 -86t-48 -66.5t-74 -43t-95 -15.5q-47 0 -89.5 12.5t-75 34t-51.5 50t-19 59.5q0 14 5.5 26.5
t14.5 22.5t21 15.5t25 5.5q20 0 37.5 -8.5t41.5 -28.5q28 -26 52 -37.5t49 -11.5q32 0 54 19.5t22 49.5q0 25 -18 41.5t-57 28.5zM243 293q31 -8 61.5 -18t44.5 -10q29 0 50 20t21 49q0 25 -18 42t-57 28q-15 4 -31.5 8.5t-32 9t-27.5 7.5t-17 3q-15 0 -28 -6.5t-22.5 -16
t-15.5 -21.5t-6 -24q0 -24 17 -42t61 -29z" />
    <glyph glyph-name="dieresis" unicode="&#xa8;" 
d="M347 680q32 0 53.5 -22t21.5 -53q0 -32 -22 -54t-54 -22t-54.5 22t-22.5 52q0 32 23 54.5t55 22.5zM157 680q32 0 53.5 -22t21.5 -53q0 -32 -22 -54t-54 -22t-54.5 22t-22.5 52q0 32 23 54.5t55 22.5z" />
    <glyph glyph-name="copyright" unicode="&#xa9;" horiz-adv-x="752" 
d="M468 267q8 7 16.5 11t19.5 4q19 0 33 -14t14 -34q0 -21 -22 -42q-26 -28 -64.5 -43.5t-78.5 -15.5q-42 0 -79 16.5t-64.5 44t-44 64.5t-16.5 79t16 78.5t44 64.5t65 44t79 16q72 0 129 -48h-1q34 -27 34 -52q0 -20 -14 -33.5t-34 -13.5q-19 0 -35 15l-10 9q-14 12 -32 19
t-38 7q-22 0 -41.5 -8.5t-33.5 -23t-22.5 -34t-8.5 -41.5t8.5 -41.5t23 -34t34 -23t41.5 -8.5q18 0 36.5 6.5t29.5 16.5zM20 333q0 74 28 139t76 113t113 76t139 28t139 -28t113 -76t76 -113t28 -139t-28 -139t-76 -113t-113 -76t-139 -28t-139 28t-113 76t-76 113t-28 139z
M98 333q0 -57 22 -108t59.5 -88.5t88.5 -59.5t108 -22t108 22t88.5 59.5t59.5 88.5t22 108t-22 108t-59.5 88.5t-88.5 59.5t-108 22t-108 -22t-88.5 -59.5t-59.5 -88.5t-22 -108z" />
    <glyph glyph-name="ordfeminine" unicode="&#xaa;" horiz-adv-x="441" 
d="M334 436q0 -14 -3 -23.5t-7 -15.5q-5 -7 -13.5 -11.5t-19.5 -4.5q-23 0 -37 22q-32 -23 -65 -23q-42 0 -70 29t-28 73q0 45 29.5 74.5t74.5 29.5q27 0 54 -14q-1 31 -31 31q-3 0 -8.5 -0.5t-10.5 -2.5l-20 -5q-13 -5 -24 -5q-15 0 -24.5 9.5t-9.5 24.5q0 24 26.5 38.5
t69.5 14.5q29 0 52.5 -8t39.5 -24q14 -14 19.5 -33.5t5.5 -51.5v-124zM249 484q0 16 -10 26.5t-25 10.5q-14 0 -24.5 -10.5t-10.5 -25.5t10.5 -25t25.5 -10q14 0 24 10t10 24z" />
    <glyph glyph-name="guillemotleft" unicode="&#xab;" horiz-adv-x="435" 
d="M37 216l-7 11q-14 23 -14 40q0 8 4.5 19t11.5 21l53 78l7 11q22 32 53 32q24 0 41.5 -17.5t17.5 -40.5q0 -18 -13 -39l-7 -11l-34 -53l34 -53l8 -11q13 -23 13 -41q0 -23 -18 -40.5t-43 -17.5q-20 0 -32.5 9t-29.5 35zM237 216l-7 11q-14 23 -14 40q0 8 4.5 19t11.5 21
l53 78l7 11q22 32 53 32q24 0 41.5 -17.5t17.5 -40.5q0 -18 -13 -39l-7 -11l-34 -53l34 -53l8 -11q13 -23 13 -41q0 -23 -18 -40.5t-43 -17.5q-20 0 -32.5 9t-29.5 35z" />
    <glyph glyph-name="logicalnot" unicode="&#xac;" horiz-adv-x="553" 
d="M419 330h-380v91h475v-291h-95v200z" />
    <glyph glyph-name="uni00AD" unicode="&#xad;" horiz-adv-x="367" 
d="M156 198h-9q-38 0 -59 17.5t-21 48.5q0 30 20.5 48.5t53.5 18.5h15h54h15q34 -1 54 -19t20 -47q0 -30 -20.5 -48.5t-53.5 -18.5h-8h-61z" />
    <glyph glyph-name="registered" unicode="&#xae;" horiz-adv-x="392" 
d="M174 459v-27q0 -12 -6.5 -19.5t-17.5 -7.5t-17.5 7.5t-6.5 19.5v143q0 27 27 27h35q33 0 49 -12q16 -10 25 -26t9 -33q0 -41 -41 -58l29 -21q13 -11 13 -22t-7 -17.5t-17 -6.5q-8 0 -17 6zM188 503q10 0 15 1t9 3q12 7 12 23t-15 24q-5 2 -8.5 2.5t-13.5 0.5h-13v-54h14z
M20 502q0 36 13.5 68t37.5 56t56 38t69 14q36 0 68 -14t56 -38t38 -56t14 -68t-14 -68t-38 -56t-56 -38t-68 -14q-37 0 -69 14t-56 38t-37.5 56t-13.5 68zM58 502q0 -29 11 -53.5t29.5 -43.5t43.5 -29.5t54 -10.5q28 0 53 10.5t44 29.5t29.5 43.5t10.5 53.5q0 28 -10.5 53
t-29.5 44t-44 29.5t-53 10.5q-29 0 -54 -10.5t-43.5 -29.5t-29.5 -44t-11 -53z" />
    <glyph glyph-name="macron" unicode="&#xaf;" 
d="M168 534h-9q-38 0 -59 17.5t-21 48.5q0 30 20.5 48.5t53.5 18.5h15h165h15q34 -1 54 -19t20 -47q0 -30 -20.5 -48.5t-53.5 -18.5h-8h-172z" />
    <glyph glyph-name="degree" unicode="&#xb0;" horiz-adv-x="400" 
d="M200 690q33 0 62 -12t50 -32.5t33 -47.5t12 -58q0 -33 -12.5 -60.5t-34 -47.5t-50.5 -31.5t-61 -11.5q-33 0 -61.5 11.5t-49.5 32t-33 47.5t-12 59q0 31 12 58.5t33.5 48t50 32.5t61.5 12zM200 621q-33 0 -55 -24t-22 -58t21.5 -57.5t55.5 -23.5q33 0 55 23t22 58
q0 34 -21 58t-56 24z" />
    <glyph glyph-name="plusminus" unicode="&#xb1;" horiz-adv-x="553" 
d="M228 313h-190v92h190v172h96v-172h190v-92h-190v-175h-96v175zM38 85h476v-85h-476v85z" />
    <glyph glyph-name="twosuperior" unicode="&#xb2;" horiz-adv-x="441" 
d="M141 272q-2 0 -3.5 0.5t-2.5 0.5l-21 5q-12 5 -20 16t-8 23q0 8 4.5 19.5t11.5 16.5l146 145q16 16 16 33t-13.5 30.5t-31.5 13.5q-19 0 -32 -13t-13 -33l1 -11q0 -20 -14 -33.5t-34 -13.5q-23 0 -36.5 16.5t-13.5 43.5q0 29 11 55t30.5 45.5t44.5 30.5t54 11
q30 0 56 -11.5t45.5 -31t30.5 -46t11 -56.5q0 -27 -9.5 -51.5t-28.5 -41.5l-78 -74h69q23 0 36.5 -12t13.5 -32t-14 -32.5t-36 -12.5h-172z" />
    <glyph glyph-name="threesuperior" unicode="&#xb3;" horiz-adv-x="441" 
d="M170 405q2 -18 16 -31t33 -13q20 0 34 13.5t14 32.5q0 16 -11 30t-27 19q-15 5 -18 6.5t-6 4.5h1q-9 7 -9 24q0 19 17 30l13 6h-1q16 8 16 24q0 11 -7 19t-18 8q-19 0 -27 -26q-7 -17 -17 -24t-27 -7q-22 0 -36 14t-14 37q0 32 33 65q36 36 86 36q24 0 46.5 -9t40 -24.5
t27.5 -36t10 -42.5q0 -17 -5.5 -31t-17.5 -29q11 -8 16 -12.5t10 -10.5v1q11 -14 17.5 -33t6.5 -38q0 -28 -12 -54t-32 -45.5t-46.5 -31t-56.5 -11.5q-29 0 -56 11.5t-47.5 30.5t-32.5 44.5t-12 52.5q0 23 14.5 38t36.5 15q20 0 33 -11t15 -30v-12z" />
    <glyph glyph-name="acute" unicode="&#xb4;" 
d="M295 541q-6 -7 -17 -11.5t-22 -4.5q-23 0 -40 17t-17 40t18 41l49 51q11 11 20 15.5t22 4.5q24 0 41 -17t17 -41q0 -21 -16 -37z" />
    <glyph glyph-name="mu" unicode="&#xb5;" horiz-adv-x="543" 
d="M55 500h149v-288q0 -49 16 -76t51 -27q29 0 43.5 17t19.5 36l3 338h149v-330q0 -51 1 -94.5t3 -75.5h-128l-8 61h-2q-5 -12 -14 -23.5t-22.5 -21.5t-31 -16t-39.5 -6q-17 0 -32 6.5t-26 16.5v-207h-132v690z" />
    <glyph glyph-name="paragraph" unicode="&#xb6;" horiz-adv-x="586" 
d="M324 422q-26 -21 -53 -30t-59 -9q-41 0 -76 15.5t-61 43t-40.5 65.5t-14.5 82q0 45 14.5 83t41 65.5t62 43.5t77.5 16q34 0 60.5 -10t53.5 -33q8 21 20 30.5t33 9.5q34 0 44 -20.5t10 -50.5v-796q0 -30 -15.5 -46.5t-41.5 -16.5q-24 0 -39.5 17t-15.5 46v495zM509 -136
q-24 0 -39.5 17t-15.5 46v804q0 29 15.5 46t39.5 17q26 0 41.5 -16.5t15.5 -46.5v-804q0 -30 -15.5 -46.5t-41.5 -16.5zM223 495q19 0 36 7.5t30 20.5t20 30t7 36q0 40 -27 67.5t-66 27.5q-40 0 -68 -27.5t-28 -68.5q0 -19 7.5 -36t21 -29.5t30.5 -20t37 -7.5z" />
    <glyph glyph-name="periodcentered" unicode="&#xb7;" horiz-adv-x="280" 
d="M139 247q-36 0 -61 25t-25 61t25 61.5t61 25.5t61.5 -25.5t25.5 -61.5t-25.5 -61t-61.5 -25z" />
    <glyph glyph-name="cedilla" unicode="&#xb8;" 
d="M263 -143q-7 -8 -18 -12t-22 -4q-23 0 -39.5 17t-16.5 40q0 24 17 41l53 55q7 8 18 12t22 4q21 0 39 -16q9 -9 13 -20.5t4 -20.5q0 -21 -15 -39z" />
    <glyph glyph-name="onesuperior" unicode="&#xb9;" horiz-adv-x="441" 
d="M181 577q-3 0 -5.5 0.5t-4.5 0.5h-8q-23 0 -36.5 12t-13.5 32t13.5 32.5t36.5 12.5h61q53 0 53 -64v-281q0 -25 -13 -39.5t-35 -14.5q-21 0 -34.5 15t-13.5 39v255z" />
    <glyph glyph-name="ordmasculine" unicode="&#xba;" horiz-adv-x="441" 
d="M222 677q30 0 57 -11.5t46.5 -31.5t31 -46.5t11.5 -57.5q0 -30 -11.5 -56t-31.5 -46t-47 -31.5t-57 -11.5t-57 11.5t-47 31t-31.5 45.5t-11.5 56q0 31 11.5 58t31 47t46.5 31.5t59 11.5zM222 594q-27 0 -45 -18.5t-18 -45.5q0 -25 18 -43t44 -18t44.5 18t18.5 44
t-18 44.5t-44 18.5z" />
    <glyph glyph-name="guillemotright" unicode="&#xbb;" horiz-adv-x="435" 
d="M251 214l34 53l-34 53l-7 11q-13 21 -13 39q0 23 18 40.5t42 17.5q32 0 53 -32l7 -11l53 -78q7 -10 11 -21t4 -19q0 -19 -13 -40l-7 -11l-46 -68q-17 -26 -29.5 -35t-31.5 -9q-25 0 -43 17.5t-18 40.5q0 20 13 41zM51 214l34 53l-34 53l-7 11q-13 21 -13 39q0 23 18 40.5
t42 17.5q32 0 53 -32l7 -11l53 -78q7 -10 11 -21t4 -19q0 -19 -13 -40l-7 -11l-46 -68q-17 -26 -29.5 -35t-31.5 -9q-25 0 -43.5 17.5t-18.5 40.5q0 9 4 20t10 21z" />
    <glyph glyph-name="onequarter" unicode="&#xbc;" horiz-adv-x="882" 
d="M181 577q-3 0 -5.5 0.5t-4.5 0.5h-8q-23 0 -36.5 12t-13.5 32t13.5 32.5t36.5 12.5h61q53 0 53 -64v-281q0 -25 -13 -39.5t-35 -14.5q-21 0 -34.5 15t-13.5 39v255zM354 40q-25 -49 -53 -49q-17 0 -29 11.5t-12 26.5q0 19 12 45l250 538q17 35 30.5 48.5t31.5 13.5
q17 0 28 -10t11 -27q0 -8 -3.5 -21t-9.5 -25l-250 -538zM686 79h-134q-5 0 -10 0.5t-12 4.5q-14 8 -22 19t-8 32v36q0 8 5 19.5t11 19.5l109 152q12 17 23.5 25t28.5 8h52q18 0 25.5 -2.5t15.5 -10.5q12 -12 12 -42v-171q24 0 38.5 -11.5t14.5 -33.5q0 -12 -6 -23t-16 -16
q-6 -3 -13 -4.5t-18 -1.5v-29q0 -24 -13.5 -39t-34.5 -15q-22 0 -35 15t-13 39v29zM686 169v128l-91 -128h91z" />
    <glyph glyph-name="onehalf" unicode="&#xbd;" horiz-adv-x="882" 
d="M181 577q-3 0 -5.5 0.5t-4.5 0.5h-8q-23 0 -36.5 12t-13.5 32t13.5 32.5t36.5 12.5h61q53 0 53 -64v-281q0 -25 -13 -39.5t-35 -14.5q-21 0 -34.5 15t-13.5 39v255zM582 0q-2 0 -3.5 0.5t-2.5 0.5l-21 5q-12 5 -20 16t-8 23q0 8 4.5 19.5t11.5 16.5l146 145q16 16 16 33
t-13.5 30.5t-31.5 13.5q-19 0 -32 -13t-13 -33l1 -11q0 -20 -14 -33.5t-34 -13.5q-23 0 -36.5 16.5t-13.5 43.5q0 29 11 55t30.5 45.5t44.5 30.5t54 11q30 0 56 -11.5t45.5 -31t30.5 -46t11 -56.5q0 -27 -9.5 -51.5t-28.5 -41.5l-78 -74h69q23 0 36.5 -12t13.5 -32
t-14 -32.5t-36 -12.5h-172zM334 40q-25 -49 -53 -49q-17 0 -29 11.5t-12 26.5q0 19 12 45l6 12l244 526q17 35 30.5 48.5t31.5 13.5q17 0 28 -10t11 -27q0 -8 -3.5 -21t-9.5 -25l-3 -7l-247 -531z" />
    <glyph glyph-name="threequarters" unicode="&#xbe;" horiz-adv-x="882" 
d="M170 405q2 -18 16 -31t33 -13q20 0 34 13.5t14 32.5q0 16 -11 30t-27 19q-5 2 -12 4t-11 7q-9 7 -9 24q0 19 17 30l12 6q16 8 16 24q0 11 -7 19t-18 8q-19 0 -27 -26q-7 -17 -17 -24t-27 -7q-22 0 -36 14t-14 37q0 32 33 65q36 36 86 36q24 0 46.5 -9t40 -24.5t27.5 -36
t10 -42.5q0 -17 -5.5 -31t-17.5 -29q11 -8 16 -12.5t10 -9.5q11 -14 17.5 -33t6.5 -38q0 -28 -12 -54t-32 -45.5t-46.5 -31t-56.5 -11.5q-29 0 -56 11.5t-47.5 30.5t-32.5 44.5t-12 52.5q0 23 14.5 38t36.5 15q20 0 33 -11t15 -30v-12zM686 79h-134q-5 0 -10 0.5t-12 4.5
q-14 8 -22 19t-8 32v36q0 8 5 19.5t11 19.5l109 152q12 17 23.5 25t28.5 8h52q18 0 25.5 -2.5t15.5 -10.5q12 -12 12 -42v-171q24 0 38.5 -11.5t14.5 -33.5q0 -12 -6 -23t-16 -16q-6 -3 -13 -4.5t-18 -1.5v-29q0 -24 -13.5 -39t-34.5 -15q-22 0 -35 15t-13 39v29zM686 169
v128l-91 -128h91zM364 40q-25 -49 -53 -49q-17 0 -29 11.5t-12 26.5q0 19 12 45l250 538q17 35 30.5 48.5t31.5 13.5q17 0 28 -10t11 -27q0 -8 -3.5 -21t-9.5 -25l-250 -538z" />
    <glyph glyph-name="questiondown" unicode="&#xbf;" horiz-adv-x="541" 
d="M268 677q36 0 61.5 -25.5t25.5 -61.5t-25.5 -61t-61.5 -25t-61 25t-25 61t25 61.5t61 25.5zM37 230q0 48 18.5 90.5t51 75t75.5 51t91 18.5q37 0 58.5 -18t21.5 -49q0 -29 -17 -45.5t-55 -21.5q-108 -17 -108 -104q0 -22 8 -41t22 -33t33 -22t40 -8q82 0 104 98
q12 54 64 54q29 0 48 -20t19 -50t-15 -66t-38 -65q-33 -40 -81.5 -62t-102.5 -22q-49 0 -92 19t-75.5 51.5t-51 76t-18.5 93.5z" />
    <glyph glyph-name="Agrave" unicode="&#xc0;" horiz-adv-x="628" 
d="M470 64l-23 50h-268l-21 -49l-6 -15q-25 -54 -75 -54q-31 0 -54 21.5t-23 51.5q0 19 11 43l7 15l221 495q21 47 73 47q24 0 43.5 -12t29.5 -35l227 -493q11 -24 14 -35t3 -25q0 -30 -23 -52t-54 -22q-51 0 -75 53zM394 246l-81 192l-79 -192h160zM213 788q-16 16 -16 38
q0 24 17 40.5t42 16.5q12 0 21 -4.5t20 -15.5l49 -51q18 -18 18 -41t-17 -40t-40 -17q-11 0 -22 4.5t-17 11.5z" />
    <glyph glyph-name="Aacute" unicode="&#xc1;" horiz-adv-x="628" 
d="M470 64l-23 50h-268l-21 -49l-6 -15q-25 -54 -75 -54q-31 0 -54 21.5t-23 51.5q0 19 11 43l7 15l221 495q21 47 73 47q24 0 43.5 -12t29.5 -35l227 -493q11 -24 14 -35t3 -25q0 -30 -23 -52t-54 -22q-51 0 -75 53zM394 246l-81 192l-79 -192h160zM359 730
q-6 -7 -17 -11.5t-22 -4.5q-23 0 -40 17t-17 40t18 41l49 51q11 11 20 15.5t22 4.5q24 0 41 -17t17 -41q0 -21 -16 -37z" />
    <glyph glyph-name="Acircumflex" unicode="&#xc2;" horiz-adv-x="628" 
d="M470 64l-23 50h-268l-21 -49l-6 -15q-25 -54 -75 -54q-31 0 -54 21.5t-23 51.5q0 19 11 43l7 15l221 495q21 47 73 47q24 0 43.5 -12t29.5 -35l227 -493q11 -24 14 -35t3 -25q0 -30 -23 -52t-54 -22q-51 0 -75 53zM394 246l-81 192l-79 -192h160zM315 753l-34 -29
q-5 -5 -15 -8t-20 -3q-23 0 -40 16.5t-17 40.5q0 10 3.5 19.5t9.5 14.5l75 69q5 5 16 8t20 3q11 0 21.5 -3t16.5 -8l68 -59q20 -17 20 -45q0 -23 -16 -39.5t-40 -16.5q-19 0 -33 11z" />
    <glyph glyph-name="Atilde" unicode="&#xc3;" horiz-adv-x="628" 
d="M470 64l-23 50h-268l-21 -49l-6 -15q-25 -54 -75 -54q-31 0 -54 21.5t-23 51.5q0 19 11 43l7 15l221 495q21 47 73 47q24 0 43.5 -12t29.5 -35l227 -493q11 -24 14 -35t3 -25q0 -30 -23 -52t-54 -22q-51 0 -75 53zM394 246l-81 192l-79 -192h160zM224 732q-10 -5 -19 -5
q-18 0 -30.5 13.5t-12.5 33.5q0 18 8 34t21.5 28.5t30.5 20t36 7.5q14 0 25 -3t32 -12q27 -13 46 -13q14 0 22 4l20 11q12 5 19 5q17 0 30.5 -14t13.5 -32t-8.5 -34.5t-22.5 -29t-32.5 -20t-38.5 -7.5q-12 0 -22.5 3t-29.5 11q-17 8 -28 11t-20 3q-14 0 -21 -5z" />
    <glyph glyph-name="Adieresis" unicode="&#xc4;" horiz-adv-x="628" 
d="M470 64l-23 50h-268l-21 -49l-6 -15q-25 -54 -75 -54q-31 0 -54 21.5t-23 51.5q0 19 11 43l7 15l221 495q21 47 73 47q24 0 43.5 -12t29.5 -35l227 -493q11 -24 14 -35t3 -25q0 -30 -23 -52t-54 -22q-51 0 -75 53zM394 246l-81 192l-79 -192h160zM411 869q32 0 53.5 -22
t21.5 -53q0 -32 -22 -54t-54 -22t-54.5 22t-22.5 52q0 32 23 54.5t55 22.5zM221 869q32 0 53.5 -22t21.5 -53q0 -32 -22 -54t-54 -22t-54.5 22t-22.5 52q0 32 23 54.5t55 22.5z" />
    <glyph glyph-name="Aring" unicode="&#xc5;" horiz-adv-x="628" 
d="M470 64l-23 50h-268l-21 -49l-6 -15q-25 -54 -75 -54q-31 0 -54 21.5t-23 51.5q0 19 11 43l7 15l221 495q21 47 73 47q24 0 43.5 -12t29.5 -35l227 -493q11 -24 14 -35t3 -25q0 -30 -23 -52t-54 -22q-51 0 -75 53zM394 246l-81 192l-79 -192h160zM315 893q19 0 36 -7
t29.5 -19.5t19.5 -29.5t7 -36t-7.5 -35.5t-20 -29t-29.5 -19.5t-36 -7t-35.5 7t-29 19.5t-20 29t-7.5 34.5q0 39 27 66t66 27zM315 846q-20 0 -33 -13t-13 -33q0 -17 13 -30t32 -13t32.5 13t13.5 31q0 19 -13 32t-32 13z" />
    <glyph glyph-name="AE" unicode="&#xc6;" horiz-adv-x="845" 
d="M489 0q-18 0 -31 1t-22 3.5t-16 7t-14 11.5q-14 14 -19 30t-5 48v47h-176l-55 -107q-25 -51 -76 -51q-32 0 -54 21t-22 52q0 10 3 21t8 20l7 12l273 509q13 23 29 32.5t44 9.5h369q22 0 34.5 -2t23.5 -8q16 -8 25.5 -24t9.5 -36q0 -71 -93 -71h-197v-123h156
q22 0 32 -1.5t21 -6.5q14 -7 22.5 -22.5t8.5 -32.5t-9 -33t-23 -22q-8 -4 -21.5 -6.5t-30.5 -2.5h-156v-136h203q21 0 34.5 -2t24.5 -7q15 -8 25 -25t10 -37q0 -19 -10 -36t-25 -24q-9 -4 -26 -6.5t-33 -2.5h-249zM382 277v217l-111 -217h111z" />
    <glyph glyph-name="Ccedilla" unicode="&#xc7;" horiz-adv-x="665" 
d="M354 -153q-7 -8 -18.5 -12t-23.5 -4q-25 0 -42 17.5t-17 42.5q0 24 18 42l52 55q2 1 3 2.5t3 3.5q-64 9 -118.5 39.5t-94.5 76t-63 103t-23 120.5q0 72 27 134.5t73.5 109t109.5 73.5t134 27q70 0 135.5 -28t111.5 -78q14 -16 19.5 -28.5t5.5 -28.5q0 -32 -21.5 -54
t-53.5 -22q-16 0 -29 5.5t-27 19.5l-16 15q-25 22 -58 34.5t-68 12.5q-39 0 -74 -15t-60.5 -41t-40.5 -61t-15 -75q0 -39 15 -74t41.5 -61t61.5 -41t74 -15q32 0 65 12t53 30l27 24q26 25 57 25t53 -22t22 -53q0 -27 -23 -55.5t-68 -56.5q-71 -46 -153 -54q20 -17 20 -44
q0 -23 -16 -40z" />
    <glyph glyph-name="Egrave" unicode="&#xc8;" horiz-adv-x="536" 
d="M162 0q-89 2 -89 89v18v453v18q2 89 89 89h18h244h16q35 -1 56 -19.5t21 -50.5t-21 -51t-56 -19h-16h-198v-124h156h14q32 -1 51.5 -17.5t19.5 -45.5t-19.5 -46.5t-51.5 -17.5h-14h-156v-136h203h16q35 -1 56.5 -19.5t21.5 -50.5t-21.5 -51t-56.5 -19h-16h-249h-18z
M192 788q-16 16 -16 38q0 24 17 40.5t42 16.5q12 0 21 -4.5t20 -15.5l49 -51q18 -18 18 -41t-17 -40t-40 -17q-11 0 -22 4.5t-17 11.5z" />
    <glyph glyph-name="Eacute" unicode="&#xc9;" horiz-adv-x="536" 
d="M162 0q-89 2 -89 89v18v453v18q2 89 89 89h18h244h16q35 -1 56 -19.5t21 -50.5t-21 -51t-56 -19h-16h-198v-124h156h14q32 -1 51.5 -17.5t19.5 -45.5t-19.5 -46.5t-51.5 -17.5h-14h-156v-136h203h16q35 -1 56.5 -19.5t21.5 -50.5t-21.5 -51t-56.5 -19h-16h-249h-18z
M338 730q-6 -7 -17 -11.5t-22 -4.5q-23 0 -40 17t-17 40t18 41l49 51q11 11 20 15.5t22 4.5q24 0 41 -17t17 -41q0 -21 -16 -37z" />
    <glyph glyph-name="Ecircumflex" unicode="&#xca;" horiz-adv-x="536" 
d="M162 0q-89 2 -89 89v18v453v18q2 89 89 89h18h244h16q35 -1 56 -19.5t21 -50.5t-21 -51t-56 -19h-16h-198v-124h156h14q32 -1 51.5 -17.5t19.5 -45.5t-19.5 -46.5t-51.5 -17.5h-14h-156v-136h203h16q35 -1 56.5 -19.5t21.5 -50.5t-21.5 -51t-56.5 -19h-16h-249h-18z
M294 753l-34 -29q-5 -5 -15 -8t-20 -3q-23 0 -40 16.5t-17 40.5q0 10 3.5 19.5t9.5 14.5l75 69q5 5 16 8t20 3q11 0 21.5 -3t16.5 -8l68 -59q20 -17 20 -45q0 -23 -16 -39.5t-40 -16.5q-19 0 -33 11z" />
    <glyph glyph-name="Edieresis" unicode="&#xcb;" horiz-adv-x="536" 
d="M162 0q-89 2 -89 89v18v453v18q2 89 89 89h18h244h16q35 -1 56 -19.5t21 -50.5t-21 -51t-56 -19h-16h-198v-124h156h14q32 -1 51.5 -17.5t19.5 -45.5t-19.5 -46.5t-51.5 -17.5h-14h-156v-136h203h16q35 -1 56.5 -19.5t21.5 -50.5t-21.5 -51t-56.5 -19h-16h-249h-18z
M390 869q32 0 53.5 -22t21.5 -53q0 -32 -22 -54t-54 -22t-54.5 22t-22.5 52q0 32 23 54.5t55 22.5zM200 869q32 0 53.5 -22t21.5 -53q0 -32 -22 -54t-54 -22t-54.5 22t-22.5 52q0 32 23 54.5t55 22.5z" />
    <glyph glyph-name="Igrave" unicode="&#xcc;" horiz-adv-x="300" 
d="M73 96v475v17q1 39 21.5 62t55.5 23t55.5 -23.5t20.5 -61.5v-17v-475v-17q0 -39 -20.5 -62.5t-55.5 -23.5t-56 24t-21 62v17zM50 788q-16 16 -16 38q0 24 17 40.5t42 16.5q12 0 21 -4.5t20 -15.5l49 -51q18 -18 18 -41t-17 -40t-40 -17q-11 0 -22 4.5t-17 11.5z" />
    <glyph glyph-name="Iacute" unicode="&#xcd;" horiz-adv-x="300" 
d="M73 96v475v17q1 39 21.5 62t55.5 23t55.5 -23.5t20.5 -61.5v-17v-475v-17q0 -39 -20.5 -62.5t-55.5 -23.5t-56 24t-21 62v17zM196 730q-6 -7 -17 -11.5t-22 -4.5q-23 0 -40 17t-17 40t18 41l49 51q11 11 20 15.5t22 4.5q24 0 41 -17t17 -41q0 -21 -16 -37z" />
    <glyph glyph-name="Icircumflex" unicode="&#xce;" horiz-adv-x="300" 
d="M73 96v475v17q1 39 21.5 62t55.5 23t55.5 -23.5t20.5 -61.5v-17v-475v-17q0 -39 -20.5 -62.5t-55.5 -23.5t-56 24t-21 62v17zM152 753l-34 -29q-5 -5 -15 -8t-20 -3q-23 0 -40 16.5t-17 40.5q0 10 3.5 19.5t9.5 14.5l75 69q5 5 16 8t20 3q11 0 21.5 -3t16.5 -8l68 -59
q20 -17 20 -45q0 -23 -16 -39.5t-40 -16.5q-19 0 -33 11z" />
    <glyph glyph-name="Idieresis" unicode="&#xcf;" horiz-adv-x="300" 
d="M73 96v475v17q1 39 21.5 62t55.5 23t55.5 -23.5t20.5 -61.5v-17v-475v-17q0 -39 -20.5 -62.5t-55.5 -23.5t-56 24t-21 62v17zM248 869q32 0 53.5 -22t21.5 -53q0 -32 -22 -54t-54 -22t-54.5 22t-22.5 52q0 32 23 54.5t55 22.5zM58 869q32 0 53.5 -22t21.5 -53
q0 -32 -22 -54t-54 -22t-54.5 22t-22.5 52q0 32 23 54.5t55 22.5z" />
    <glyph glyph-name="Eth" unicode="&#xd0;" horiz-adv-x="698" 
d="M309 667q77 0 129.5 -16t99.5 -53q62 -50 96 -119t34 -147q0 -43 -11 -84.5t-32 -78t-51 -67.5t-67 -54q-78 -48 -198 -48h-147q-89 2 -89 89v180h-16q-35 1 -56 19.5t-21 50.5t21 51t56 19h16v169q2 89 89 89h147zM226 409h107q35 -1 56 -19.5t21 -50.5t-21 -51t-56 -19
h-107v-130h65q50 0 81 6.5t57 23.5q40 26 63 69t23 94q0 43 -16 78.5t-45.5 60.5t-70.5 39t-91 14h-66v-115z" />
    <glyph glyph-name="Ntilde" unicode="&#xd1;" horiz-adv-x="724" 
d="M226 387v-291v-17q0 -39 -20.5 -62.5t-55.5 -23.5t-56 24t-21 62v17v488q0 22 2.5 33.5t10.5 22.5q22 33 60 33q21 0 36.5 -9t35.5 -35l280 -353v295v17q1 39 21.5 62t54.5 23q35 0 56 -23.5t21 -61.5v-17v-480q0 -28 -2 -40.5t-10 -23.5q-11 -17 -29.5 -27t-39.5 -10
t-35.5 9.5t-36.5 38.5zM272 732q-10 -5 -19 -5q-18 0 -30.5 13.5t-12.5 33.5q0 18 8 34t21.5 28.5t30.5 20t36 7.5q14 0 25 -3t32 -12q27 -13 46 -13q14 0 22 4l20 11q12 5 19 5q17 0 30.5 -14t13.5 -32t-8.5 -34.5t-22.5 -29t-32.5 -20t-38.5 -7.5q-12 0 -22.5 3t-29.5 11
q-17 8 -28 11t-20 3q-14 0 -21 -5z" />
    <glyph glyph-name="Ograve" unicode="&#xd2;" horiz-adv-x="749" 
d="M373 677q66 0 130 -27t115 -76q49 -47 75 -109.5t26 -132.5q0 -71 -27 -133t-74 -108.5t-109.5 -73.5t-133.5 -27q-72 0 -134.5 27t-109.5 73.5t-74 109t-27 133.5t27 134t73.5 109.5t109 73.5t133.5 27zM375 525q-39 0 -74.5 -15.5t-61.5 -41.5t-41.5 -61.5t-15.5 -74.5
t15 -74t41.5 -61t61.5 -41t75 -15t74.5 15t60.5 41t41 60.5t15 74.5t-15 75t-41 61t-61 41.5t-74 15.5zM273 788q-16 16 -16 38q0 24 17 40.5t42 16.5q12 0 21 -4.5t20 -15.5l49 -51q18 -18 18 -41t-17 -40t-40 -17q-11 0 -22 4.5t-17 11.5z" />
    <glyph glyph-name="Oacute" unicode="&#xd3;" horiz-adv-x="749" 
d="M373 677q66 0 130 -27t115 -76q49 -47 75 -109.5t26 -132.5q0 -71 -27 -133t-74 -108.5t-109.5 -73.5t-133.5 -27q-72 0 -134.5 27t-109.5 73.5t-74 109t-27 133.5t27 134t73.5 109.5t109 73.5t133.5 27zM375 525q-39 0 -74.5 -15.5t-61.5 -41.5t-41.5 -61.5t-15.5 -74.5
t15 -74t41.5 -61t61.5 -41t75 -15t74.5 15t60.5 41t41 60.5t15 74.5t-15 75t-41 61t-61 41.5t-74 15.5zM419 730q-6 -7 -17 -11.5t-22 -4.5q-23 0 -40 17t-17 40t18 41l49 51q11 11 20 15.5t22 4.5q24 0 41 -17t17 -41q0 -21 -16 -37z" />
    <glyph glyph-name="Ocircumflex" unicode="&#xd4;" horiz-adv-x="749" 
d="M373 677q66 0 130 -27t115 -76q49 -47 75 -109.5t26 -132.5q0 -71 -27 -133t-74 -108.5t-109.5 -73.5t-133.5 -27q-72 0 -134.5 27t-109.5 73.5t-74 109t-27 133.5t27 134t73.5 109.5t109 73.5t133.5 27zM375 525q-39 0 -74.5 -15.5t-61.5 -41.5t-41.5 -61.5t-15.5 -74.5
t15 -74t41.5 -61t61.5 -41t75 -15t74.5 15t60.5 41t41 60.5t15 74.5t-15 75t-41 61t-61 41.5t-74 15.5zM375 753l-34 -29q-5 -5 -15 -8t-20 -3q-23 0 -40 16.5t-17 40.5q0 10 3.5 19.5t9.5 14.5l75 69q5 5 16 8t20 3q11 0 21.5 -3t16.5 -8l68 -59q20 -17 20 -45
q0 -23 -16 -39.5t-40 -16.5q-19 0 -33 11z" />
    <glyph glyph-name="Otilde" unicode="&#xd5;" horiz-adv-x="749" 
d="M373 677q66 0 130 -27t115 -76q49 -47 75 -109.5t26 -132.5q0 -71 -27 -133t-74 -108.5t-109.5 -73.5t-133.5 -27q-72 0 -134.5 27t-109.5 73.5t-74 109t-27 133.5t27 134t73.5 109.5t109 73.5t133.5 27zM375 525q-39 0 -74.5 -15.5t-61.5 -41.5t-41.5 -61.5t-15.5 -74.5
t15 -74t41.5 -61t61.5 -41t75 -15t74.5 15t60.5 41t41 60.5t15 74.5t-15 75t-41 61t-61 41.5t-74 15.5zM284 732q-10 -5 -19 -5q-18 0 -30.5 13.5t-12.5 33.5q0 18 8 34t21.5 28.5t30.5 20t36 7.5q14 0 25 -3t32 -12q27 -13 46 -13q14 0 22 4l20 11q12 5 19 5q17 0 30.5 -14
t13.5 -32t-8.5 -34.5t-22.5 -29t-32.5 -20t-38.5 -7.5q-12 0 -22.5 3t-29.5 11q-17 8 -28 11t-20 3q-14 0 -21 -5z" />
    <glyph glyph-name="Odieresis" unicode="&#xd6;" horiz-adv-x="749" 
d="M373 677q66 0 130 -27t115 -76q49 -47 75 -109.5t26 -132.5q0 -71 -27 -133t-74 -108.5t-109.5 -73.5t-133.5 -27q-72 0 -134.5 27t-109.5 73.5t-74 109t-27 133.5t27 134t73.5 109.5t109 73.5t133.5 27zM375 525q-39 0 -74.5 -15.5t-61.5 -41.5t-41.5 -61.5t-15.5 -74.5
t15 -74t41.5 -61t61.5 -41t75 -15t74.5 15t60.5 41t41 60.5t15 74.5t-15 75t-41 61t-61 41.5t-74 15.5zM471 869q32 0 53.5 -22t21.5 -53q0 -32 -22 -54t-54 -22t-54.5 22t-22.5 52q0 32 23 54.5t55 22.5zM281 869q32 0 53.5 -22t21.5 -53q0 -32 -22 -54t-54 -22t-54.5 22
t-22.5 52q0 32 23 54.5t55 22.5z" />
    <glyph glyph-name="multiply" unicode="&#xd7;" horiz-adv-x="553" 
d="M37 85l176 178l-175 178l64 64l175 -177l174 177l64 -65l-174 -177l174 -177l-63 -65l-175 177l-176 -178z" />
    <glyph glyph-name="Oslash" unicode="&#xd8;" horiz-adv-x="750" 
d="M181 32q-14 -16 -35 -28t-36 -12q-33 0 -55.5 23.5t-22.5 56.5q0 16 13.5 37.5t37.5 41.5q-28 36 -40.5 77.5t-12.5 93.5q0 75 26.5 140t73 113t110 75t137.5 27q110 0 183 -57q5 6 14 14t19.5 15t22 12t22.5 5q15 0 28.5 -6.5t24 -17t16.5 -25t6 -30.5q0 -20 -11 -37
t-36 -37q54 -72 54 -174q0 -75 -26.5 -138.5t-73.5 -110.5t-111 -73.5t-139 -26.5q-118 0 -180 53zM447 507q-24 18 -67 18q-42 0 -78 -15.5t-62 -43t-41 -65t-15 -80.5q0 -38 11 -59zM302 156q9 -9 23.5 -13.5t38.5 -4.5q44 0 81.5 15t64.5 41.5t42.5 63t15.5 79.5
q0 40 -12 66z" />
    <glyph glyph-name="Ugrave" unicode="&#xd9;" horiz-adv-x="647" 
d="M53 571v17q0 39 20.5 62t55.5 23t56 -23.5t21 -61.5v-17v-311q0 -26 9 -48t24.5 -38t37 -25.5t46.5 -9.5q29 0 54.5 13.5t41.5 36.5q11 16 16 32.5t5 42.5v307v17q1 39 21.5 62t54.5 23q35 0 56 -23.5t21 -61.5v-17v-307q0 -58 -20.5 -108t-56.5 -87t-85 -58t-106 -21
t-106.5 21t-86.5 57.5t-58 86t-21 105.5v311zM222 788q-16 16 -16 38q0 24 17 40.5t42 16.5q12 0 21 -4.5t20 -15.5l49 -51q18 -18 18 -41t-17 -40t-40 -17q-11 0 -22 4.5t-17 11.5z" />
    <glyph glyph-name="Uacute" unicode="&#xda;" horiz-adv-x="647" 
d="M53 571v17q0 39 20.5 62t55.5 23t56 -23.5t21 -61.5v-17v-311q0 -26 9 -48t24.5 -38t37 -25.5t46.5 -9.5q29 0 54.5 13.5t41.5 36.5q11 16 16 32.5t5 42.5v307v17q1 39 21.5 62t54.5 23q35 0 56 -23.5t21 -61.5v-17v-307q0 -58 -20.5 -108t-56.5 -87t-85 -58t-106 -21
t-106.5 21t-86.5 57.5t-58 86t-21 105.5v311zM368 730q-6 -7 -17 -11.5t-22 -4.5q-23 0 -40 17t-17 40t18 41l49 51q11 11 20 15.5t22 4.5q24 0 41 -17t17 -41q0 -21 -16 -37z" />
    <glyph glyph-name="Ucircumflex" unicode="&#xdb;" horiz-adv-x="647" 
d="M53 571v17q0 39 20.5 62t55.5 23t56 -23.5t21 -61.5v-17v-311q0 -26 9 -48t24.5 -38t37 -25.5t46.5 -9.5q29 0 54.5 13.5t41.5 36.5q11 16 16 32.5t5 42.5v307v17q1 39 21.5 62t54.5 23q35 0 56 -23.5t21 -61.5v-17v-307q0 -58 -20.5 -108t-56.5 -87t-85 -58t-106 -21
t-106.5 21t-86.5 57.5t-58 86t-21 105.5v311zM324 753l-34 -29q-5 -5 -15 -8t-20 -3q-23 0 -40 16.5t-17 40.5q0 10 3.5 19.5t9.5 14.5l75 69q5 5 16 8t20 3q11 0 21.5 -3t16.5 -8l68 -59q20 -17 20 -45q0 -23 -16 -39.5t-40 -16.5q-19 0 -33 11z" />
    <glyph glyph-name="Udieresis" unicode="&#xdc;" horiz-adv-x="647" 
d="M53 571v17q0 39 20.5 62t55.5 23t56 -23.5t21 -61.5v-17v-311q0 -26 9 -48t24.5 -38t37 -25.5t46.5 -9.5q29 0 54.5 13.5t41.5 36.5q11 16 16 32.5t5 42.5v307v17q1 39 21.5 62t54.5 23q35 0 56 -23.5t21 -61.5v-17v-307q0 -58 -20.5 -108t-56.5 -87t-85 -58t-106 -21
t-106.5 21t-86.5 57.5t-58 86t-21 105.5v311zM420 869q32 0 53.5 -22t21.5 -53q0 -32 -22 -54t-54 -22t-54.5 22t-22.5 52q0 32 23 54.5t55 22.5zM230 869q32 0 53.5 -22t21.5 -53q0 -32 -22 -54t-54 -22t-54.5 22t-22.5 52q0 32 23 54.5t55 22.5z" />
    <glyph glyph-name="Yacute" unicode="&#xdd;" horiz-adv-x="577" 
d="M212 96v189l-171 248q-17 25 -22.5 38t-5.5 28q0 30 22.5 52.5t54.5 22.5q38 0 67 -40l9 -14l122 -176l122 176l10 14q15 20 31 30t36 10q31 0 54 -22.5t23 -52.5q0 -25 -19 -52l-9 -14l-171 -248v-189v-17q-1 -39 -21.5 -62.5t-54.5 -23.5q-35 0 -56 24t-21 62v17z
M333 730q-6 -7 -17 -11.5t-22 -4.5q-23 0 -40 17t-17 40t18 41l49 51q11 11 20 15.5t22 4.5q24 0 41 -17t17 -41q0 -21 -16 -37z" />
    <glyph glyph-name="Thorn" unicode="&#xde;" horiz-adv-x="576" 
d="M73 588q1 39 21.5 62t55.5 23t55.5 -23.5t20.5 -61.5v-6h66q20 0 44 -3.5t48 -8.5q90 -21 140 -102q18 -30 28 -64t10 -68t-9.5 -66.5t-27.5 -61t-43 -51.5t-56 -38q-27 -13 -54 -18t-72 -5h-74v-17q0 -39 -20.5 -62.5t-55.5 -23.5t-56 24t-21 62v509zM286 236
q34 0 48.5 2.5t28.5 10.5q23 13 37 36.5t14 49.5q0 28 -16 53.5t-41 37.5q-22 10 -71 10h-60v-200h60z" />
    <glyph glyph-name="germandbls" unicode="&#xdf;" horiz-adv-x="523" 
d="M60 82v379q0 50 10 82t36 61q26 30 65 46.5t86 16.5q42 0 77.5 -12.5t61 -35t40 -53t14.5 -66.5q0 -38 -13.5 -65.5t-42.5 -48.5q49 -21 76 -66t27 -106q0 -46 -16 -87t-44 -71.5t-65 -48t-79 -17.5q-33 0 -55.5 20.5t-22.5 50.5q0 25 17 43t42 20l15 1q31 3 51.5 28.5
t20.5 61.5q0 39 -24.5 62.5t-76.5 34.5q-28 6 -37 16.5t-9 36.5t9.5 38t34.5 17q62 13 62 62q0 24 -17 41t-43 17q-20 0 -36 -10t-23 -26q-5 -11 -6.5 -23.5t-1.5 -35.5v-363v-15q-1 -34 -18.5 -54t-47.5 -20t-48.5 20.5t-18.5 53.5v15z" />
    <glyph glyph-name="agrave" unicode="&#xe0;" horiz-adv-x="492" 
d="M436 82q0 -26 -3 -38.5t-12 -24.5q-20 -26 -54 -26q-21 0 -36 9.5t-26 31.5q-29 -23 -56 -33t-57 -10q-35 0 -65 13t-52.5 36.5t-35 54.5t-12.5 67q0 37 13.5 69t37 55.5t55 37t68.5 13.5q25 0 48.5 -7t50.5 -21q0 37 -13.5 52t-45.5 15q-16 0 -36 -5l-32 -9
q-14 -5 -23.5 -6.5t-17.5 -1.5q-23 0 -37.5 15t-14.5 38q0 39 44 62.5t115 23.5q49 0 89.5 -13.5t66.5 -39.5q22 -23 31.5 -56.5t9.5 -87.5v-196v-18zM300 166q0 29 -18.5 49t-47.5 20q-27 0 -46 -19.5t-19 -47.5q0 -29 19 -48t48 -19q28 0 46 18.5t18 46.5zM146 599
q-16 16 -16 38q0 24 17 40.5t42 16.5q12 0 21 -4.5t20 -15.5l49 -51q18 -18 18 -41t-17 -40t-40 -17q-11 0 -22 4.5t-17 11.5z" />
    <glyph glyph-name="aacute" unicode="&#xe1;" horiz-adv-x="492" 
d="M436 82q0 -26 -3 -38.5t-12 -24.5q-20 -26 -54 -26q-21 0 -36 9.5t-26 31.5q-29 -23 -56 -33t-57 -10q-35 0 -65 13t-52.5 36.5t-35 54.5t-12.5 67q0 37 13.5 69t37 55.5t55 37t68.5 13.5q25 0 48.5 -7t50.5 -21q0 37 -13.5 52t-45.5 15q-16 0 -36 -5l-32 -9
q-14 -5 -23.5 -6.5t-17.5 -1.5q-23 0 -37.5 15t-14.5 38q0 39 44 62.5t115 23.5q49 0 89.5 -13.5t66.5 -39.5q22 -23 31.5 -56.5t9.5 -87.5v-196v-18zM300 166q0 29 -18.5 49t-47.5 20q-27 0 -46 -19.5t-19 -47.5q0 -29 19 -48t48 -19q28 0 46 18.5t18 46.5zM292 541
q-6 -7 -17 -11.5t-22 -4.5q-23 0 -40 17t-17 40t18 41l49 51q11 11 20 15.5t22 4.5q24 0 41 -17t17 -41q0 -21 -16 -37z" />
    <glyph glyph-name="acircumflex" unicode="&#xe2;" horiz-adv-x="492" 
d="M436 82q0 -26 -3 -38.5t-12 -24.5q-20 -26 -54 -26q-21 0 -36 9.5t-26 31.5q-29 -23 -56 -33t-57 -10q-35 0 -65 13t-52.5 36.5t-35 54.5t-12.5 67q0 37 13.5 69t37 55.5t55 37t68.5 13.5q25 0 48.5 -7t50.5 -21q0 37 -13.5 52t-45.5 15q-16 0 -36 -5l-32 -9
q-14 -5 -23.5 -6.5t-17.5 -1.5q-23 0 -37.5 15t-14.5 38q0 39 44 62.5t115 23.5q49 0 89.5 -13.5t66.5 -39.5q22 -23 31.5 -56.5t9.5 -87.5v-196v-18zM300 166q0 29 -18.5 49t-47.5 20q-27 0 -46 -19.5t-19 -47.5q0 -29 19 -48t48 -19q28 0 46 18.5t18 46.5zM248 564
l-34 -29q-5 -5 -15 -8t-20 -3q-23 0 -40 16.5t-17 40.5q0 10 3.5 19.5t9.5 14.5l75 69q5 5 16 8t20 3q11 0 21.5 -3t16.5 -8l68 -59q20 -17 20 -45q0 -23 -16 -39.5t-40 -16.5q-19 0 -33 11z" />
    <glyph glyph-name="atilde" unicode="&#xe3;" horiz-adv-x="492" 
d="M436 82q0 -26 -3 -38.5t-12 -24.5q-20 -26 -54 -26q-21 0 -36 9.5t-26 31.5q-29 -23 -56 -33t-57 -10q-35 0 -65 13t-52.5 36.5t-35 54.5t-12.5 67q0 37 13.5 69t37 55.5t55 37t68.5 13.5q25 0 48.5 -7t50.5 -21q0 37 -13.5 52t-45.5 15q-16 0 -36 -5l-32 -9
q-14 -5 -23.5 -6.5t-17.5 -1.5q-23 0 -37.5 15t-14.5 38q0 39 44 62.5t115 23.5q49 0 89.5 -13.5t66.5 -39.5q22 -23 31.5 -56.5t9.5 -87.5v-196v-18zM300 166q0 29 -18.5 49t-47.5 20q-27 0 -46 -19.5t-19 -47.5q0 -29 19 -48t48 -19q28 0 46 18.5t18 46.5zM157 543
q-10 -5 -19 -5q-18 0 -30.5 13.5t-12.5 33.5q0 18 8 34t21.5 28.5t30.5 20t36 7.5q14 0 25 -3t32 -12q27 -13 46 -13q14 0 22 4l20 11q12 5 19 5q17 0 30.5 -14t13.5 -32t-8.5 -34.5t-22.5 -29t-32.5 -20t-38.5 -7.5q-12 0 -22.5 3t-29.5 11q-17 8 -28 11t-20 3
q-14 0 -21 -5z" />
    <glyph glyph-name="adieresis" unicode="&#xe4;" horiz-adv-x="492" 
d="M436 82q0 -26 -3 -38.5t-12 -24.5q-20 -26 -54 -26q-21 0 -36 9.5t-26 31.5q-29 -23 -56 -33t-57 -10q-35 0 -65 13t-52.5 36.5t-35 54.5t-12.5 67q0 37 13.5 69t37 55.5t55 37t68.5 13.5q25 0 48.5 -7t50.5 -21q0 37 -13.5 52t-45.5 15q-16 0 -36 -5l-32 -9
q-14 -5 -23.5 -6.5t-17.5 -1.5q-23 0 -37.5 15t-14.5 38q0 39 44 62.5t115 23.5q49 0 89.5 -13.5t66.5 -39.5q22 -23 31.5 -56.5t9.5 -87.5v-196v-18zM300 166q0 29 -18.5 49t-47.5 20q-27 0 -46 -19.5t-19 -47.5q0 -29 19 -48t48 -19q28 0 46 18.5t18 46.5zM344 680
q32 0 53.5 -22t21.5 -53q0 -32 -22 -54t-54 -22t-54.5 22t-22.5 52q0 32 23 54.5t55 22.5zM154 680q32 0 53.5 -22t21.5 -53q0 -32 -22 -54t-54 -22t-54.5 22t-22.5 52q0 32 23 54.5t55 22.5z" />
    <glyph glyph-name="aring" unicode="&#xe5;" horiz-adv-x="492" 
d="M436 82q0 -26 -3 -38.5t-12 -24.5q-20 -26 -54 -26q-21 0 -36 9.5t-26 31.5q-29 -23 -56 -33t-57 -10q-35 0 -65 13t-52.5 36.5t-35 54.5t-12.5 67q0 37 13.5 69t37 55.5t55 37t68.5 13.5q25 0 48.5 -7t50.5 -21q0 37 -13.5 52t-45.5 15q-16 0 -36 -5l-32 -9
q-14 -5 -23.5 -6.5t-17.5 -1.5q-23 0 -37.5 15t-14.5 38q0 39 44 62.5t115 23.5q49 0 89.5 -13.5t66.5 -39.5q22 -23 31.5 -56.5t9.5 -87.5v-196v-18zM300 166q0 29 -18.5 49t-47.5 20q-27 0 -46 -19.5t-19 -47.5q0 -29 19 -48t48 -19q28 0 46 18.5t18 46.5zM248 704
q19 0 36 -7t29.5 -19.5t19.5 -29.5t7 -36t-7.5 -35.5t-20 -29t-29.5 -19.5t-36 -7t-35.5 7t-29 19.5t-20 29t-7.5 34.5q0 39 27 66t66 27zM248 657q-20 0 -33 -13t-13 -33q0 -17 13 -30t32 -13t32.5 13t13.5 31q0 19 -13 32t-32 13z" />
    <glyph glyph-name="ae" unicode="&#xe6;" horiz-adv-x="749" 
d="M601 153q18 13 39 13q27 0 46.5 -19.5t19.5 -47.5q0 -21 -15.5 -40.5t-41 -35t-58 -24.5t-67.5 -9q-48 0 -93.5 18t-78.5 50q-38 -37 -72.5 -52.5t-81.5 -15.5q-42 0 -75.5 14t-56.5 43q-39 48 -39 109q0 36 13.5 67.5t37 55t55 37t67.5 13.5q13 0 23 -1t20.5 -4
t22.5 -8.5t29 -13.5q0 19 -2.5 28t-7.5 17q-7 10 -19.5 16t-26.5 6q-10 0 -24 -2.5t-34 -9.5q-14 -5 -22.5 -7.5t-14 -4t-9.5 -2t-9 -0.5q-22 0 -36.5 15t-14.5 38q0 19 12 35t33.5 27.5t51 18t64.5 6.5q43 0 77 -10.5t66 -34.5q28 22 64 33.5t75 11.5q42 0 80.5 -14
t67.5 -38t46.5 -55t17.5 -65q0 -44 -41 -60l-240 -97q29 -29 75 -29q17 0 33 4.5t29 13.5zM584 322q-24 28 -63 28q-41 0 -69.5 -25t-39.5 -72zM298 162q0 28 -19 47.5t-45 19.5q-29 0 -47.5 -19.5t-18.5 -48.5q0 -26 19 -44.5t46 -18.5q26 0 45.5 19t19.5 45z" />
    <glyph glyph-name="ccedilla" unicode="&#xe7;" horiz-adv-x="489" 
d="M261 -143q-7 -8 -18 -12t-22 -4q-23 0 -39.5 17t-16.5 40q0 24 17 41l53 55q-46 8 -84 30.5t-65.5 54.5t-43 73t-15.5 86q0 51 19.5 95.5t52.5 78t77.5 53t95.5 19.5q44 0 86.5 -15.5t75.5 -43.5q17 -14 23.5 -26.5t6.5 -29.5q0 -29 -19.5 -48t-49.5 -19q-11 0 -19 3.5
t-22 13.5q-22 17 -38.5 24t-37.5 7q-24 0 -45.5 -9t-37 -24t-24.5 -35.5t-9 -44.5t9 -44.5t24.5 -35.5t36.5 -24t45 -9q11 0 19 1t17 5t20 11.5t28 19.5q11 8 20.5 11.5t21.5 3.5q27 0 46.5 -19.5t19.5 -47.5q0 -18 -12 -36.5t-33 -34t-49.5 -27t-60.5 -17.5q17 -19 17 -42
q0 -20 -15 -38z" />
    <glyph glyph-name="egrave" unicode="&#xe8;" 
d="M203 154q31 -27 72 -27q20 0 38.5 6.5t38.5 21.5q12 9 21.5 12.5t20.5 3.5q29 0 48 -19t19 -47q0 -21 -12 -38.5t-38 -35.5q-28 -20 -64 -30.5t-72 -10.5q-50 0 -95 20t-79 54t-54 79t-20 95t19.5 94.5t53 78t77.5 53t94 19.5q40 0 78 -13.5t67 -36.5t46.5 -53t17.5 -63
q0 -22 -12.5 -36.5t-42.5 -28.5zM334 325q-18 28 -59 28q-44 0 -75.5 -29t-35.5 -72zM149 599q-16 16 -16 38q0 24 17 40.5t42 16.5q12 0 21 -4.5t20 -15.5l49 -51q18 -18 18 -41t-17 -40t-40 -17q-11 0 -22 4.5t-17 11.5z" />
    <glyph glyph-name="eacute" unicode="&#xe9;" 
d="M203 154q31 -27 72 -27q20 0 38.5 6.5t38.5 21.5q12 9 21.5 12.5t20.5 3.5q29 0 48 -19t19 -47q0 -21 -12 -38.5t-38 -35.5q-28 -20 -64 -30.5t-72 -10.5q-50 0 -95 20t-79 54t-54 79t-20 95t19.5 94.5t53 78t77.5 53t94 19.5q40 0 78 -13.5t67 -36.5t46.5 -53t17.5 -63
q0 -22 -12.5 -36.5t-42.5 -28.5zM334 325q-18 28 -59 28q-44 0 -75.5 -29t-35.5 -72zM295 541q-6 -7 -17 -11.5t-22 -4.5q-23 0 -40 17t-17 40t18 41l49 51q11 11 20 15.5t22 4.5q24 0 41 -17t17 -41q0 -21 -16 -37z" />
    <glyph glyph-name="ecircumflex" unicode="&#xea;" 
d="M203 154q31 -27 72 -27q20 0 38.5 6.5t38.5 21.5q12 9 21.5 12.5t20.5 3.5q29 0 48 -19t19 -47q0 -21 -12 -38.5t-38 -35.5q-28 -20 -64 -30.5t-72 -10.5q-50 0 -95 20t-79 54t-54 79t-20 95t19.5 94.5t53 78t77.5 53t94 19.5q40 0 78 -13.5t67 -36.5t46.5 -53t17.5 -63
q0 -22 -12.5 -36.5t-42.5 -28.5zM334 325q-18 28 -59 28q-44 0 -75.5 -29t-35.5 -72zM251 564l-34 -29q-5 -5 -15 -8t-20 -3q-23 0 -40 16.5t-17 40.5q0 10 3.5 19.5t9.5 14.5l75 69q5 5 16 8t20 3q11 0 21.5 -3t16.5 -8l68 -59q20 -17 20 -45q0 -23 -16 -39.5t-40 -16.5
q-19 0 -33 11z" />
    <glyph glyph-name="edieresis" unicode="&#xeb;" 
d="M203 154q31 -27 72 -27q20 0 38.5 6.5t38.5 21.5q12 9 21.5 12.5t20.5 3.5q29 0 48 -19t19 -47q0 -21 -12 -38.5t-38 -35.5q-28 -20 -64 -30.5t-72 -10.5q-50 0 -95 20t-79 54t-54 79t-20 95t19.5 94.5t53 78t77.5 53t94 19.5q40 0 78 -13.5t67 -36.5t46.5 -53t17.5 -63
q0 -22 -12.5 -36.5t-42.5 -28.5zM334 325q-18 28 -59 28q-44 0 -75.5 -29t-35.5 -72zM347 680q32 0 53.5 -22t21.5 -53q0 -32 -22 -54t-54 -22t-54.5 22t-22.5 52q0 32 23 54.5t55 22.5zM157 680q32 0 53.5 -22t21.5 -53q0 -32 -22 -54t-54 -22t-54.5 22t-22.5 52
q0 32 23 54.5t55 22.5z" />
    <glyph glyph-name="igrave" unicode="&#xec;" horiz-adv-x="253" 
d="M60 82v309v15q1 34 19 54t48 20t48 -20.5t18 -53.5v-15v-309v-15q-1 -34 -18.5 -54t-47.5 -20t-48.5 20.5t-18.5 53.5v15zM26 599q-16 16 -16 38q0 24 17 40.5t42 16.5q12 0 21 -4.5t20 -15.5l49 -51q18 -18 18 -41t-17 -40t-40 -17q-11 0 -22 4.5t-17 11.5z" />
    <glyph glyph-name="iacute" unicode="&#xed;" horiz-adv-x="253" 
d="M60 82v309v15q1 34 19 54t48 20t48 -20.5t18 -53.5v-15v-309v-15q-1 -34 -18.5 -54t-47.5 -20t-48.5 20.5t-18.5 53.5v15zM172 541q-6 -7 -17 -11.5t-22 -4.5q-23 0 -40 17t-17 40t18 41l49 51q11 11 20 15.5t22 4.5q24 0 41 -17t17 -41q0 -21 -16 -37z" />
    <glyph glyph-name="icircumflex" unicode="&#xee;" horiz-adv-x="253" 
d="M60 82v309v15q1 34 19 54t48 20t48 -20.5t18 -53.5v-15v-309v-15q-1 -34 -18.5 -54t-47.5 -20t-48.5 20.5t-18.5 53.5v15zM128 564l-34 -29q-5 -5 -15 -8t-20 -3q-23 0 -40 16.5t-17 40.5q0 10 3.5 19.5t9.5 14.5l75 69q5 5 16 8t20 3q11 0 21.5 -3t16.5 -8l68 -59
q20 -17 20 -45q0 -23 -16 -39.5t-40 -16.5q-19 0 -33 11z" />
    <glyph glyph-name="idieresis" unicode="&#xef;" horiz-adv-x="253" 
d="M60 82v309v15q1 34 19 54t48 20t48 -20.5t18 -53.5v-15v-309v-15q-1 -34 -18.5 -54t-47.5 -20t-48.5 20.5t-18.5 53.5v15zM224 680q32 0 53.5 -22t21.5 -53q0 -32 -22 -54t-54 -22t-54.5 22t-22.5 52q0 32 23 54.5t55 22.5zM34 680q32 0 53.5 -22t21.5 -53q0 -32 -22 -54
t-54 -22t-54.5 22t-22.5 52q0 32 23 54.5t55 22.5z" />
    <glyph glyph-name="eth" unicode="&#xf0;" horiz-adv-x="551" 
d="M232 485q-23 -15 -45 -15q-15 0 -28.5 7t-22.5 21q-13 17 -13 38q0 33 33 58q-3 12 -3 24q0 25 20.5 44.5t47.5 19.5q21 0 39 -15q17 12 30 17t26 5q31 0 51 -27q12 -18 12 -38q0 -34 -34 -60l-1 -1l129 -170q24 -32 38.5 -74t14.5 -82q0 -51 -20 -95.5t-54 -78.5
t-80 -53.5t-97 -19.5q-52 0 -97.5 19.5t-79 53.5t-53 79.5t-19.5 97.5q0 46 16 85t45 69t69 49.5t89 24.5zM277 350q-24 0 -45 -9t-36.5 -24.5t-24 -36.5t-8.5 -46q0 -22 9 -42t24.5 -35t36 -23.5t43.5 -8.5t43.5 9t36 24t24.5 35.5t9 43.5q0 24 -9 44.5t-24 35.5t-35.5 24
t-43.5 9z" />
    <glyph glyph-name="ntilde" unicode="&#xf1;" horiz-adv-x="543" 
d="M57 82v169q0 49 11 84.5t36 67.5q30 38 74 59t92 21q56 0 106.5 -28.5t80.5 -77.5q14 -23 21.5 -56.5t7.5 -73.5v-165v-15q-1 -34 -19 -54t-47 -20q-30 0 -48.5 20.5t-18.5 53.5v15v153q0 30 -2 43t-7 26q-9 20 -29.5 33t-43.5 13q-35 0 -58 -25t-23 -61v-25v-157v-15
q-1 -34 -19 -54t-48 -20q-29 0 -47.5 20.5t-18.5 53.5v15zM181 543q-10 -5 -19 -5q-18 0 -30.5 13.5t-12.5 33.5q0 18 8 34t21.5 28.5t30.5 20t36 7.5q14 0 25 -3t32 -12q27 -13 46 -13q14 0 22 4l20 11q12 5 19 5q17 0 30.5 -14t13.5 -32t-8.5 -34.5t-22.5 -29t-32.5 -20
t-38.5 -7.5q-12 0 -22.5 3t-29.5 11q-17 8 -28 11t-20 3q-14 0 -21 -5z" />
    <glyph glyph-name="ograve" unicode="&#xf2;" horiz-adv-x="551" 
d="M277 483q51 0 96 -19.5t78.5 -53t53 -78.5t19.5 -97q0 -50 -19.5 -94.5t-53.5 -78t-79 -53t-96 -19.5t-96.5 19t-79 52t-53.5 77t-20 94q0 53 19.5 99t53 79.5t79 53t98.5 19.5zM277 350q-24 0 -45 -9t-36.5 -24.5t-24 -36.5t-8.5 -46q0 -22 9 -42t24.5 -35t36 -23.5
t43.5 -8.5t43.5 9t36 24t24.5 35.5t9 43.5q0 24 -9 44.5t-24 35.5t-35.5 24t-43.5 9zM174 599q-16 16 -16 38q0 24 17 40.5t42 16.5q12 0 21 -4.5t20 -15.5l49 -51q18 -18 18 -41t-17 -40t-40 -17q-11 0 -22 4.5t-17 11.5z" />
    <glyph glyph-name="oacute" unicode="&#xf3;" horiz-adv-x="551" 
d="M277 483q51 0 96 -19.5t78.5 -53t53 -78.5t19.5 -97q0 -50 -19.5 -94.5t-53.5 -78t-79 -53t-96 -19.5t-96.5 19t-79 52t-53.5 77t-20 94q0 53 19.5 99t53 79.5t79 53t98.5 19.5zM277 350q-24 0 -45 -9t-36.5 -24.5t-24 -36.5t-8.5 -46q0 -22 9 -42t24.5 -35t36 -23.5
t43.5 -8.5t43.5 9t36 24t24.5 35.5t9 43.5q0 24 -9 44.5t-24 35.5t-35.5 24t-43.5 9zM320 541q-6 -7 -17 -11.5t-22 -4.5q-23 0 -40 17t-17 40t18 41l49 51q11 11 20 15.5t22 4.5q24 0 41 -17t17 -41q0 -21 -16 -37z" />
    <glyph glyph-name="ocircumflex" unicode="&#xf4;" horiz-adv-x="551" 
d="M277 483q51 0 96 -19.5t78.5 -53t53 -78.5t19.5 -97q0 -50 -19.5 -94.5t-53.5 -78t-79 -53t-96 -19.5t-96.5 19t-79 52t-53.5 77t-20 94q0 53 19.5 99t53 79.5t79 53t98.5 19.5zM277 350q-24 0 -45 -9t-36.5 -24.5t-24 -36.5t-8.5 -46q0 -22 9 -42t24.5 -35t36 -23.5
t43.5 -8.5t43.5 9t36 24t24.5 35.5t9 43.5q0 24 -9 44.5t-24 35.5t-35.5 24t-43.5 9zM276 564l-34 -29q-5 -5 -15 -8t-20 -3q-23 0 -40 16.5t-17 40.5q0 10 3.5 19.5t9.5 14.5l75 69q5 5 16 8t20 3q11 0 21.5 -3t16.5 -8l68 -59q20 -17 20 -45q0 -23 -16 -39.5t-40 -16.5
q-19 0 -33 11z" />
    <glyph glyph-name="otilde" unicode="&#xf5;" horiz-adv-x="551" 
d="M277 483q51 0 96 -19.5t78.5 -53t53 -78.5t19.5 -97q0 -50 -19.5 -94.5t-53.5 -78t-79 -53t-96 -19.5t-96.5 19t-79 52t-53.5 77t-20 94q0 53 19.5 99t53 79.5t79 53t98.5 19.5zM277 350q-24 0 -45 -9t-36.5 -24.5t-24 -36.5t-8.5 -46q0 -22 9 -42t24.5 -35t36 -23.5
t43.5 -8.5t43.5 9t36 24t24.5 35.5t9 43.5q0 24 -9 44.5t-24 35.5t-35.5 24t-43.5 9zM185 543q-10 -5 -19 -5q-18 0 -30.5 13.5t-12.5 33.5q0 18 8 34t21.5 28.5t30.5 20t36 7.5q14 0 25 -3t32 -12q27 -13 46 -13q14 0 22 4l20 11q12 5 19 5q17 0 30.5 -14t13.5 -32
t-8.5 -34.5t-22.5 -29t-32.5 -20t-38.5 -7.5q-12 0 -22.5 3t-29.5 11q-17 8 -28 11t-20 3q-14 0 -21 -5z" />
    <glyph glyph-name="odieresis" unicode="&#xf6;" horiz-adv-x="551" 
d="M277 483q51 0 96 -19.5t78.5 -53t53 -78.5t19.5 -97q0 -50 -19.5 -94.5t-53.5 -78t-79 -53t-96 -19.5t-96.5 19t-79 52t-53.5 77t-20 94q0 53 19.5 99t53 79.5t79 53t98.5 19.5zM277 350q-24 0 -45 -9t-36.5 -24.5t-24 -36.5t-8.5 -46q0 -22 9 -42t24.5 -35t36 -23.5
t43.5 -8.5t43.5 9t36 24t24.5 35.5t9 43.5q0 24 -9 44.5t-24 35.5t-35.5 24t-43.5 9zM372 680q32 0 53.5 -22t21.5 -53q0 -32 -22 -54t-54 -22t-54.5 22t-22.5 52q0 32 23 54.5t55 22.5zM182 680q32 0 53.5 -22t21.5 -53q0 -32 -22 -54t-54 -22t-54.5 22t-22.5 52
q0 32 23 54.5t55 22.5z" />
    <glyph glyph-name="divide" unicode="&#xf7;" horiz-adv-x="553" 
d="M276 372q-30 0 -50 20t-20 52t19.5 51.5t51.5 19.5t51 -19.5t20 -51.5q0 -32 -19.5 -52t-52.5 -20zM39 313h475v-92h-475v92zM276 19q-30 0 -50 19.5t-20 51.5t19.5 52t51.5 20t51 -20t20 -52q0 -32 -19.5 -51.5t-52.5 -19.5z" />
    <glyph glyph-name="oslash" unicode="&#xf8;" horiz-adv-x="560" 
d="M494 364q35 -60 35 -128q0 -50 -19.5 -94.5t-53.5 -78t-78.5 -53.5t-93.5 -20q-38 0 -73.5 10t-56.5 27q-22 -25 -35.5 -34t-32.5 -9q-24 0 -42 18t-18 43q0 27 43 67q-37 52 -37 126q0 50 19.5 94.5t53.5 78t79 53t95 19.5q36 0 69.5 -9t60.5 -26q33 42 68 42
q23 0 40.5 -18t17.5 -41q0 -14 -6 -26t-23 -29zM312 351q-11 7 -32 7q-25 0 -47 -9.5t-38 -26.5t-25.5 -40t-9.5 -50q0 -6 1 -11t3 -13zM252 125q10 -5 16.5 -6.5t15.5 -1.5q24 0 45 10t37 27.5t25.5 40t9.5 47.5q0 6 -0.5 11t-2.5 13z" />
    <glyph glyph-name="ugrave" unicode="&#xf9;" horiz-adv-x="543" 
d="M353 234v157v15q1 34 19 54t48 20q29 0 47.5 -20.5t18.5 -53.5v-15v-168q0 -49 -11 -85t-36 -67q-30 -38 -74 -59.5t-92 -21.5q-56 0 -106.5 28.5t-80.5 77.5q-14 23 -21.5 57t-7.5 73v165v15q1 34 18.5 54t47.5 20t48.5 -20.5t18.5 -53.5v-15v-153q0 -30 2 -43t7 -25
q9 -20 29.5 -33.5t43.5 -13.5q35 0 58 25t23 61v25zM170 599q-16 16 -16 38q0 24 17 40.5t42 16.5q12 0 21 -4.5t20 -15.5l49 -51q18 -18 18 -41t-17 -40t-40 -17q-11 0 -22 4.5t-17 11.5z" />
    <glyph glyph-name="uacute" unicode="&#xfa;" horiz-adv-x="543" 
d="M353 234v157v15q1 34 19 54t48 20q29 0 47.5 -20.5t18.5 -53.5v-15v-168q0 -49 -11 -85t-36 -67q-30 -38 -74 -59.5t-92 -21.5q-56 0 -106.5 28.5t-80.5 77.5q-14 23 -21.5 57t-7.5 73v165v15q1 34 18.5 54t47.5 20t48.5 -20.5t18.5 -53.5v-15v-153q0 -30 2 -43t7 -25
q9 -20 29.5 -33.5t43.5 -13.5q35 0 58 25t23 61v25zM316 541q-6 -7 -17 -11.5t-22 -4.5q-23 0 -40 17t-17 40t18 41l49 51q11 11 20 15.5t22 4.5q24 0 41 -17t17 -41q0 -21 -16 -37z" />
    <glyph glyph-name="ucircumflex" unicode="&#xfb;" horiz-adv-x="543" 
d="M353 234v157v15q1 34 19 54t48 20q29 0 47.5 -20.5t18.5 -53.5v-15v-168q0 -49 -11 -85t-36 -67q-30 -38 -74 -59.5t-92 -21.5q-56 0 -106.5 28.5t-80.5 77.5q-14 23 -21.5 57t-7.5 73v165v15q1 34 18.5 54t47.5 20t48.5 -20.5t18.5 -53.5v-15v-153q0 -30 2 -43t7 -25
q9 -20 29.5 -33.5t43.5 -13.5q35 0 58 25t23 61v25zM272 564l-34 -29q-5 -5 -15 -8t-20 -3q-23 0 -40 16.5t-17 40.5q0 10 3.5 19.5t9.5 14.5l75 69q5 5 16 8t20 3q11 0 21.5 -3t16.5 -8l68 -59q20 -17 20 -45q0 -23 -16 -39.5t-40 -16.5q-19 0 -33 11z" />
    <glyph glyph-name="udieresis" unicode="&#xfc;" horiz-adv-x="543" 
d="M353 234v157v15q1 34 19 54t48 20q29 0 47.5 -20.5t18.5 -53.5v-15v-168q0 -49 -11 -85t-36 -67q-30 -38 -74 -59.5t-92 -21.5q-56 0 -106.5 28.5t-80.5 77.5q-14 23 -21.5 57t-7.5 73v165v15q1 34 18.5 54t47.5 20t48.5 -20.5t18.5 -53.5v-15v-153q0 -30 2 -43t7 -25
q9 -20 29.5 -33.5t43.5 -13.5q35 0 58 25t23 61v25zM368 680q32 0 53.5 -22t21.5 -53q0 -32 -22 -54t-54 -22t-54.5 22t-22.5 52q0 32 23 54.5t55 22.5zM178 680q32 0 53.5 -22t21.5 -53q0 -32 -22 -54t-54 -22t-54.5 22t-22.5 52q0 32 23 54.5t55 22.5z" />
    <glyph glyph-name="yacute" unicode="&#xfd;" horiz-adv-x="490" 
d="M113 -21q10 -3 20 -3q24 0 39 40l14 36l-152 312l-7 13q-10 23 -10 40q0 26 20.5 44.5t46.5 18.5q43 0 64 -46l6 -13l98 -217l90 212l6 15q22 49 67 49q27 0 48 -20t21 -46q0 -11 -3.5 -22.5t-12.5 -30.5l-191 -402q-14 -29 -21.5 -42t-18.5 -27q-20 -25 -50 -39.5
t-62 -14.5q-24 0 -45.5 7t-37.5 19t-25.5 27.5t-9.5 33.5q0 26 17.5 45.5t41.5 19.5q15 0 28 -4zM291 541q-6 -7 -17 -11.5t-22 -4.5q-23 0 -40 17t-17 40t18 41l49 51q11 11 20 15.5t22 4.5q24 0 41 -17t17 -41q0 -21 -16 -37z" />
    <glyph glyph-name="thorn" unicode="&#xfe;" horiz-adv-x="581" 
d="M60 593q0 34 18.5 54t48.5 20t48 -20.5t18 -53.5v-156q30 25 60 35.5t70 10.5q50 0 92.5 -18.5t73 -51.5t48 -78.5t17.5 -98.5t-17.5 -98t-48 -78t-72 -51.5t-90.5 -18.5q-39 0 -70.5 11t-62.5 36v-156q-1 -35 -18.5 -54.5t-47.5 -19.5t-48.5 20t-18.5 54v712zM302 124
q23 0 43.5 9t36 24t24.5 35t9 43q0 24 -9 45t-24 36t-35.5 24t-44.5 9q-23 0 -43.5 -9t-35.5 -24t-24 -35.5t-9 -44.5q0 -23 9 -43.5t24 -35.5t35.5 -24t43.5 -9z" />
    <glyph glyph-name="ydieresis" unicode="&#xff;" horiz-adv-x="490" 
d="M113 -21q10 -3 20 -3q24 0 39 40l14 36l-152 312l-7 13q-10 23 -10 40q0 26 20.5 44.5t46.5 18.5q43 0 64 -46l6 -13l98 -217l90 212l6 15q22 49 67 49q27 0 48 -20t21 -46q0 -11 -3.5 -22.5t-12.5 -30.5l-191 -402q-14 -29 -21.5 -42t-18.5 -27q-20 -25 -50 -39.5
t-62 -14.5q-24 0 -45.5 7t-37.5 19t-25.5 27.5t-9.5 33.5q0 26 17.5 45.5t41.5 19.5q15 0 28 -4zM343 680q32 0 53.5 -22t21.5 -53q0 -32 -22 -54t-54 -22t-54.5 22t-22.5 52q0 32 23 54.5t55 22.5zM153 680q32 0 53.5 -22t21.5 -53q0 -32 -22 -54t-54 -22t-54.5 22
t-22.5 52q0 32 23 54.5t55 22.5z" />
    <glyph glyph-name="Amacron" unicode="&#x100;" horiz-adv-x="628" 
d="M470 64l-23 50h-268l-21 -49l-6 -15q-25 -54 -75 -54q-31 0 -54 21.5t-23 51.5q0 19 11 43l7 15l221 495q21 47 73 47q24 0 43.5 -12t29.5 -35l227 -493q11 -24 14 -35t3 -25q0 -30 -23 -52t-54 -22q-51 0 -75 53zM394 246l-81 192l-79 -192h160zM232 723h-9
q-38 0 -59 17.5t-21 48.5q0 30 20.5 48.5t53.5 18.5h15h165h15q34 -1 54 -19t20 -47q0 -30 -20.5 -48.5t-53.5 -18.5h-8h-172z" />
    <glyph glyph-name="amacron" unicode="&#x101;" horiz-adv-x="492" 
d="M436 82q0 -26 -3 -38.5t-12 -24.5q-20 -26 -54 -26q-21 0 -36 9.5t-26 31.5q-29 -23 -56 -33t-57 -10q-35 0 -65 13t-52.5 36.5t-35 54.5t-12.5 67q0 37 13.5 69t37 55.5t55 37t68.5 13.5q25 0 48.5 -7t50.5 -21q0 37 -13.5 52t-45.5 15q-16 0 -36 -5l-32 -9
q-14 -5 -23.5 -6.5t-17.5 -1.5q-23 0 -37.5 15t-14.5 38q0 39 44 62.5t115 23.5q49 0 89.5 -13.5t66.5 -39.5q22 -23 31.5 -56.5t9.5 -87.5v-196v-18zM300 166q0 29 -18.5 49t-47.5 20q-27 0 -46 -19.5t-19 -47.5q0 -29 19 -48t48 -19q28 0 46 18.5t18 46.5zM165 534h-9
q-38 0 -59 17.5t-21 48.5q0 30 20.5 48.5t53.5 18.5h15h165h15q34 -1 54 -19t20 -47q0 -30 -20.5 -48.5t-53.5 -18.5h-8h-172z" />
    <glyph glyph-name="Abreve" unicode="&#x102;" horiz-adv-x="628" 
d="M470 64l-23 50h-268l-21 -49l-6 -15q-25 -54 -75 -54q-31 0 -54 21.5t-23 51.5q0 19 11 43l7 15l221 495q21 47 73 47q24 0 43.5 -12t29.5 -35l227 -493q11 -24 14 -35t3 -25q0 -30 -23 -52t-54 -22q-51 0 -75 53zM394 246l-81 192l-79 -192h160zM243 864q11 0 21 -3.5
t20 -12.5q17 -15 30 -15t30 15q10 9 20 12.5t21 3.5q23 0 38.5 -16t15.5 -39q0 -14 -7.5 -27.5t-26.5 -30.5q-17 -14 -42 -22.5t-49 -8.5t-49 8.5t-42 22.5q-19 17 -26.5 30.5t-7.5 27.5q0 23 15.5 39t38.5 16z" />
    <glyph glyph-name="abreve" unicode="&#x103;" horiz-adv-x="492" 
d="M436 82q0 -26 -3 -38.5t-12 -24.5q-20 -26 -54 -26q-21 0 -36 9.5t-26 31.5q-29 -23 -56 -33t-57 -10q-35 0 -65 13t-52.5 36.5t-35 54.5t-12.5 67q0 37 13.5 69t37 55.5t55 37t68.5 13.5q25 0 48.5 -7t50.5 -21q0 37 -13.5 52t-45.5 15q-16 0 -36 -5l-32 -9
q-14 -5 -23.5 -6.5t-17.5 -1.5q-23 0 -37.5 15t-14.5 38q0 39 44 62.5t115 23.5q49 0 89.5 -13.5t66.5 -39.5q22 -23 31.5 -56.5t9.5 -87.5v-196v-18zM300 166q0 29 -18.5 49t-47.5 20q-27 0 -46 -19.5t-19 -47.5q0 -29 19 -48t48 -19q28 0 46 18.5t18 46.5zM176 675
q11 0 21 -3.5t20 -12.5q17 -15 30 -15t30 15q10 9 20 12.5t21 3.5q23 0 38.5 -16t15.5 -39q0 -14 -7.5 -27.5t-26.5 -30.5q-17 -14 -42 -22.5t-49 -8.5t-49 8.5t-42 22.5q-19 17 -26.5 30.5t-7.5 27.5q0 23 15.5 39t38.5 16z" />
    <glyph glyph-name="Aogonek" unicode="&#x104;" horiz-adv-x="628" 
d="M560 -143q-7 -8 -18 -12t-22 -4q-23 0 -39.5 17t-16.5 40q0 24 17 41l55 57q-39 8 -59 52l-30 66h-268l-27 -64q-25 -54 -75 -54q-31 0 -54 21.5t-23 51.5q0 19 11 43l228 510q21 47 73 47q24 0 43.5 -12t29.5 -35l227 -493q11 -24 14 -35t3 -25q0 -20 -10 -36t-27 -26
q13 -5 21 -13q9 -9 13 -20.5t4 -20.5q0 -21 -15 -39zM394 246l-81 192l-79 -192h160z" />
    <glyph glyph-name="aogonek" unicode="&#x105;" horiz-adv-x="492" 
d="M380 -143q-7 -8 -18 -12t-22 -4q-23 0 -39.5 17t-16.5 40q0 24 17 41l53 55q-16 3 -28 12t-21 28q-29 -23 -56 -33t-57 -10q-35 0 -65 13t-52.5 36.5t-35 54.5t-12.5 67q0 37 13.5 69t37 55.5t55 37t68.5 13.5q25 0 48.5 -7t50.5 -21q0 37 -13.5 52t-45.5 15
q-16 0 -36 -5l-32 -9q-14 -5 -23.5 -6.5t-17.5 -1.5q-23 0 -37.5 15t-14.5 38q0 39 44 62.5t115 23.5q49 0 89.5 -13.5t66.5 -39.5q22 -23 31.5 -56.5t9.5 -87.5v-214q0 -26 -3 -38.5t-12 -24.5q-6 -7 -11 -11q12 -4 23 -14q9 -9 13 -20.5t4 -20.5q0 -21 -15 -39zM300 166
q0 29 -18.5 49t-47.5 20q-27 0 -46 -19.5t-19 -47.5q0 -29 19 -48t48 -19q28 0 46 18.5t18 46.5z" />
    <glyph glyph-name="Cacute" unicode="&#x106;" horiz-adv-x="665" 
d="M520 208q25 24 57 24q31 0 53 -22t22 -53q0 -32 -36 -68q-46 -46 -110.5 -72.5t-130.5 -26.5q-71 0 -133.5 27.5t-109.5 74t-74.5 109t-27.5 133.5t27 133.5t74 109t109.5 73.5t133.5 27q120 0 218 -80q29 -24 41.5 -43t12.5 -42q0 -31 -21.5 -52.5t-53.5 -21.5
q-29 0 -56 24l-16 15q-25 23 -58 35.5t-68 12.5q-39 0 -74 -15t-60.5 -41.5t-40.5 -61.5t-15 -74t15 -74t41.5 -61t61.5 -41t74 -15q32 0 65 11.5t53 29.5zM413 730q-6 -7 -17 -11.5t-22 -4.5q-23 0 -40 17t-17 40t18 41l49 51q11 11 20 15.5t22 4.5q24 0 41 -17t17 -41
q0 -21 -16 -37z" />
    <glyph glyph-name="cacute" unicode="&#x107;" horiz-adv-x="489" 
d="M27 238q0 50 19.5 95t53 78.5t78 53t94.5 19.5q38 0 75.5 -12t68.5 -33q27 -19 37.5 -34.5t10.5 -36.5q0 -28 -19.5 -47t-48.5 -19q-12 0 -20 3t-22 14q-22 17 -38.5 24t-37.5 7q-24 0 -45.5 -9t-37 -24.5t-24.5 -36t-9 -43.5q0 -24 9 -44.5t24.5 -35.5t36 -24t44.5 -9
q31 0 51 13q3 2 11.5 8t22.5 16q11 8 20.5 11.5t20.5 3.5q28 0 47.5 -19.5t19.5 -47.5q0 -22 -17 -43t-44.5 -38t-62 -27.5t-70.5 -10.5q-51 0 -96.5 19.5t-79 53.5t-53 79t-19.5 96zM313 541q-6 -7 -17 -11.5t-22 -4.5q-23 0 -40 17t-17 40t18 41l49 51q11 11 20 15.5
t22 4.5q24 0 41 -17t17 -41q0 -21 -16 -37z" />
    <glyph glyph-name="Ccircumflex" unicode="&#x108;" horiz-adv-x="665" 
d="M520 208q25 24 57 24q31 0 53 -22t22 -53q0 -32 -36 -68q-46 -46 -110.5 -72.5t-130.5 -26.5q-71 0 -133.5 27.5t-109.5 74t-74.5 109t-27.5 133.5t27 133.5t74 109t109.5 73.5t133.5 27q120 0 218 -80q29 -24 41.5 -43t12.5 -42q0 -31 -21.5 -52.5t-53.5 -21.5
q-29 0 -56 24l-16 15q-25 23 -58 35.5t-68 12.5q-39 0 -74 -15t-60.5 -41.5t-40.5 -61.5t-15 -74t15 -74t41.5 -61t61.5 -41t74 -15q32 0 65 11.5t53 29.5zM369 753l-34 -29q-5 -5 -15 -8t-20 -3q-23 0 -40 16.5t-17 40.5q0 10 3.5 19.5t9.5 14.5l75 69q5 5 16 8t20 3
q11 0 21.5 -3t16.5 -8l68 -59q20 -17 20 -45q0 -23 -16 -39.5t-40 -16.5q-19 0 -33 11z" />
    <glyph glyph-name="ccircumflex" unicode="&#x109;" horiz-adv-x="489" 
d="M27 238q0 50 19.5 95t53 78.5t78 53t94.5 19.5q38 0 75.5 -12t68.5 -33q27 -19 37.5 -34.5t10.5 -36.5q0 -28 -19.5 -47t-48.5 -19q-12 0 -20 3t-22 14q-22 17 -38.5 24t-37.5 7q-24 0 -45.5 -9t-37 -24.5t-24.5 -36t-9 -43.5q0 -24 9 -44.5t24.5 -35.5t36 -24t44.5 -9
q31 0 51 13q3 2 11.5 8t22.5 16q11 8 20.5 11.5t20.5 3.5q28 0 47.5 -19.5t19.5 -47.5q0 -22 -17 -43t-44.5 -38t-62 -27.5t-70.5 -10.5q-51 0 -96.5 19.5t-79 53.5t-53 79t-19.5 96zM269 564l-34 -29q-5 -5 -15 -8t-20 -3q-23 0 -40 16.5t-17 40.5q0 10 3.5 19.5t9.5 14.5
l75 69q5 5 16 8t20 3q11 0 21.5 -3t16.5 -8l68 -59q20 -17 20 -45q0 -23 -16 -39.5t-40 -16.5q-19 0 -33 11z" />
    <glyph glyph-name="Cdotaccent" unicode="&#x10a;" horiz-adv-x="665" 
d="M520 208q25 24 57 24q31 0 53 -22t22 -53q0 -32 -36 -68q-46 -46 -110.5 -72.5t-130.5 -26.5q-71 0 -133.5 27.5t-109.5 74t-74.5 109t-27.5 133.5t27 133.5t74 109t109.5 73.5t133.5 27q120 0 218 -80q29 -24 41.5 -43t12.5 -42q0 -31 -21.5 -52.5t-53.5 -21.5
q-29 0 -56 24l-16 15q-25 23 -58 35.5t-68 12.5q-39 0 -74 -15t-60.5 -41.5t-40.5 -61.5t-15 -74t15 -74t41.5 -61t61.5 -41t74 -15q32 0 65 11.5t53 29.5zM369 869q32 0 53.5 -22t21.5 -53q0 -32 -22 -54t-54 -22t-54.5 22t-22.5 52q0 32 23 54.5t55 22.5z" />
    <glyph glyph-name="cdotaccent" unicode="&#x10b;" horiz-adv-x="489" 
d="M27 238q0 50 19.5 95t53 78.5t78 53t94.5 19.5q38 0 75.5 -12t68.5 -33q27 -19 37.5 -34.5t10.5 -36.5q0 -28 -19.5 -47t-48.5 -19q-12 0 -20 3t-22 14q-22 17 -38.5 24t-37.5 7q-24 0 -45.5 -9t-37 -24.5t-24.5 -36t-9 -43.5q0 -24 9 -44.5t24.5 -35.5t36 -24t44.5 -9
q31 0 51 13q3 2 11.5 8t22.5 16q11 8 20.5 11.5t20.5 3.5q28 0 47.5 -19.5t19.5 -47.5q0 -22 -17 -43t-44.5 -38t-62 -27.5t-70.5 -10.5q-51 0 -96.5 19.5t-79 53.5t-53 79t-19.5 96zM269 680q32 0 53.5 -22t21.5 -53q0 -32 -22 -54t-54 -22t-54.5 22t-22.5 52q0 32 23 54.5
t55 22.5z" />
    <glyph glyph-name="Ccaron" unicode="&#x10c;" horiz-adv-x="665" 
d="M520 208q25 24 57 24q31 0 53 -22t22 -53q0 -32 -36 -68q-46 -46 -110.5 -72.5t-130.5 -26.5q-71 0 -133.5 27.5t-109.5 74t-74.5 109t-27.5 133.5t27 133.5t74 109t109.5 73.5t133.5 27q120 0 218 -80q29 -24 41.5 -43t12.5 -42q0 -31 -21.5 -52.5t-53.5 -21.5
q-29 0 -56 24l-16 15q-25 23 -58 35.5t-68 12.5q-39 0 -74 -15t-60.5 -41.5t-40.5 -61.5t-15 -74t15 -74t41.5 -61t61.5 -41t74 -15q32 0 65 11.5t53 29.5zM263 783q-20 17 -20 45q0 23 16 39.5t40 16.5q19 0 33 -11l35 -29l34 29q5 5 15 8t20 3q23 0 40 -16.5t17 -40.5
q0 -10 -3.5 -19.5t-9.5 -14.5l-75 -69q-5 -5 -16 -8t-20 -3q-11 0 -21.5 3t-16.5 8z" />
    <glyph glyph-name="ccaron" unicode="&#x10d;" horiz-adv-x="489" 
d="M27 238q0 50 19.5 95t53 78.5t78 53t94.5 19.5q38 0 75.5 -12t68.5 -33q27 -19 37.5 -34.5t10.5 -36.5q0 -28 -19.5 -47t-48.5 -19q-12 0 -20 3t-22 14q-22 17 -38.5 24t-37.5 7q-24 0 -45.5 -9t-37 -24.5t-24.5 -36t-9 -43.5q0 -24 9 -44.5t24.5 -35.5t36 -24t44.5 -9
q31 0 51 13q3 2 11.5 8t22.5 16q11 8 20.5 11.5t20.5 3.5q28 0 47.5 -19.5t19.5 -47.5q0 -22 -17 -43t-44.5 -38t-62 -27.5t-70.5 -10.5q-51 0 -96.5 19.5t-79 53.5t-53 79t-19.5 96zM163 594q-20 17 -20 45q0 23 16 39.5t40 16.5q19 0 33 -11l35 -29l34 29q5 5 15 8t20 3
q23 0 40 -16.5t17 -40.5q0 -10 -3.5 -19.5t-9.5 -14.5l-75 -69q-5 -5 -16 -8t-20 -3q-11 0 -21.5 3t-16.5 8z" />
    <glyph glyph-name="Dcaron" unicode="&#x10e;" horiz-adv-x="698" 
d="M162 0q-89 2 -89 89v18v453v18q2 89 89 89h18h129q77 0 129.5 -16t99.5 -53q62 -50 96 -119t34 -147q0 -43 -11 -84.5t-32 -78t-51 -67.5t-67 -54q-78 -48 -198 -48h-129h-18zM291 139q50 0 81 6.5t57 23.5q40 26 63 69t23 94q0 43 -16 78.5t-45.5 60.5t-70.5 39t-91 14
h-66v-385h65zM244 783q-20 17 -20 45q0 23 16 39.5t40 16.5q19 0 33 -11l35 -29l34 29q5 5 15 8t20 3q23 0 40 -16.5t17 -40.5q0 -10 -3.5 -19.5t-9.5 -14.5l-75 -69q-5 -5 -16 -8t-20 -3q-11 0 -21.5 3t-16.5 8z" />
    <glyph glyph-name="dcaron" unicode="&#x10f;" horiz-adv-x="581" 
d="M388 578v15q1 34 19 54t47 20q30 0 48.5 -20.5t18.5 -53.5v-15v-498q0 -24 -2 -36t-8 -22q-8 -14 -22 -21.5t-32 -7.5q-46 0 -63 48q-32 -28 -63 -39.5t-73 -11.5q-50 0 -92.5 18.5t-73 51.5t-48 78.5t-17.5 98.5q0 52 17.5 97t48 78t72 52t90.5 19q39 0 70.5 -11
t62.5 -35v141zM279 349q-23 0 -43.5 -9t-36 -24t-24.5 -35t-9 -43q0 -24 9 -44.5t24 -36t35.5 -24.5t44.5 -9q23 0 43.5 9t35.5 24.5t24 36t9 43.5t-9 43.5t-24 35.5t-35.5 24t-43.5 9zM569 642q8 16 20 25.5t32 9.5q21 0 39 -15.5t18 -40.5q0 -13 -6 -25l-34 -72
q-5 -11 -19.5 -20.5t-30.5 -9.5q-23 0 -40 16.5t-17 40.5q0 14 7 27z" />
    <glyph glyph-name="Dcroat" unicode="&#x110;" horiz-adv-x="698" 
d="M309 667q77 0 129.5 -16t99.5 -53q62 -50 96 -119t34 -147q0 -43 -11 -84.5t-32 -78t-51 -67.5t-67 -54q-78 -48 -198 -48h-147q-89 2 -89 89v180h-16q-35 1 -56 19.5t-21 50.5t21 51t56 19h16v169q2 89 89 89h147zM226 409h107q36 0 56.5 -19t20.5 -51t-21 -51t-56 -19
h-107v-130h65q50 0 81 6.5t57 23.5q40 26 63 69t23 94q0 43 -16 78.5t-45.5 60.5t-70.5 39t-91 14h-66v-115z" />
    <glyph glyph-name="dcroat" unicode="&#x111;" horiz-adv-x="581" 
d="M521 80q0 -24 -2 -36t-8 -22q-8 -14 -22 -21.5t-32 -7.5q-46 0 -63 48q-32 -28 -63 -39.5t-73 -11.5q-50 0 -92.5 18t-73 50t-48 76.5t-17.5 97.5q0 52 17.5 96.5t48 76.5t72 50t90.5 18q39 0 70.5 -11t62.5 -35v65h-75q-29 0 -43.5 14t-14.5 39t14.5 39t46.5 14h72
q0 30 18.5 49.5t47.5 19.5q30 0 48.5 -20t18.5 -49h3q29 0 43.5 -14t14.5 -39t-14.5 -39t-46.5 -14v-412zM279 347q-23 0 -43.5 -9t-36 -24t-24.5 -35t-9 -43q0 -24 9 -44.5t24 -36t35.5 -24.5t44.5 -9q23 0 43.5 9t35.5 24.5t24 36t9 43.5t-9 43.5t-24 35.5t-35.5 24
t-43.5 9z" />
    <glyph glyph-name="Emacron" unicode="&#x112;" horiz-adv-x="536" 
d="M162 0q-89 2 -89 89v18v453v18q2 89 89 89h18h244h16q35 -1 56 -19.5t21 -50.5t-21 -51t-56 -19h-16h-198v-124h156h14q32 -1 51.5 -17.5t19.5 -45.5t-19.5 -46.5t-51.5 -17.5h-14h-156v-136h203h16q35 -1 56.5 -19.5t21.5 -50.5t-21.5 -51t-56.5 -19h-16h-249h-18z
M211 723h-9q-38 0 -59 17.5t-21 48.5q0 30 20.5 48.5t53.5 18.5h15h165h15q34 -1 54 -19t20 -47q0 -30 -20.5 -48.5t-53.5 -18.5h-8h-172z" />
    <glyph glyph-name="emacron" unicode="&#x113;" 
d="M203 154q31 -27 72 -27q20 0 38.5 6.5t38.5 21.5q12 9 21.5 12.5t20.5 3.5q29 0 48 -19t19 -47q0 -21 -12 -38.5t-38 -35.5q-28 -20 -64 -30.5t-72 -10.5q-50 0 -95 20t-79 54t-54 79t-20 95t19.5 94.5t53 78t77.5 53t94 19.5q40 0 78 -13.5t67 -36.5t46.5 -53t17.5 -63
q0 -22 -12.5 -36.5t-42.5 -28.5zM334 325q-18 28 -59 28q-44 0 -75.5 -29t-35.5 -72zM168 534h-9q-38 0 -59 17.5t-21 48.5q0 30 20.5 48.5t53.5 18.5h15h165h15q34 -1 54 -19t20 -47q0 -30 -20.5 -48.5t-53.5 -18.5h-8h-172z" />
    <glyph glyph-name="Ebreve" unicode="&#x114;" horiz-adv-x="536" 
d="M162 0q-89 2 -89 89v18v453v18q2 89 89 89h18h244h16q35 -1 56 -19.5t21 -50.5t-21 -51t-56 -19h-16h-198v-124h156h14q32 -1 51.5 -17.5t19.5 -45.5t-19.5 -46.5t-51.5 -17.5h-14h-156v-136h203h16q35 -1 56.5 -19.5t21.5 -50.5t-21.5 -51t-56.5 -19h-16h-249h-18z
M222 864q11 0 21 -3.5t20 -12.5q17 -15 30 -15t30 15q10 9 20 12.5t21 3.5q23 0 38.5 -16t15.5 -39q0 -14 -7.5 -27.5t-26.5 -30.5q-17 -14 -42 -22.5t-49 -8.5t-49 8.5t-42 22.5q-19 17 -26.5 30.5t-7.5 27.5q0 23 15.5 39t38.5 16z" />
    <glyph glyph-name="ebreve" unicode="&#x115;" 
d="M203 154q31 -27 72 -27q20 0 38.5 6.5t38.5 21.5q12 9 21.5 12.5t20.5 3.5q29 0 48 -19t19 -47q0 -21 -12 -38.5t-38 -35.5q-28 -20 -64 -30.5t-72 -10.5q-50 0 -95 20t-79 54t-54 79t-20 95t19.5 94.5t53 78t77.5 53t94 19.5q40 0 78 -13.5t67 -36.5t46.5 -53t17.5 -63
q0 -22 -12.5 -36.5t-42.5 -28.5zM334 325q-18 28 -59 28q-44 0 -75.5 -29t-35.5 -72zM179 675q11 0 21 -3.5t20 -12.5q17 -15 30 -15t30 15q10 9 20 12.5t21 3.5q23 0 38.5 -16t15.5 -39q0 -14 -7.5 -27.5t-26.5 -30.5q-17 -14 -42 -22.5t-49 -8.5t-49 8.5t-42 22.5
q-19 17 -26.5 30.5t-7.5 27.5q0 23 15.5 39t38.5 16z" />
    <glyph glyph-name="Edotaccent" unicode="&#x116;" horiz-adv-x="536" 
d="M162 0q-89 2 -89 89v18v453v18q2 89 89 89h18h244h16q35 -1 56 -19.5t21 -50.5t-21 -51t-56 -19h-16h-198v-124h156h14q32 -1 51.5 -17.5t19.5 -45.5t-19.5 -46.5t-51.5 -17.5h-14h-156v-136h203h16q35 -1 56.5 -19.5t21.5 -50.5t-21.5 -51t-56.5 -19h-16h-249h-18z
M294 869q32 0 53.5 -22t21.5 -53q0 -32 -22 -54t-54 -22t-54.5 22t-22.5 52q0 32 23 54.5t55 22.5z" />
    <glyph glyph-name="edotaccent" unicode="&#x117;" 
d="M203 154q31 -27 72 -27q20 0 38.5 6.5t38.5 21.5q12 9 21.5 12.5t20.5 3.5q29 0 48 -19t19 -47q0 -21 -12 -38.5t-38 -35.5q-28 -20 -64 -30.5t-72 -10.5q-50 0 -95 20t-79 54t-54 79t-20 95t19.5 94.5t53 78t77.5 53t94 19.5q40 0 78 -13.5t67 -36.5t46.5 -53t17.5 -63
q0 -22 -12.5 -36.5t-42.5 -28.5zM334 325q-18 28 -59 28q-44 0 -75.5 -29t-35.5 -72zM251 680q32 0 53.5 -22t21.5 -53q0 -32 -22 -54t-54 -22t-54.5 22t-22.5 52q0 32 23 54.5t55 22.5z" />
    <glyph glyph-name="Eogonek" unicode="&#x118;" horiz-adv-x="536" 
d="M453 -143q-7 -8 -18 -12t-22 -4q-23 0 -39.5 17t-16.5 40q0 24 17 41l59 61h-271q-89 2 -89 89v489q2 89 89 89h278q35 -1 56 -19.5t21 -50.5t-21 -51t-56 -19h-214v-124h170q32 -1 51.5 -17.5t19.5 -45.5t-19.5 -46.5t-51.5 -17.5h-170v-136h219q35 -1 56.5 -19.5
t21.5 -50.5q0 -22 -10.5 -38.5t-29.5 -24.5q11 -2 23 -13q9 -9 13 -20.5t4 -20.5q0 -21 -15 -39z" />
    <glyph glyph-name="eogonek" unicode="&#x119;" 
d="M342 -143q-7 -8 -18 -12t-22 -4q-23 0 -39.5 17t-16.5 40q0 24 17 41l52 55q-10 -2 -20 -3t-20 -1q-50 0 -95 20t-79 54t-54 79t-20 95t19.5 94.5t53 78t77.5 53t94 19.5q40 0 78 -13.5t67 -36.5t46.5 -53t17.5 -63q0 -22 -12.5 -36.5t-42.5 -28.5l-222 -98
q31 -27 72 -27q20 0 38.5 6.5t38.5 21.5q12 9 21.5 12.5t20.5 3.5q29 0 48 -19t19 -47q0 -21 -12 -38.5t-38 -35.5q-21 -15 -42 -23q13 -3 26 -14q9 -9 13 -20.5t4 -20.5q0 -21 -15 -39zM334 325q-18 28 -59 28q-44 0 -75.5 -29t-35.5 -72z" />
    <glyph glyph-name="Ecaron" unicode="&#x11a;" horiz-adv-x="536" 
d="M162 0q-89 2 -89 89v18v453v18q2 89 89 89h18h244h16q35 -1 56 -19.5t21 -50.5t-21 -51t-56 -19h-16h-198v-124h156h14q32 -1 51.5 -17.5t19.5 -45.5t-19.5 -46.5t-51.5 -17.5h-14h-156v-136h203h16q35 -1 56.5 -19.5t21.5 -50.5t-21.5 -51t-56.5 -19h-16h-249h-18z
M188 783q-20 17 -20 45q0 23 16 39.5t40 16.5q19 0 33 -11l35 -29l34 29q5 5 15 8t20 3q23 0 40 -16.5t17 -40.5q0 -10 -3.5 -19.5t-9.5 -14.5l-75 -69q-5 -5 -16 -8t-20 -3q-11 0 -21.5 3t-16.5 8z" />
    <glyph glyph-name="ecaron" unicode="&#x11b;" 
d="M203 154q31 -27 72 -27q20 0 38.5 6.5t38.5 21.5q12 9 21.5 12.5t20.5 3.5q29 0 48 -19t19 -47q0 -21 -12 -38.5t-38 -35.5q-28 -20 -64 -30.5t-72 -10.5q-50 0 -95 20t-79 54t-54 79t-20 95t19.5 94.5t53 78t77.5 53t94 19.5q40 0 78 -13.5t67 -36.5t46.5 -53t17.5 -63
q0 -22 -12.5 -36.5t-42.5 -28.5zM334 325q-18 28 -59 28q-44 0 -75.5 -29t-35.5 -72zM145 594q-20 17 -20 45q0 23 16 39.5t40 16.5q19 0 33 -11l35 -29l34 29q5 5 15 8t20 3q23 0 40 -16.5t17 -40.5q0 -10 -3.5 -19.5t-9.5 -14.5l-75 -69q-5 -5 -16 -8t-20 -3
q-11 0 -21.5 3t-16.5 8z" />
    <glyph glyph-name="Gcircumflex" unicode="&#x11c;" horiz-adv-x="689" 
d="M392 248q-36 1 -57 19.5t-21 50.5q0 31 21.5 50.5t56.5 19.5h15h136h17q89 -2 89 -89v-18v-83q0 -32 -10.5 -61.5t-30.5 -52.5q-18 -21 -43.5 -38t-56 -29.5t-64.5 -19.5t-67 -7q-71 0 -134.5 27.5t-110.5 74t-74.5 109t-27.5 133.5t27 133.5t74 109t109.5 73.5t134.5 27
q48 0 95 -14t89 -40q28 -18 39.5 -35.5t11.5 -40.5q0 -32 -21.5 -53.5t-53.5 -21.5q-8 0 -12.5 0.5t-10 3t-14.5 7.5t-24 15q-20 14 -46 21.5t-52 7.5q-40 0 -75 -15.5t-61.5 -41.5t-41.5 -61.5t-15 -74.5q0 -41 16 -77t44 -62.5t66.5 -41.5t82.5 -15q38 0 64 12t37 34
q8 16 8 53v11h-94h-15zM365 753l-34 -29q-5 -5 -15 -8t-20 -3q-23 0 -40 16.5t-17 40.5q0 10 3.5 19.5t9.5 14.5l75 69q5 5 16 8t20 3q11 0 21.5 -3t16.5 -8l68 -59q20 -17 20 -45q0 -23 -16 -39.5t-40 -16.5q-19 0 -33 11z" />
    <glyph glyph-name="gcircumflex" unicode="&#x11d;" horiz-adv-x="546" 
d="M489 72q0 -55 -9.5 -92.5t-30.5 -63.5q-33 -41 -83 -63t-110 -22q-40 0 -76 9t-63.5 25t-43.5 37t-16 44q0 27 18.5 46t45.5 19q15 0 27 -5t34 -21q23 -16 40 -22.5t40 -6.5q45 0 69.5 28t24.5 80v8q-29 -21 -57 -30.5t-63 -9.5q-45 0 -83 17t-66 47t-44 70.5t-16 87.5
q0 48 16 90t43.5 73t65.5 48.5t82 17.5q38 0 67.5 -10t63.5 -35q8 20 23.5 31t35.5 11q15 0 29 -7t23 -20q8 -11 10.5 -22t2.5 -32v-327zM264 355q-20 0 -37.5 -7.5t-31 -20.5t-21 -31t-7.5 -38q0 -42 28 -70t69 -28t69 28t28 69t-28 69.5t-69 28.5zM274 564l-34 -29
q-5 -5 -15 -8t-20 -3q-23 0 -40 16.5t-17 40.5q0 10 3.5 19.5t9.5 14.5l75 69q5 5 16 8t20 3q11 0 21.5 -3t16.5 -8l68 -59q20 -17 20 -45q0 -23 -16 -39.5t-40 -16.5q-19 0 -33 11z" />
    <glyph glyph-name="Gbreve" unicode="&#x11e;" horiz-adv-x="689" 
d="M392 248q-36 1 -57 19.5t-21 50.5q0 31 21.5 50.5t56.5 19.5h15h136h17q89 -2 89 -89v-18v-83q0 -32 -10.5 -61.5t-30.5 -52.5q-18 -21 -43.5 -38t-56 -29.5t-64.5 -19.5t-67 -7q-71 0 -134.5 27.5t-110.5 74t-74.5 109t-27.5 133.5t27 133.5t74 109t109.5 73.5t134.5 27
q48 0 95 -14t89 -40q28 -18 39.5 -35.5t11.5 -40.5q0 -32 -21.5 -53.5t-53.5 -21.5q-8 0 -12.5 0.5t-10 3t-14.5 7.5t-24 15q-20 14 -46 21.5t-52 7.5q-40 0 -75 -15.5t-61.5 -41.5t-41.5 -61.5t-15 -74.5q0 -41 16 -77t44 -62.5t66.5 -41.5t82.5 -15q38 0 64 12t37 34
q8 16 8 53v11h-94h-15zM293 864q11 0 21 -3.5t20 -12.5q17 -15 30 -15t30 15q10 9 20 12.5t21 3.5q23 0 38.5 -16t15.5 -39q0 -14 -7.5 -27.5t-26.5 -30.5q-17 -14 -42 -22.5t-49 -8.5t-49 8.5t-42 22.5q-19 17 -26.5 30.5t-7.5 27.5q0 23 15.5 39t38.5 16z" />
    <glyph glyph-name="gbreve" unicode="&#x11f;" horiz-adv-x="546" 
d="M489 72q0 -55 -9.5 -92.5t-30.5 -63.5q-33 -41 -83 -63t-110 -22q-40 0 -76 9t-63.5 25t-43.5 37t-16 44q0 27 18.5 46t45.5 19q15 0 27 -5t34 -21q23 -16 40 -22.5t40 -6.5q45 0 69.5 28t24.5 80v8q-29 -21 -57 -30.5t-63 -9.5q-45 0 -83 17t-66 47t-44 70.5t-16 87.5
q0 48 16 90t43.5 73t65.5 48.5t82 17.5q38 0 67.5 -10t63.5 -35q8 20 23.5 31t35.5 11q15 0 29 -7t23 -20q8 -11 10.5 -22t2.5 -32v-327zM264 355q-20 0 -37.5 -7.5t-31 -20.5t-21 -31t-7.5 -38q0 -42 28 -70t69 -28t69 28t28 69t-28 69.5t-69 28.5zM202 675q11 0 21 -3.5
t20 -12.5q17 -15 30 -15t30 15q10 9 20 12.5t21 3.5q23 0 38.5 -16t15.5 -39q0 -14 -7.5 -27.5t-26.5 -30.5q-17 -14 -42 -22.5t-49 -8.5t-49 8.5t-42 22.5q-19 17 -26.5 30.5t-7.5 27.5q0 23 15.5 39t38.5 16z" />
    <glyph glyph-name="Gdotaccent" unicode="&#x120;" horiz-adv-x="689" 
d="M392 248q-36 1 -57 19.5t-21 50.5q0 31 21.5 50.5t56.5 19.5h15h136h17q89 -2 89 -89v-18v-83q0 -32 -10.5 -61.5t-30.5 -52.5q-18 -21 -43.5 -38t-56 -29.5t-64.5 -19.5t-67 -7q-71 0 -134.5 27.5t-110.5 74t-74.5 109t-27.5 133.5t27 133.5t74 109t109.5 73.5t134.5 27
q48 0 95 -14t89 -40q28 -18 39.5 -35.5t11.5 -40.5q0 -32 -21.5 -53.5t-53.5 -21.5q-8 0 -12.5 0.5t-10 3t-14.5 7.5t-24 15q-20 14 -46 21.5t-52 7.5q-40 0 -75 -15.5t-61.5 -41.5t-41.5 -61.5t-15 -74.5q0 -41 16 -77t44 -62.5t66.5 -41.5t82.5 -15q38 0 64 12t37 34
q8 16 8 53v11h-94h-15zM365 869q32 0 53.5 -22t21.5 -53q0 -32 -22 -54t-54 -22t-54.5 22t-22.5 52q0 32 23 54.5t55 22.5z" />
    <glyph glyph-name="gdotaccent" unicode="&#x121;" horiz-adv-x="546" 
d="M489 72q0 -55 -9.5 -92.5t-30.5 -63.5q-33 -41 -83 -63t-110 -22q-40 0 -76 9t-63.5 25t-43.5 37t-16 44q0 27 18.5 46t45.5 19q15 0 27 -5t34 -21q23 -16 40 -22.5t40 -6.5q45 0 69.5 28t24.5 80v8q-29 -21 -57 -30.5t-63 -9.5q-45 0 -83 17t-66 47t-44 70.5t-16 87.5
q0 48 16 90t43.5 73t65.5 48.5t82 17.5q38 0 67.5 -10t63.5 -35q8 20 23.5 31t35.5 11q15 0 29 -7t23 -20q8 -11 10.5 -22t2.5 -32v-327zM264 355q-20 0 -37.5 -7.5t-31 -20.5t-21 -31t-7.5 -38q0 -42 28 -70t69 -28t69 28t28 69t-28 69.5t-69 28.5zM274 680q32 0 53.5 -22
t21.5 -53q0 -32 -22 -54t-54 -22t-54.5 22t-22.5 52q0 32 23 54.5t55 22.5z" />
    <glyph glyph-name="Gcommaaccent" unicode="&#x122;" horiz-adv-x="689" 
d="M392 248q-36 1 -57 19.5t-21 50.5q0 31 21.5 50.5t56.5 19.5h15h136h17q89 -2 89 -89v-18v-83q0 -32 -10.5 -61.5t-30.5 -52.5q-18 -21 -43.5 -38t-56 -29.5t-64.5 -19.5t-67 -7q-71 0 -134.5 27.5t-110.5 74t-74.5 109t-27.5 133.5t27 133.5t74 109t109.5 73.5t134.5 27
q48 0 95 -14t89 -40q28 -18 39.5 -35.5t11.5 -40.5q0 -32 -21.5 -53.5t-53.5 -21.5q-8 0 -12.5 0.5t-10 3t-14.5 7.5t-24 15q-20 14 -46 21.5t-52 7.5q-40 0 -75 -15.5t-61.5 -41.5t-41.5 -61.5t-15 -74.5q0 -41 16 -77t44 -62.5t66.5 -41.5t82.5 -15q38 0 64 12t37 34
q8 16 8 53v11h-94h-15zM318 -81q8 16 20 25.5t32 9.5q21 0 39 -15.5t18 -40.5q0 -13 -6 -25l-34 -72q-5 -11 -19.5 -20.5t-30.5 -9.5q-23 0 -40 16.5t-17 40.5q0 14 7 27z" />
    <glyph glyph-name="gcommaaccent" unicode="&#x123;" horiz-adv-x="546" 
d="M489 72q0 -55 -9.5 -92.5t-30.5 -63.5q-33 -41 -83 -63t-110 -22q-40 0 -76 9t-63.5 25t-43.5 37t-16 44q0 27 18.5 46t45.5 19q15 0 27 -5t34 -21q23 -16 40 -22.5t40 -6.5q45 0 69.5 28t24.5 80v8q-29 -21 -57 -30.5t-63 -9.5q-45 0 -83 17t-66 47t-44 70.5t-16 87.5
q0 48 16 90t43.5 73t65.5 48.5t82 17.5q38 0 67.5 -10t63.5 -35q8 20 23.5 31t35.5 11q15 0 29 -7t23 -20q8 -11 10.5 -22t2.5 -32v-327zM264 355q-20 0 -37.5 -7.5t-31 -20.5t-21 -31t-7.5 -38q0 -42 28 -70t69 -28t69 28t28 69t-28 69.5t-69 28.5zM237 669q8 16 20 25.5
t32 9.5q21 0 39 -15.5t18 -40.5q0 -13 -6 -25l-34 -72q-5 -11 -19.5 -20.5t-30.5 -9.5q-23 0 -40 16.5t-17 40.5q0 14 7 27z" />
    <glyph glyph-name="Hcircumflex" unicode="&#x124;" horiz-adv-x="701" 
d="M73 96v475v17q1 39 21.5 62t55.5 23t55.5 -23.5t20.5 -61.5v-17v-162h249v162v17q0 39 20.5 62t55.5 23t56 -23.5t21 -61.5v-17v-475v-17q-2 -39 -22 -62.5t-55 -23.5t-55.5 24t-20.5 62v17v173h-249v-173v-17q0 -39 -20.5 -62.5t-55.5 -23.5t-56 24t-21 62v17zM351 753
l-34 -29q-5 -5 -15 -8t-20 -3q-23 0 -40 16.5t-17 40.5q0 10 3.5 19.5t9.5 14.5l75 69q5 5 16 8t20 3q11 0 21.5 -3t16.5 -8l68 -59q20 -17 20 -45q0 -23 -16 -39.5t-40 -16.5q-19 0 -33 11z" />
    <glyph glyph-name="hcircumflex" unicode="&#x125;" horiz-adv-x="542" 
d="M60 82v496v15q1 34 19 54t48 20t48 -20.5t18 -53.5v-9v-125q23 14 43 19t46 5q55 0 100 -23.5t72 -66.5q10 -15 16 -28t9.5 -28t5 -33t1.5 -43v-179v-15q-1 -34 -19 -54t-48 -20t-48 20.5t-18 53.5v15v166q0 23 -2.5 35t-8.5 24q-9 20 -28 31t-40 11q-20 0 -39 -10.5
t-29 -27.5q-7 -12 -10 -26.5t-3 -36.5v-166v-15q-1 -34 -18.5 -54t-47.5 -20t-48.5 20.5t-18.5 53.5v15zM272 753l-34 -29q-5 -5 -15 -8t-20 -3q-23 0 -40 16.5t-17 40.5q0 10 3.5 19.5t9.5 14.5l75 69q5 5 16 8t20 3q11 0 21.5 -3t16.5 -8l68 -59q20 -17 20 -45
q0 -23 -16 -39.5t-40 -16.5q-19 0 -33 11z" />
    <glyph glyph-name="Hbar" unicode="&#x126;" horiz-adv-x="701" 
d="M73 467q-29 0 -43.5 14t-14.5 39q0 24 14 38t44 15v15q1 39 21.5 62t55.5 23t55.5 -23.5t20.5 -61.5v-15h249v15q0 39 20.5 62t55.5 23t56 -23.5t21 -61.5v-15q29 0 43.5 -14t14.5 -39q0 -24 -14 -38t-44 -15v-388q-2 -39 -22 -62.5t-55 -23.5t-55.5 24t-20.5 62v190
h-249v-190q0 -39 -20.5 -62.5t-55.5 -23.5t-56 24t-21 62v388zM475 409v58h-249v-58h249z" />
    <glyph glyph-name="hbar" unicode="&#x127;" horiz-adv-x="542" 
d="M193 492v-43q23 14 48 19t51 5q55 0 95.5 -19t66.5 -61q19 -30 25.5 -59.5t6.5 -72.5v-194q-1 -34 -19 -54t-48 -20t-48 20.5t-18 53.5v181q0 23 -2.5 35t-8.5 24q-9 20 -28 30t-40 10q-20 0 -39 -9.5t-29 -26.5q-7 -12 -10 -26.5t-3 -36.5v-181q-1 -34 -18.5 -54
t-47.5 -20t-48.5 20.5t-18.5 53.5v425h-3q-29 0 -43.5 14t-14.5 39t14.5 39t46.5 14q0 30 18.5 49.5t48.5 19.5t48 -20t18 -49h75q29 0 43.5 -14t14.5 -39t-14.5 -39t-46.5 -14h-72z" />
    <glyph glyph-name="Itilde" unicode="&#x128;" horiz-adv-x="300" 
d="M73 96v475v17q1 39 21.5 62t55.5 23t55.5 -23.5t20.5 -61.5v-17v-475v-17q0 -39 -20.5 -62.5t-55.5 -23.5t-56 24t-21 62v17zM61 732q-10 -5 -19 -5q-18 0 -30.5 13.5t-12.5 33.5q0 18 8 34t21.5 28.5t30.5 20t36 7.5q14 0 25 -3t32 -12q27 -13 46 -13q14 0 22 4l20 11
q12 5 19 5q17 0 30.5 -14t13.5 -32t-8.5 -34.5t-22.5 -29t-32.5 -20t-38.5 -7.5q-12 0 -22.5 3t-29.5 11q-17 8 -28 11t-20 3q-14 0 -21 -5z" />
    <glyph glyph-name="itilde" unicode="&#x129;" horiz-adv-x="253" 
d="M60 82v309v15q1 34 19 54t48 20t48 -20.5t18 -53.5v-15v-309v-15q-1 -34 -18.5 -54t-47.5 -20t-48.5 20.5t-18.5 53.5v15zM37 543q-10 -5 -19 -5q-18 0 -30.5 13.5t-12.5 33.5q0 18 8 34t21.5 28.5t30.5 20t36 7.5q14 0 25 -3t32 -12q27 -13 46 -13q14 0 22 4l20 11
q12 5 19 5q17 0 30.5 -14t13.5 -32t-8.5 -34.5t-22.5 -29t-32.5 -20t-38.5 -7.5q-12 0 -22.5 3t-29.5 11q-17 8 -28 11t-20 3q-14 0 -21 -5z" />
    <glyph glyph-name="Imacron" unicode="&#x12a;" horiz-adv-x="300" 
d="M73 96v475v17q1 39 21.5 62t55.5 23t55.5 -23.5t20.5 -61.5v-17v-475v-17q0 -39 -20.5 -62.5t-55.5 -23.5t-56 24t-21 62v17zM69 723h-9q-38 0 -59 17.5t-21 48.5q0 30 20.5 48.5t53.5 18.5h15h165h15q34 -1 54 -19t20 -47q0 -30 -20.5 -48.5t-53.5 -18.5h-8h-172z" />
    <glyph glyph-name="imacron" unicode="&#x12b;" horiz-adv-x="253" 
d="M60 82v309v15q1 34 19 54t48 20t48 -20.5t18 -53.5v-15v-309v-15q-1 -34 -18.5 -54t-47.5 -20t-48.5 20.5t-18.5 53.5v15zM45 534h-9q-38 0 -59 17.5t-21 48.5q0 30 20.5 48.5t53.5 18.5h15h165h15q34 -1 54 -19t20 -47q0 -30 -20.5 -48.5t-53.5 -18.5h-8h-172z" />
    <glyph glyph-name="Iogonek" unicode="&#x12e;" horiz-adv-x="300" 
d="M163 -143q-7 -8 -18 -12t-22 -4q-23 0 -39.5 17t-16.5 40q0 24 17 41l53 55q-29 5 -46.5 27.5t-17.5 57.5v509q1 39 21.5 62t55.5 23t55.5 -23.5t20.5 -61.5v-509q0 -24 -8.5 -42.5t-22.5 -29.5q12 -5 21 -13q9 -9 13 -20.5t4 -20.5q0 -21 -15 -39z" />
    <glyph glyph-name="iogonek" unicode="&#x12f;" horiz-adv-x="253" 
d="M139 -143q-7 -8 -18 -12t-22 -4q-23 0 -39.5 17t-16.5 40q0 24 17 41l53 55v1q-23 5 -37 24t-14 48v339q1 34 19 54t47 20q30 0 48.5 -20.5t18.5 -53.5v-339q-2 -40 -25 -60q12 -5 22 -13q9 -9 13 -20.5t4 -20.5q0 -21 -15 -39zM128 668q33 0 56 -23t23 -56t-23.5 -56.5
t-57.5 -23.5q-16 0 -30.5 6.5t-25.5 17t-17.5 24.5t-6.5 30q0 35 23.5 58t58.5 23z" />
    <glyph glyph-name="Idotaccent" unicode="&#x130;" horiz-adv-x="300" 
d="M73 96v475v17q1 39 21.5 62t55.5 23t55.5 -23.5t20.5 -61.5v-17v-475v-17q0 -39 -20.5 -62.5t-55.5 -23.5t-56 24t-21 62v17zM152 869q32 0 53.5 -22t21.5 -53q0 -32 -22 -54t-54 -22t-54.5 22t-22.5 52q0 32 23 54.5t55 22.5z" />
    <glyph glyph-name="dotlessi" unicode="&#x131;" horiz-adv-x="253" 
d="M60 82v309v15q1 34 19 54t48 20t48 -20.5t18 -53.5v-15v-309v-15q-1 -34 -18.5 -54t-47.5 -20t-48.5 20.5t-18.5 53.5v15z" />
    <glyph glyph-name="Jcircumflex" unicode="&#x134;" horiz-adv-x="572" 
d="M169 233q5 -40 31.5 -65t65.5 -25q28 0 51.5 14t34.5 37q4 8 6.5 15t4 16t2 21t0.5 30v295v17q1 39 21.5 62t55.5 23q34 0 55 -23.5t21 -61.5v-17v-312q0 -59 -11 -96.5t-39 -73.5q-76 -99 -200 -99q-51 0 -97 19.5t-80.5 52.5t-54.5 77t-20 93q0 38 21 62t55 24
q29 0 50.5 -19.5t24.5 -48.5zM287 753l-34 -29q-5 -5 -15 -8t-20 -3q-23 0 -40 16.5t-17 40.5q0 10 3.5 19.5t9.5 14.5l75 69q5 5 16 8t20 3q11 0 21.5 -3t16.5 -8l68 -59q20 -17 20 -45q0 -23 -16 -39.5t-40 -16.5q-19 0 -33 11z" />
    <glyph glyph-name="jcircumflex" unicode="&#x135;" horiz-adv-x="257" 
d="M28 -28q32 20 32 95v324v15q1 34 19 54t48 20t48 -20.5t18 -53.5v-15v-354v-34t-1 -22t-2 -15.5t-4 -15.5q-6 -24 -20 -45.5t-33 -37.5t-41 -25t-44 -9q-35 0 -56.5 19t-21.5 48q0 35 32 55zM130 564l-34 -29q-5 -5 -15 -8t-20 -3q-23 0 -40 16.5t-17 40.5q0 10 3.5 19.5
t9.5 14.5l75 69q5 5 16 8t20 3q11 0 21.5 -3t16.5 -8l68 -59q20 -17 20 -45q0 -23 -16 -39.5t-40 -16.5q-19 0 -33 11z" />
    <glyph glyph-name="Kcommaaccent" unicode="&#x136;" horiz-adv-x="640" 
d="M481 30l-255 240v-174v-17q0 -39 -20.5 -62.5t-55.5 -23.5t-56 24t-21 62v17v475v17q1 39 21.5 62t55.5 23t55.5 -23.5t20.5 -61.5v-17v-159l224 224l11 12q29 28 59 28q32 0 54.5 -22.5t22.5 -54.5q0 -17 -9 -32t-32 -38l-190 -186l219 -202q26 -24 35 -38.5t9 -34.5
q0 -32 -23 -54.5t-55 -22.5q-28 0 -57 27zM294 -81q8 16 20 25.5t32 9.5q21 0 39 -15.5t18 -40.5q0 -13 -6 -25l-34 -72q-5 -11 -19.5 -20.5t-30.5 -9.5q-23 0 -40 16.5t-17 40.5q0 14 7 27z" />
    <glyph glyph-name="kcommaaccent" unicode="&#x137;" horiz-adv-x="497" 
d="M351 30l-158 167v-115v-15q-1 -34 -18.5 -54t-47.5 -20t-48.5 20.5t-18.5 53.5v15v496v15q1 34 19 54t48 20t48 -20.5t18 -53.5v-15v-252l164 129l11 10q27 19 51 19q26 0 45.5 -20.5t19.5 -47.5q0 -35 -34 -59l-12 -9l-127 -92l136 -131q22 -21 29.5 -34t7.5 -30
q0 -29 -20.5 -49t-49.5 -20q-26 0 -53 27zM213 -81q8 16 20 25.5t32 9.5q21 0 39 -15.5t18 -40.5q0 -13 -6 -25l-34 -72q-5 -11 -19.5 -20.5t-30.5 -9.5q-23 0 -40 16.5t-17 40.5q0 14 7 27z" />
    <glyph glyph-name="Lacute" unicode="&#x139;" horiz-adv-x="516" 
d="M162 0q-89 2 -89 89v18v464v17q1 39 21.5 62t55.5 23t55.5 -23.5t20.5 -61.5v-17v-431h183h16q35 -1 56 -19.5t21 -50.5t-21 -51t-56 -19h-16h-229h-18zM303 730q-6 -7 -17 -11.5t-22 -4.5q-23 0 -40 17t-17 40t18 41l49 51q11 11 20 15.5t22 4.5q24 0 41 -17t17 -41
q0 -21 -16 -37z" />
    <glyph glyph-name="lacute" unicode="&#x13a;" horiz-adv-x="253" 
d="M60 593q0 34 18.5 54t48.5 20t48 -20.5t18 -53.5v-523q0 -36 -17.5 -56.5t-48.5 -20.5q-30 0 -48.5 20.5t-18.5 53.5v526zM172 730q-6 -7 -17 -11.5t-22 -4.5q-23 0 -40 17t-17 40t18 41l49 51q11 11 20 15.5t22 4.5q24 0 41 -17t17 -41q0 -21 -16 -37z" />
    <glyph glyph-name="Lcommaaccent" unicode="&#x13b;" horiz-adv-x="516" 
d="M162 0q-89 2 -89 89v18v464v17q1 39 21.5 62t55.5 23t55.5 -23.5t20.5 -61.5v-17v-431h183h16q35 -1 56 -19.5t21 -50.5t-21 -51t-56 -19h-16h-229h-18zM242 -81q8 16 20 25.5t32 9.5q21 0 39 -15.5t18 -40.5q0 -13 -6 -25l-34 -72q-5 -11 -19.5 -20.5t-30.5 -9.5
q-23 0 -40 16.5t-17 40.5q0 14 7 27z" />
    <glyph glyph-name="lcommaaccent" unicode="&#x13c;" horiz-adv-x="253" 
d="M60 593q0 34 18.5 54t48.5 20t48 -20.5t18 -53.5v-523q0 -36 -17.5 -56.5t-48.5 -20.5q-30 0 -48.5 20.5t-18.5 53.5v526zM91 -81q8 16 20 25.5t32 9.5q21 0 39 -15.5t18 -40.5q0 -13 -6 -25l-34 -72q-5 -11 -19.5 -20.5t-30.5 -9.5q-23 0 -40 16.5t-17 40.5q0 14 7 27z
" />
    <glyph glyph-name="Lcaron" unicode="&#x13d;" horiz-adv-x="516" 
d="M162 0q-89 2 -89 89v18v464v17q1 39 21.5 62t55.5 23t55.5 -23.5t20.5 -61.5v-17v-431h183h16q35 -1 56 -19.5t21 -50.5t-21 -51t-56 -19h-16h-229h-18zM276 642q8 16 20 25.5t32 9.5q21 0 39 -15.5t18 -40.5q0 -13 -6 -25l-34 -72q-5 -11 -19.5 -20.5t-30.5 -9.5
q-23 0 -40 16.5t-17 40.5q0 14 7 27z" />
    <glyph glyph-name="lcaron" unicode="&#x13e;" horiz-adv-x="253" 
d="M60 593q0 34 18.5 54t48.5 20t48 -20.5t18 -53.5v-523q0 -36 -17.5 -56.5t-48.5 -20.5q-30 0 -48.5 20.5t-18.5 53.5v526zM241 642q8 16 20 25.5t32 9.5q21 0 39 -15.5t18 -40.5q0 -13 -6 -25l-34 -72q-5 -11 -19.5 -20.5t-30.5 -9.5q-23 0 -40 16.5t-17 40.5q0 14 7 27z
" />
    <glyph glyph-name="Ldot" unicode="&#x13f;" horiz-adv-x="516" 
d="M334 370q32 0 53.5 -22t21.5 -53q0 -32 -22 -54t-54 -22t-54.5 22t-22.5 52q0 32 23 54.5t55 22.5zM162 0q-89 2 -89 89v18v464v17q1 39 21.5 62t55.5 23t55.5 -23.5t20.5 -61.5v-17v-431h183h16q35 -1 56 -19.5t21 -50.5t-21 -51t-56 -19h-16h-229h-18z" />
    <glyph glyph-name="ldot" unicode="&#x140;" horiz-adv-x="355" 
d="M291 370q32 0 53.5 -22t21.5 -53q0 -32 -22 -54t-54 -22t-54.5 22t-22.5 52q0 32 23 54.5t55 22.5zM60 593q0 34 18.5 54t48.5 20t48 -20.5t18 -53.5v-523q0 -36 -17.5 -56.5t-48.5 -20.5q-30 0 -48.5 20.5t-18.5 53.5v526z" />
    <glyph glyph-name="Lslash" unicode="&#x141;" horiz-adv-x="516" 
d="M73 293v295q1 39 21.5 62t55.5 23t55.5 -23.5t20.5 -61.5v-206l63 37q18 10 32 10q23 0 37.5 -17.5t14.5 -37.5q0 -17 -8 -28t-25 -21l-114 -65v-120h199q35 -1 56 -19.5t21 -50.5t-21 -51t-56 -19h-263q-89 2 -89 89v84q-14 -8 -23.5 -12.5t-17.5 -3.5q-23 0 -37.5 16.5
t-14.5 37.5q0 29 28 45z" />
    <glyph glyph-name="lslash" unicode="&#x142;" horiz-adv-x="253" 
d="M60 301v292q0 34 18.5 54t48.5 20t48 -20.5t18 -53.5v-215l12 7q18 10 32 10q23 0 37.5 -17.5t14.5 -37.5q0 -17 -8 -28t-25 -21l-63 -36v-185q0 -36 -17.5 -56.5t-48.5 -20.5q-30 0 -48.5 20.5t-18.5 53.5v113q-14 -8 -23.5 -12.5t-17.5 -3.5q-23 0 -37.5 16.5
t-14.5 37.5q0 29 28 45z" />
    <glyph glyph-name="Nacute" unicode="&#x143;" horiz-adv-x="724" 
d="M226 387v-291v-17q0 -39 -20.5 -62.5t-55.5 -23.5t-56 24t-21 62v17v488q0 22 2.5 33.5t10.5 22.5q22 33 60 33q21 0 36.5 -9t35.5 -35l280 -353v295v17q1 39 21.5 62t54.5 23q35 0 56 -23.5t21 -61.5v-17v-480q0 -28 -2 -40.5t-10 -23.5q-11 -17 -29.5 -27t-39.5 -10
t-35.5 9.5t-36.5 38.5zM407 730q-6 -7 -17 -11.5t-22 -4.5q-23 0 -40 17t-17 40t18 41l49 51q11 11 20 15.5t22 4.5q24 0 41 -17t17 -41q0 -21 -16 -37z" />
    <glyph glyph-name="nacute" unicode="&#x144;" horiz-adv-x="543" 
d="M57 82v169q0 49 11 84.5t36 67.5q30 38 74 59t92 21q56 0 106.5 -28.5t80.5 -77.5q14 -23 21.5 -56.5t7.5 -73.5v-165v-15q-1 -34 -19 -54t-47 -20q-30 0 -48.5 20.5t-18.5 53.5v15v153q0 30 -2 43t-7 26q-9 20 -29.5 33t-43.5 13q-35 0 -58 -25t-23 -61v-25v-157v-15
q-1 -34 -19 -54t-48 -20q-29 0 -47.5 20.5t-18.5 53.5v15zM316 541q-6 -7 -17 -11.5t-22 -4.5q-23 0 -40 17t-17 40t18 41l49 51q11 11 20 15.5t22 4.5q24 0 41 -17t17 -41q0 -21 -16 -37z" />
    <glyph glyph-name="Ncommaaccent" unicode="&#x145;" horiz-adv-x="724" 
d="M226 387v-291v-17q0 -39 -20.5 -62.5t-55.5 -23.5t-56 24t-21 62v17v488q0 22 2.5 33.5t10.5 22.5q22 33 60 33q21 0 36.5 -9t35.5 -35l280 -353v295v17q1 39 21.5 62t54.5 23q35 0 56 -23.5t21 -61.5v-17v-480q0 -28 -2 -40.5t-10 -23.5q-11 -17 -29.5 -27t-39.5 -10
t-35.5 9.5t-36.5 38.5zM326 -81q8 16 20 25.5t32 9.5q21 0 39 -15.5t18 -40.5q0 -13 -6 -25l-34 -72q-5 -11 -19.5 -20.5t-30.5 -9.5q-23 0 -40 16.5t-17 40.5q0 14 7 27z" />
    <glyph glyph-name="ncommaaccent" unicode="&#x146;" horiz-adv-x="543" 
d="M57 82v169q0 49 11 84.5t36 67.5q30 38 74 59t92 21q56 0 106.5 -28.5t80.5 -77.5q14 -23 21.5 -56.5t7.5 -73.5v-165v-15q-1 -34 -19 -54t-47 -20q-30 0 -48.5 20.5t-18.5 53.5v15v153q0 30 -2 43t-7 26q-9 20 -29.5 33t-43.5 13q-35 0 -58 -25t-23 -61v-25v-157v-15
q-1 -34 -19 -54t-48 -20q-29 0 -47.5 20.5t-18.5 53.5v15zM235 -81q8 16 20 25.5t32 9.5q21 0 39 -15.5t18 -40.5q0 -13 -6 -25l-34 -72q-5 -11 -19.5 -20.5t-30.5 -9.5q-23 0 -40 16.5t-17 40.5q0 14 7 27z" />
    <glyph glyph-name="Ncaron" unicode="&#x147;" horiz-adv-x="724" 
d="M226 387v-291v-17q0 -39 -20.5 -62.5t-55.5 -23.5t-56 24t-21 62v17v488q0 22 2.5 33.5t10.5 22.5q22 33 60 33q21 0 36.5 -9t35.5 -35l280 -353v295v17q1 39 21.5 62t54.5 23q35 0 56 -23.5t21 -61.5v-17v-480q0 -28 -2 -40.5t-10 -23.5q-11 -17 -29.5 -27t-39.5 -10
t-35.5 9.5t-36.5 38.5zM257 783q-20 17 -20 45q0 23 16 39.5t40 16.5q19 0 33 -11l35 -29l34 29q5 5 15 8t20 3q23 0 40 -16.5t17 -40.5q0 -10 -3.5 -19.5t-9.5 -14.5l-75 -69q-5 -5 -16 -8t-20 -3q-11 0 -21.5 3t-16.5 8z" />
    <glyph glyph-name="ncaron" unicode="&#x148;" horiz-adv-x="543" 
d="M57 82v169q0 49 11 84.5t36 67.5q30 38 74 59t92 21q56 0 106.5 -28.5t80.5 -77.5q14 -23 21.5 -56.5t7.5 -73.5v-165v-15q-1 -34 -19 -54t-47 -20q-30 0 -48.5 20.5t-18.5 53.5v15v153q0 30 -2 43t-7 26q-9 20 -29.5 33t-43.5 13q-35 0 -58 -25t-23 -61v-25v-157v-15
q-1 -34 -19 -54t-48 -20q-29 0 -47.5 20.5t-18.5 53.5v15zM166 594q-20 17 -20 45q0 23 16 39.5t40 16.5q19 0 33 -11l35 -29l34 29q5 5 15 8t20 3q23 0 40 -16.5t17 -40.5q0 -10 -3.5 -19.5t-9.5 -14.5l-75 -69q-5 -5 -16 -8t-20 -3q-11 0 -21.5 3t-16.5 8z" />
    <glyph glyph-name="Omacron" unicode="&#x14c;" horiz-adv-x="749" 
d="M373 677q66 0 130 -27t115 -76q49 -47 75 -109.5t26 -132.5q0 -71 -27 -133t-74 -108.5t-109.5 -73.5t-133.5 -27q-72 0 -134.5 27t-109.5 73.5t-74 109t-27 133.5t27 134t73.5 109.5t109 73.5t133.5 27zM375 525q-39 0 -74.5 -15.5t-61.5 -41.5t-41.5 -61.5t-15.5 -74.5
t15 -74t41.5 -61t61.5 -41t75 -15t74.5 15t60.5 41t41 60.5t15 74.5t-15 75t-41 61t-61 41.5t-74 15.5zM292 723h-9q-38 0 -59 17.5t-21 48.5q0 30 20.5 48.5t53.5 18.5h15h165h15q34 -1 54 -19t20 -47q0 -30 -20.5 -48.5t-53.5 -18.5h-8h-172z" />
    <glyph glyph-name="omacron" unicode="&#x14d;" horiz-adv-x="551" 
d="M277 483q51 0 96 -19.5t78.5 -53t53 -78.5t19.5 -97q0 -50 -19.5 -94.5t-53.5 -78t-79 -53t-96 -19.5t-96.5 19t-79 52t-53.5 77t-20 94q0 53 19.5 99t53 79.5t79 53t98.5 19.5zM277 350q-24 0 -45 -9t-36.5 -24.5t-24 -36.5t-8.5 -46q0 -22 9 -42t24.5 -35t36 -23.5
t43.5 -8.5t43.5 9t36 24t24.5 35.5t9 43.5q0 24 -9 44.5t-24 35.5t-35.5 24t-43.5 9zM193 534h-9q-38 0 -59 17.5t-21 48.5q0 30 20.5 48.5t53.5 18.5h15h165h15q34 -1 54 -19t20 -47q0 -30 -20.5 -48.5t-53.5 -18.5h-8h-172z" />
    <glyph glyph-name="Obreve" unicode="&#x14e;" horiz-adv-x="749" 
d="M373 677q66 0 130 -27t115 -76q49 -47 75 -109.5t26 -132.5q0 -71 -27 -133t-74 -108.5t-109.5 -73.5t-133.5 -27q-72 0 -134.5 27t-109.5 73.5t-74 109t-27 133.5t27 134t73.5 109.5t109 73.5t133.5 27zM375 525q-39 0 -74.5 -15.5t-61.5 -41.5t-41.5 -61.5t-15.5 -74.5
t15 -74t41.5 -61t61.5 -41t75 -15t74.5 15t60.5 41t41 60.5t15 74.5t-15 75t-41 61t-61 41.5t-74 15.5zM303 864q11 0 21 -3.5t20 -12.5q17 -15 30 -15t30 15q10 9 20 12.5t21 3.5q23 0 38.5 -16t15.5 -39q0 -14 -7.5 -27.5t-26.5 -30.5q-17 -14 -42 -22.5t-49 -8.5t-49 8.5
t-42 22.5q-19 17 -26.5 30.5t-7.5 27.5q0 23 15.5 39t38.5 16z" />
    <glyph glyph-name="obreve" unicode="&#x14f;" horiz-adv-x="551" 
d="M277 483q51 0 96 -19.5t78.5 -53t53 -78.5t19.5 -97q0 -50 -19.5 -94.5t-53.5 -78t-79 -53t-96 -19.5t-96.5 19t-79 52t-53.5 77t-20 94q0 53 19.5 99t53 79.5t79 53t98.5 19.5zM277 350q-24 0 -45 -9t-36.5 -24.5t-24 -36.5t-8.5 -46q0 -22 9 -42t24.5 -35t36 -23.5
t43.5 -8.5t43.5 9t36 24t24.5 35.5t9 43.5q0 24 -9 44.5t-24 35.5t-35.5 24t-43.5 9zM204 675q11 0 21 -3.5t20 -12.5q17 -15 30 -15t30 15q10 9 20 12.5t21 3.5q23 0 38.5 -16t15.5 -39q0 -14 -7.5 -27.5t-26.5 -30.5q-17 -14 -42 -22.5t-49 -8.5t-49 8.5t-42 22.5
q-19 17 -26.5 30.5t-7.5 27.5q0 23 15.5 39t38.5 16z" />
    <glyph glyph-name="Ohungarumlaut" unicode="&#x150;" horiz-adv-x="749" 
d="M373 677q66 0 130 -27t115 -76q49 -47 75 -109.5t26 -132.5q0 -71 -27 -133t-74 -108.5t-109.5 -73.5t-133.5 -27q-72 0 -134.5 27t-109.5 73.5t-74 109t-27 133.5t27 134t73.5 109.5t109 73.5t133.5 27zM375 525q-39 0 -74.5 -15.5t-61.5 -41.5t-41.5 -61.5t-15.5 -74.5
t15 -74t41.5 -61t61.5 -41t75 -15t74.5 15t60.5 41t41 60.5t15 74.5t-15 75t-41 61t-61 41.5t-74 15.5zM334 730q-6 -7 -17 -11.5t-22 -4.5q-23 0 -40 17t-17 40t18 41l49 51q11 11 20 15.5t22 4.5q24 0 41 -17t17 -41q0 -21 -16 -37zM504 730q-6 -7 -17 -11.5t-22 -4.5
q-23 0 -40 17t-17 40t18 41l49 51q11 11 20 15.5t22 4.5q24 0 41 -17t17 -41q0 -21 -16 -37z" />
    <glyph glyph-name="ohungarumlaut" unicode="&#x151;" horiz-adv-x="551" 
d="M277 483q51 0 96 -19.5t78.5 -53t53 -78.5t19.5 -97q0 -50 -19.5 -94.5t-53.5 -78t-79 -53t-96 -19.5t-96.5 19t-79 52t-53.5 77t-20 94q0 53 19.5 99t53 79.5t79 53t98.5 19.5zM277 350q-24 0 -45 -9t-36.5 -24.5t-24 -36.5t-8.5 -46q0 -22 9 -42t24.5 -35t36 -23.5
t43.5 -8.5t43.5 9t36 24t24.5 35.5t9 43.5q0 24 -9 44.5t-24 35.5t-35.5 24t-43.5 9zM235 541q-6 -7 -17 -11.5t-22 -4.5q-23 0 -40 17t-17 40t18 41l49 51q11 11 20 15.5t22 4.5q24 0 41 -17t17 -41q0 -21 -16 -37zM405 541q-6 -7 -17 -11.5t-22 -4.5q-23 0 -40 17t-17 40
t18 41l49 51q11 11 20 15.5t22 4.5q24 0 41 -17t17 -41q0 -21 -16 -37z" />
    <glyph glyph-name="OE" unicode="&#x152;" horiz-adv-x="921" 
d="M545 0q-17 -1 -27 1.5t-23 9.5q-35 -11 -63 -16t-57 -5q-72 0 -134.5 27t-109.5 73.5t-74 109.5t-27 134q0 72 27 134.5t74 109t110.5 73t137.5 26.5q34 0 60.5 -6t55.5 -20q13 10 23 13t27 3h19h243q37 0 59 -10q15 -7 25 -24t10 -37q0 -19 -10.5 -36.5t-24.5 -24.5
q-8 -5 -25.5 -7.5t-32.5 -2.5h-196v-123h153h16q32 -1 51 -17.5t19 -45.5t-19 -46.5t-51 -17.5h-15h-154v-137h202q23 0 36 -1.5t23 -6.5q15 -7 25 -24t10 -37q0 -32 -21 -51t-56 -18h-16h-249h-21zM459 503q-21 11 -39.5 16t-41.5 5q-41 0 -76.5 -15t-61.5 -41t-41.5 -61
t-15.5 -75t15.5 -75t41.5 -61t61.5 -41t76.5 -15q23 0 41 4t40 15v344z" />
    <glyph glyph-name="oe" unicode="&#x153;" horiz-adv-x="858" 
d="M564 153q13 -13 32 -20.5t41 -7.5q38 0 75 28q12 10 21 13t22 3q28 0 47.5 -19t19.5 -47q0 -20 -12 -37t-39 -35q-27 -19 -63 -30t-71 -11q-26 0 -53 6t-51 16.5t-44.5 24.5t-32.5 31q-29 -35 -78.5 -56.5t-101.5 -21.5q-51 0 -96.5 19.5t-79.5 53t-53.5 78t-19.5 95.5
t19.5 96t53 78.5t79 53t96.5 19.5q109 0 181 -79q28 37 75.5 58t100.5 21q48 0 90.5 -18t73.5 -52q19 -20 30.5 -46t11.5 -48q0 -24 -12 -39t-42 -29zM694 324q-20 27 -60 27q-21 0 -41 -8t-35 -22t-24.5 -32t-9.5 -38zM276 349q-24 0 -45 -9t-36 -24.5t-24 -36.5t-9 -45
q0 -23 9 -43t24.5 -35t36.5 -23.5t44 -8.5t43.5 9t36 24t24.5 35.5t9 43.5q0 24 -9 44.5t-24 35.5t-35.5 24t-44.5 9z" />
    <glyph glyph-name="Racute" unicode="&#x154;" horiz-adv-x="595" 
d="M226 191v-95v-17q0 -39 -20.5 -62.5t-55.5 -23.5t-56 24t-21 62v17v464v18q2 89 89 89h18h103q59 0 98 -9.5t71 -30.5q52 -34 82 -88.5t30 -114.5q0 -70 -39.5 -121t-112.5 -77l114 -83q42 -32 42 -71q0 -32 -21.5 -55t-53.5 -23q-25 0 -53 22zM284 323q34 0 52.5 3.5
t32.5 11.5q22 14 34.5 36.5t12.5 48.5q0 29 -15.5 53t-41.5 37q-7 3 -13.5 5t-14.5 3t-20 1.5t-30 0.5h-55v-200h58zM342 730q-6 -7 -17 -11.5t-22 -4.5q-23 0 -40 17t-17 40t18 41l49 51q11 11 20 15.5t22 4.5q24 0 41 -17t17 -41q0 -21 -16 -37z" />
    <glyph glyph-name="racute" unicode="&#x155;" horiz-adv-x="376" 
d="M60 82v301q0 15 0.5 24.5t1 16t2.5 11.5t5 10q20 35 57 35q41 0 61 -39q48 42 103 42q18 0 33.5 -6.5t27 -17.5t18.5 -26t7 -32q0 -33 -23.5 -56t-56.5 -23q-14 0 -21.5 3t-26.5 14q-15 9 -26 9q-16 0 -22.5 -14t-6.5 -47v-205v-15q-1 -34 -18.5 -54t-47.5 -20
t-48.5 20.5t-18.5 53.5v15zM234 541q-6 -7 -17 -11.5t-22 -4.5q-23 0 -40 17t-17 40t18 41l49 51q11 11 20 15.5t22 4.5q24 0 41 -17t17 -41q0 -21 -16 -37z" />
    <glyph glyph-name="Rcommaaccent" unicode="&#x156;" horiz-adv-x="595" 
d="M226 191v-95v-17q0 -39 -20.5 -62.5t-55.5 -23.5t-56 24t-21 62v17v464v18q2 89 89 89h18h103q59 0 98 -9.5t71 -30.5q52 -34 82 -88.5t30 -114.5q0 -70 -39.5 -121t-112.5 -77l114 -83q42 -32 42 -71q0 -32 -21.5 -55t-53.5 -23q-25 0 -53 22zM284 323q34 0 52.5 3.5
t32.5 11.5q22 14 34.5 36.5t12.5 48.5q0 29 -15.5 53t-41.5 37q-7 3 -13.5 5t-14.5 3t-20 1.5t-30 0.5h-55v-200h58zM271 -81q8 16 20 25.5t32 9.5q21 0 39 -15.5t18 -40.5q0 -13 -6 -25l-34 -72q-5 -11 -19.5 -20.5t-30.5 -9.5q-23 0 -40 16.5t-17 40.5q0 14 7 27z" />
    <glyph glyph-name="rcommaaccent" unicode="&#x157;" horiz-adv-x="376" 
d="M60 82v301q0 15 0.5 24.5t1 16t2.5 11.5t5 10q20 35 57 35q41 0 61 -39q48 42 103 42q18 0 33.5 -6.5t27 -17.5t18.5 -26t7 -32q0 -33 -23.5 -56t-56.5 -23q-14 0 -21.5 3t-26.5 14q-15 9 -26 9q-16 0 -22.5 -14t-6.5 -47v-205v-15q-1 -34 -18.5 -54t-47.5 -20
t-48.5 20.5t-18.5 53.5v15zM153 -81q8 16 20 25.5t32 9.5q21 0 39 -15.5t18 -40.5q0 -13 -6 -25l-34 -72q-5 -11 -19.5 -20.5t-30.5 -9.5q-23 0 -40 16.5t-17 40.5q0 14 7 27z" />
    <glyph glyph-name="Rcaron" unicode="&#x158;" horiz-adv-x="595" 
d="M226 191v-95v-17q0 -39 -20.5 -62.5t-55.5 -23.5t-56 24t-21 62v17v464v18q2 89 89 89h18h103q59 0 98 -9.5t71 -30.5q52 -34 82 -88.5t30 -114.5q0 -70 -39.5 -121t-112.5 -77l114 -83q42 -32 42 -71q0 -32 -21.5 -55t-53.5 -23q-25 0 -53 22zM284 323q34 0 52.5 3.5
t32.5 11.5q22 14 34.5 36.5t12.5 48.5q0 29 -15.5 53t-41.5 37q-7 3 -13.5 5t-14.5 3t-20 1.5t-30 0.5h-55v-200h58zM192 783q-20 17 -20 45q0 23 16 39.5t40 16.5q19 0 33 -11l35 -29l34 29q5 5 15 8t20 3q23 0 40 -16.5t17 -40.5q0 -10 -3.5 -19.5t-9.5 -14.5l-75 -69
q-5 -5 -16 -8t-20 -3q-11 0 -21.5 3t-16.5 8z" />
    <glyph glyph-name="rcaron" unicode="&#x159;" horiz-adv-x="376" 
d="M60 82v301q0 15 0.5 24.5t1 16t2.5 11.5t5 10q20 35 57 35q41 0 61 -39q48 42 103 42q18 0 33.5 -6.5t27 -17.5t18.5 -26t7 -32q0 -33 -23.5 -56t-56.5 -23q-14 0 -21.5 3t-26.5 14q-15 9 -26 9q-16 0 -22.5 -14t-6.5 -47v-205v-15q-1 -34 -18.5 -54t-47.5 -20
t-48.5 20.5t-18.5 53.5v15zM84 594q-20 17 -20 45q0 23 16 39.5t40 16.5q19 0 33 -11l35 -29l34 29q5 5 15 8t20 3q23 0 40 -16.5t17 -40.5q0 -10 -3.5 -19.5t-9.5 -14.5l-75 -69q-5 -5 -16 -8t-20 -3q-11 0 -21.5 3t-16.5 8z" />
    <glyph glyph-name="Sacute" unicode="&#x15a;" horiz-adv-x="548" 
d="M221 299q-76 22 -114 49q-30 20 -46 54.5t-16 78.5q0 43 17 79t47.5 62t73.5 40.5t94 14.5q43 0 81.5 -10t67.5 -27.5t45.5 -41t16.5 -50.5q0 -29 -19.5 -50t-47.5 -21q-20 0 -38 13q-2 1 -11 8.5t-23 18.5q-40 32 -78 32q-31 0 -53 -18t-22 -43t17.5 -39t63.5 -25
q44 -11 76 -21.5t57 -22.5q53 -25 80.5 -69t27.5 -102q0 -49 -17.5 -89t-50 -69t-77 -45t-98.5 -16q-49 0 -93.5 13t-78 35.5t-53.5 52t-20 61.5q0 15 5.5 28t15 23t22 16t26.5 6q21 0 39 -8.5t43 -30.5q29 -27 54 -39t51 -12q34 0 56.5 20.5t22.5 51.5q0 26 -18.5 43.5
t-59.5 29.5zM319 730q-6 -7 -17 -11.5t-22 -4.5q-23 0 -40 17t-17 40t18 41l49 51q11 11 20 15.5t22 4.5q24 0 41 -17t17 -41q0 -21 -16 -37z" />
    <glyph glyph-name="sacute" unicode="&#x15b;" horiz-adv-x="446" 
d="M226 484q32 0 61 -7.5t50.5 -20.5t34.5 -30t13 -36q0 -23 -18 -41t-42 -18q-13 0 -25.5 4.5t-31.5 15.5q-24 14 -34 18.5t-21 4.5t-18 -7t-7 -16q0 -17 17 -27t63 -22q34 -9 52 -15.5t34 -14.5q31 -17 48 -47.5t17 -68.5q0 -37 -14 -67.5t-39.5 -52.5t-61 -34t-77.5 -12
q-39 0 -75 11t-64 29t-44.5 41.5t-16.5 49.5q0 27 18 47.5t43 20.5q17 0 33.5 -8.5t36.5 -25.5q15 -13 25.5 -21t19 -12.5t16.5 -6t18 -1.5q20 0 33 10t13 25q0 24 -44 34q-28 7 -61 18t-54 21q-33 17 -53 49t-20 69q0 42 25.5 78t68.5 53q34 13 81 13zM269 541
q-6 -7 -17 -11.5t-22 -4.5q-23 0 -40 17t-17 40t18 41l49 51q11 11 20 15.5t22 4.5q24 0 41 -17t17 -41q0 -21 -16 -37z" />
    <glyph glyph-name="Scircumflex" unicode="&#x15c;" horiz-adv-x="548" 
d="M221 299q-76 22 -114 49q-30 20 -46 54.5t-16 78.5q0 43 17 79t47.5 62t73.5 40.5t94 14.5q43 0 81.5 -10t67.5 -27.5t45.5 -41t16.5 -50.5q0 -29 -19.5 -50t-47.5 -21q-20 0 -38 13q-2 1 -11 8.5t-23 18.5q-40 32 -78 32q-31 0 -53 -18t-22 -43t17.5 -39t63.5 -25
q44 -11 76 -21.5t57 -22.5q53 -25 80.5 -69t27.5 -102q0 -49 -17.5 -89t-50 -69t-77 -45t-98.5 -16q-49 0 -93.5 13t-78 35.5t-53.5 52t-20 61.5q0 15 5.5 28t15 23t22 16t26.5 6q21 0 39 -8.5t43 -30.5q29 -27 54 -39t51 -12q34 0 56.5 20.5t22.5 51.5q0 26 -18.5 43.5
t-59.5 29.5zM275 753l-34 -29q-5 -5 -15 -8t-20 -3q-23 0 -40 16.5t-17 40.5q0 10 3.5 19.5t9.5 14.5l75 69q5 5 16 8t20 3q11 0 21.5 -3t16.5 -8l68 -59q20 -17 20 -45q0 -23 -16 -39.5t-40 -16.5q-19 0 -33 11z" />
    <glyph glyph-name="scircumflex" unicode="&#x15d;" horiz-adv-x="446" 
d="M226 484q32 0 61 -7.5t50.5 -20.5t34.5 -30t13 -36q0 -23 -18 -41t-42 -18q-13 0 -25.5 4.5t-31.5 15.5q-24 14 -34 18.5t-21 4.5t-18 -7t-7 -16q0 -17 17 -27t63 -22q34 -9 52 -15.5t34 -14.5q31 -17 48 -47.5t17 -68.5q0 -37 -14 -67.5t-39.5 -52.5t-61 -34t-77.5 -12
q-39 0 -75 11t-64 29t-44.5 41.5t-16.5 49.5q0 27 18 47.5t43 20.5q17 0 33.5 -8.5t36.5 -25.5q15 -13 25.5 -21t19 -12.5t16.5 -6t18 -1.5q20 0 33 10t13 25q0 24 -44 34q-28 7 -61 18t-54 21q-33 17 -53 49t-20 69q0 42 25.5 78t68.5 53q34 13 81 13zM225 564l-34 -29
q-5 -5 -15 -8t-20 -3q-23 0 -40 16.5t-17 40.5q0 10 3.5 19.5t9.5 14.5l75 69q5 5 16 8t20 3q11 0 21.5 -3t16.5 -8l68 -59q20 -17 20 -45q0 -23 -16 -39.5t-40 -16.5q-19 0 -33 11z" />
    <glyph glyph-name="Scedilla" unicode="&#x15e;" horiz-adv-x="548" 
d="M287 -143q-7 -8 -18 -12t-22 -4q-23 0 -39.5 17t-16.5 40q0 24 17 41l49 52q-46 2 -87 16t-72 36t-49.5 50t-18.5 59q0 15 5.5 28t15 23t22 16t26.5 6q21 0 39 -8.5t43 -30.5q29 -27 54 -39t51 -12q34 0 56.5 20.5t22.5 51.5q0 26 -18.5 43.5t-59.5 29.5l-66 19
q-76 22 -114 49q-30 20 -46 54.5t-16 78.5q0 43 17 79t47.5 62t73.5 40.5t94 14.5q43 0 81.5 -10t67.5 -27.5t45.5 -41t16.5 -50.5q0 -29 -19.5 -50t-47.5 -21q-20 0 -38 13q-2 1 -11 8.5t-23 18.5q-40 32 -78 32q-31 0 -53 -18t-22 -43t17.5 -39t63.5 -25q44 -11 76 -21.5
t57 -22.5q53 -25 80.5 -69t27.5 -102q0 -83 -49 -139.5t-132 -72.5l3 -3q9 -9 13 -20.5t4 -20.5q0 -21 -15 -39z" />
    <glyph glyph-name="scedilla" unicode="&#x15f;" horiz-adv-x="446" 
d="M236 -143q-7 -8 -18 -12t-22 -4q-23 0 -39.5 17t-16.5 40q0 24 17 41l50 52q-36 3 -68.5 14.5t-57.5 29.5t-39.5 40t-14.5 46q0 27 18 47.5t43 20.5q17 0 33.5 -8.5t36.5 -25.5q15 -13 25.5 -21t19 -12.5t16.5 -6t18 -1.5q20 0 33 10t13 25q0 24 -44 34q-28 7 -61 18
t-54 21q-33 17 -53 49t-20 69q0 42 25.5 78t68.5 53q34 13 81 13q32 0 61 -7.5t50.5 -20.5t34.5 -30t13 -36q0 -23 -18 -41t-42 -18q-13 0 -25.5 4.5t-31.5 15.5q-24 14 -34 18.5t-21 4.5t-18 -7t-7 -16q0 -17 17 -27t63 -22q34 -9 52 -15.5t34 -14.5q31 -17 48 -47.5
t17 -68.5q0 -60 -36.5 -102.5t-96.5 -56.5l3 -3q9 -9 13 -20.5t4 -20.5q0 -21 -15 -39z" />
    <glyph glyph-name="Scaron" unicode="&#x160;" horiz-adv-x="548" 
d="M221 299q-76 22 -114 49q-30 20 -46 54.5t-16 78.5q0 43 17 79t47.5 62t73.5 40.5t94 14.5q43 0 81.5 -10t67.5 -27.5t45.5 -41t16.5 -50.5q0 -29 -19.5 -50t-47.5 -21q-20 0 -38 13q-2 1 -11 8.5t-23 18.5q-40 32 -78 32q-31 0 -53 -18t-22 -43t17.5 -39t63.5 -25
q44 -11 76 -21.5t57 -22.5q53 -25 80.5 -69t27.5 -102q0 -49 -17.5 -89t-50 -69t-77 -45t-98.5 -16q-49 0 -93.5 13t-78 35.5t-53.5 52t-20 61.5q0 15 5.5 28t15 23t22 16t26.5 6q21 0 39 -8.5t43 -30.5q29 -27 54 -39t51 -12q34 0 56.5 20.5t22.5 51.5q0 26 -18.5 43.5
t-59.5 29.5zM169 783q-20 17 -20 45q0 23 16 39.5t40 16.5q19 0 33 -11l35 -29l34 29q5 5 15 8t20 3q23 0 40 -16.5t17 -40.5q0 -10 -3.5 -19.5t-9.5 -14.5l-75 -69q-5 -5 -16 -8t-20 -3q-11 0 -21.5 3t-16.5 8z" />
    <glyph glyph-name="scaron" unicode="&#x161;" horiz-adv-x="446" 
d="M226 484q32 0 61 -7.5t50.5 -20.5t34.5 -30t13 -36q0 -23 -18 -41t-42 -18q-13 0 -25.5 4.5t-31.5 15.5q-24 14 -34 18.5t-21 4.5t-18 -7t-7 -16q0 -17 17 -27t63 -22q34 -9 52 -15.5t34 -14.5q31 -17 48 -47.5t17 -68.5q0 -37 -14 -67.5t-39.5 -52.5t-61 -34t-77.5 -12
q-39 0 -75 11t-64 29t-44.5 41.5t-16.5 49.5q0 27 18 47.5t43 20.5q17 0 33.5 -8.5t36.5 -25.5q15 -13 25.5 -21t19 -12.5t16.5 -6t18 -1.5q20 0 33 10t13 25q0 24 -44 34q-28 7 -61 18t-54 21q-33 17 -53 49t-20 69q0 42 25.5 78t68.5 53q34 13 81 13zM119 594
q-20 17 -20 45q0 23 16 39.5t40 16.5q19 0 33 -11l35 -29l34 29q5 5 15 8t20 3q23 0 40 -16.5t17 -40.5q0 -10 -3.5 -19.5t-9.5 -14.5l-75 -69q-5 -5 -16 -8t-20 -3q-11 0 -21.5 3t-16.5 8z" />
    <glyph glyph-name="Tcommaaccent" unicode="&#x162;" horiz-adv-x="557" 
d="M202 96v431h-109h-15q-36 1 -57 19.5t-21 50.5q0 31 21.5 50.5t56.5 19.5h15h370h16q35 -1 56.5 -19.5t21.5 -50.5t-21.5 -51t-56.5 -19h-16h-108v-431v-17q-1 -39 -21.5 -62.5t-55.5 -23.5q-34 0 -55 24t-21 62v17zM242 -81q8 16 20 25.5t32 9.5q21 0 39 -15.5t18 -40.5
q0 -13 -6 -25l-34 -72q-5 -11 -19.5 -20.5t-30.5 -9.5q-23 0 -40 16.5t-17 40.5q0 14 7 27z" />
    <glyph glyph-name="tcommaaccent" unicode="&#x163;" horiz-adv-x="308" 
d="M83 82v271h-7q-32 0 -50.5 16t-18.5 44q0 62 76 60v71v15q1 35 19 54.5t48 19.5q29 0 47.5 -20.5t18.5 -53.5v-15v-71h15h14q30 -1 48 -17t18 -43q0 -26 -18.5 -43t-47.5 -17h-14h-15v-271v-15q-1 -34 -19 -54t-48 -20q-29 0 -47.5 20.5t-18.5 53.5v15zM119 -81
q8 16 20 25.5t32 9.5q21 0 39 -15.5t18 -40.5q0 -13 -6 -25l-34 -72q-5 -11 -19.5 -20.5t-30.5 -9.5q-23 0 -40 16.5t-17 40.5q0 14 7 27z" />
    <glyph glyph-name="Tcaron" unicode="&#x164;" horiz-adv-x="557" 
d="M202 96v431h-109h-15q-36 1 -57 19.5t-21 50.5q0 31 21.5 50.5t56.5 19.5h15h370h16q35 -1 56.5 -19.5t21.5 -50.5t-21.5 -51t-56.5 -19h-16h-108v-431v-17q-1 -39 -21.5 -62.5t-55.5 -23.5q-34 0 -55 24t-21 62v17zM173 783q-20 17 -20 45q0 23 16 39.5t40 16.5
q19 0 33 -11l35 -29l34 29q5 5 15 8t20 3q23 0 40 -16.5t17 -40.5q0 -10 -3.5 -19.5t-9.5 -14.5l-75 -69q-5 -5 -16 -8t-20 -3q-11 0 -21.5 3t-16.5 8z" />
    <glyph glyph-name="tcaron" unicode="&#x165;" horiz-adv-x="308" 
d="M83 82v271h-7q-32 0 -50.5 16t-18.5 44q0 62 76 60v71v15q1 35 19 54.5t48 19.5q29 0 47.5 -20.5t18.5 -53.5v-15v-71h15h14q30 -1 48 -17t18 -43q0 -26 -18.5 -43t-47.5 -17h-14h-15v-271v-15q-1 -34 -19 -54t-48 -20q-29 0 -47.5 20.5t-18.5 53.5v15zM264 642
q8 16 20 25.5t32 9.5q21 0 39 -15.5t18 -40.5q0 -13 -6 -25l-34 -72q-5 -11 -19.5 -20.5t-30.5 -9.5q-23 0 -40 16.5t-17 40.5q0 14 7 27z" />
    <glyph glyph-name="Tbar" unicode="&#x166;" horiz-adv-x="557" 
d="M355 289v-210q-1 -39 -21.5 -62.5t-55.5 -23.5q-34 0 -55 24t-21 62v210h-57q-35 1 -56 19.5t-21 50.5t21 51t56 19h57v98h-124q-36 1 -57 19.5t-21 50.5q0 31 21.5 50.5t56.5 19.5h401q35 -1 56.5 -19.5t21.5 -50.5t-21.5 -51t-56.5 -19h-124v-98h56q35 -1 56 -19.5
t21 -50.5t-21 -51t-56 -19h-56z" />
    <glyph glyph-name="tbar" unicode="&#x167;" horiz-adv-x="308" 
d="M216 191v-124q-1 -34 -19 -54t-48 -20q-29 0 -47.5 20.5t-18.5 53.5v124h-8q-29 0 -43.5 14t-14.5 39t14.5 39t46.5 14h5v56h-7q-32 0 -50.5 16t-18.5 44q0 60 76 60v86q1 35 19 54.5t48 19.5q29 0 47.5 -20.5t18.5 -53.5v-86h29q30 -1 48 -17t18 -43q0 -26 -18.5 -43
t-47.5 -17h-29v-56h17q29 0 43.5 -14t14.5 -39t-14.5 -39t-46.5 -14h-14z" />
    <glyph glyph-name="Utilde" unicode="&#x168;" horiz-adv-x="647" 
d="M53 571v17q0 39 20.5 62t55.5 23t56 -23.5t21 -61.5v-17v-311q0 -26 9 -48t24.5 -38t37 -25.5t46.5 -9.5q29 0 54.5 13.5t41.5 36.5q11 16 16 32.5t5 42.5v307v17q1 39 21.5 62t54.5 23q35 0 56 -23.5t21 -61.5v-17v-307q0 -58 -20.5 -108t-56.5 -87t-85 -58t-106 -21
t-106.5 21t-86.5 57.5t-58 86t-21 105.5v311zM233 732q-10 -5 -19 -5q-18 0 -30.5 13.5t-12.5 33.5q0 18 8 34t21.5 28.5t30.5 20t36 7.5q14 0 25 -3t32 -12q27 -13 46 -13q14 0 22 4l20 11q12 5 19 5q17 0 30.5 -14t13.5 -32t-8.5 -34.5t-22.5 -29t-32.5 -20t-38.5 -7.5
q-12 0 -22.5 3t-29.5 11q-17 8 -28 11t-20 3q-14 0 -21 -5z" />
    <glyph glyph-name="utilde" unicode="&#x169;" horiz-adv-x="543" 
d="M353 234v157v15q1 34 19 54t48 20q29 0 47.5 -20.5t18.5 -53.5v-15v-168q0 -49 -11 -85t-36 -67q-30 -38 -74 -59.5t-92 -21.5q-56 0 -106.5 28.5t-80.5 77.5q-14 23 -21.5 57t-7.5 73v165v15q1 34 18.5 54t47.5 20t48.5 -20.5t18.5 -53.5v-15v-153q0 -30 2 -43t7 -25
q9 -20 29.5 -33.5t43.5 -13.5q35 0 58 25t23 61v25zM181 543q-10 -5 -19 -5q-18 0 -30.5 13.5t-12.5 33.5q0 18 8 34t21.5 28.5t30.5 20t36 7.5q14 0 25 -3t32 -12q27 -13 46 -13q14 0 22 4l20 11q12 5 19 5q17 0 30.5 -14t13.5 -32t-8.5 -34.5t-22.5 -29t-32.5 -20
t-38.5 -7.5q-12 0 -22.5 3t-29.5 11q-17 8 -28 11t-20 3q-14 0 -21 -5z" />
    <glyph glyph-name="Umacron" unicode="&#x16a;" horiz-adv-x="647" 
d="M53 571v17q0 39 20.5 62t55.5 23t56 -23.5t21 -61.5v-17v-311q0 -26 9 -48t24.5 -38t37 -25.5t46.5 -9.5q29 0 54.5 13.5t41.5 36.5q11 16 16 32.5t5 42.5v307v17q1 39 21.5 62t54.5 23q35 0 56 -23.5t21 -61.5v-17v-307q0 -58 -20.5 -108t-56.5 -87t-85 -58t-106 -21
t-106.5 21t-86.5 57.5t-58 86t-21 105.5v311zM241 723h-9q-38 0 -59 17.5t-21 48.5q0 30 20.5 48.5t53.5 18.5h15h165h15q34 -1 54 -19t20 -47q0 -30 -20.5 -48.5t-53.5 -18.5h-8h-172z" />
    <glyph glyph-name="umacron" unicode="&#x16b;" horiz-adv-x="543" 
d="M353 234v157v15q1 34 19 54t48 20q29 0 47.5 -20.5t18.5 -53.5v-15v-168q0 -49 -11 -85t-36 -67q-30 -38 -74 -59.5t-92 -21.5q-56 0 -106.5 28.5t-80.5 77.5q-14 23 -21.5 57t-7.5 73v165v15q1 34 18.5 54t47.5 20t48.5 -20.5t18.5 -53.5v-15v-153q0 -30 2 -43t7 -25
q9 -20 29.5 -33.5t43.5 -13.5q35 0 58 25t23 61v25zM189 534h-9q-38 0 -59 17.5t-21 48.5q0 30 20.5 48.5t53.5 18.5h15h165h15q34 -1 54 -19t20 -47q0 -30 -20.5 -48.5t-53.5 -18.5h-8h-172z" />
    <glyph glyph-name="Ubreve" unicode="&#x16c;" horiz-adv-x="647" 
d="M53 571v17q0 39 20.5 62t55.5 23t56 -23.5t21 -61.5v-17v-311q0 -26 9 -48t24.5 -38t37 -25.5t46.5 -9.5q29 0 54.5 13.5t41.5 36.5q11 16 16 32.5t5 42.5v307v17q1 39 21.5 62t54.5 23q35 0 56 -23.5t21 -61.5v-17v-307q0 -58 -20.5 -108t-56.5 -87t-85 -58t-106 -21
t-106.5 21t-86.5 57.5t-58 86t-21 105.5v311zM252 864q11 0 21 -3.5t20 -12.5q17 -15 30 -15t30 15q10 9 20 12.5t21 3.5q23 0 38.5 -16t15.5 -39q0 -14 -7.5 -27.5t-26.5 -30.5q-17 -14 -42 -22.5t-49 -8.5t-49 8.5t-42 22.5q-19 17 -26.5 30.5t-7.5 27.5q0 23 15.5 39
t38.5 16z" />
    <glyph glyph-name="ubreve" unicode="&#x16d;" horiz-adv-x="543" 
d="M353 234v157v15q1 34 19 54t48 20q29 0 47.5 -20.5t18.5 -53.5v-15v-168q0 -49 -11 -85t-36 -67q-30 -38 -74 -59.5t-92 -21.5q-56 0 -106.5 28.5t-80.5 77.5q-14 23 -21.5 57t-7.5 73v165v15q1 34 18.5 54t47.5 20t48.5 -20.5t18.5 -53.5v-15v-153q0 -30 2 -43t7 -25
q9 -20 29.5 -33.5t43.5 -13.5q35 0 58 25t23 61v25zM200 675q11 0 21 -3.5t20 -12.5q17 -15 30 -15t30 15q10 9 20 12.5t21 3.5q23 0 38.5 -16t15.5 -39q0 -14 -7.5 -27.5t-26.5 -30.5q-17 -14 -42 -22.5t-49 -8.5t-49 8.5t-42 22.5q-19 17 -26.5 30.5t-7.5 27.5
q0 23 15.5 39t38.5 16z" />
    <glyph glyph-name="Uring" unicode="&#x16e;" horiz-adv-x="647" 
d="M53 571v17q0 39 20.5 62t55.5 23t56 -23.5t21 -61.5v-17v-311q0 -26 9 -48t24.5 -38t37 -25.5t46.5 -9.5q29 0 54.5 13.5t41.5 36.5q11 16 16 32.5t5 42.5v307v17q1 39 21.5 62t54.5 23q35 0 56 -23.5t21 -61.5v-17v-307q0 -58 -20.5 -108t-56.5 -87t-85 -58t-106 -21
t-106.5 21t-86.5 57.5t-58 86t-21 105.5v311zM324 893q19 0 36 -7t29.5 -19.5t19.5 -29.5t7 -36t-7.5 -35.5t-20 -29t-29.5 -19.5t-36 -7t-35.5 7t-29 19.5t-20 29t-7.5 34.5q0 39 27 66t66 27zM324 846q-20 0 -33 -13t-13 -33q0 -17 13 -30t32 -13t32.5 13t13.5 31
q0 19 -13 32t-32 13z" />
    <glyph glyph-name="uring" unicode="&#x16f;" horiz-adv-x="543" 
d="M353 234v157v15q1 34 19 54t48 20q29 0 47.5 -20.5t18.5 -53.5v-15v-168q0 -49 -11 -85t-36 -67q-30 -38 -74 -59.5t-92 -21.5q-56 0 -106.5 28.5t-80.5 77.5q-14 23 -21.5 57t-7.5 73v165v15q1 34 18.5 54t47.5 20t48.5 -20.5t18.5 -53.5v-15v-153q0 -30 2 -43t7 -25
q9 -20 29.5 -33.5t43.5 -13.5q35 0 58 25t23 61v25zM272 704q19 0 36 -7t29.5 -19.5t19.5 -29.5t7 -36t-7.5 -35.5t-20 -29t-29.5 -19.5t-36 -7t-35.5 7t-29 19.5t-20 29t-7.5 34.5q0 39 27 66t66 27zM272 657q-20 0 -33 -13t-13 -33q0 -17 13 -30t32 -13t32.5 13t13.5 31
q0 19 -13 32t-32 13z" />
    <glyph glyph-name="Uhungarumlaut" unicode="&#x170;" horiz-adv-x="647" 
d="M53 571v17q0 39 20.5 62t55.5 23t56 -23.5t21 -61.5v-17v-311q0 -26 9 -48t24.5 -38t37 -25.5t46.5 -9.5q29 0 54.5 13.5t41.5 36.5q11 16 16 32.5t5 42.5v307v17q1 39 21.5 62t54.5 23q35 0 56 -23.5t21 -61.5v-17v-307q0 -58 -20.5 -108t-56.5 -87t-85 -58t-106 -21
t-106.5 21t-86.5 57.5t-58 86t-21 105.5v311zM283 730q-6 -7 -17 -11.5t-22 -4.5q-23 0 -40 17t-17 40t18 41l49 51q11 11 20 15.5t22 4.5q24 0 41 -17t17 -41q0 -21 -16 -37zM453 730q-6 -7 -17 -11.5t-22 -4.5q-23 0 -40 17t-17 40t18 41l49 51q11 11 20 15.5t22 4.5
q24 0 41 -17t17 -41q0 -21 -16 -37z" />
    <glyph glyph-name="uhungarumlaut" unicode="&#x171;" horiz-adv-x="543" 
d="M353 234v157v15q1 34 19 54t48 20q29 0 47.5 -20.5t18.5 -53.5v-15v-168q0 -49 -11 -85t-36 -67q-30 -38 -74 -59.5t-92 -21.5q-56 0 -106.5 28.5t-80.5 77.5q-14 23 -21.5 57t-7.5 73v165v15q1 34 18.5 54t47.5 20t48.5 -20.5t18.5 -53.5v-15v-153q0 -30 2 -43t7 -25
q9 -20 29.5 -33.5t43.5 -13.5q35 0 58 25t23 61v25zM231 541q-6 -7 -17 -11.5t-22 -4.5q-23 0 -40 17t-17 40t18 41l49 51q11 11 20 15.5t22 4.5q24 0 41 -17t17 -41q0 -21 -16 -37zM401 541q-6 -7 -17 -11.5t-22 -4.5q-23 0 -40 17t-17 40t18 41l49 51q11 11 20 15.5
t22 4.5q24 0 41 -17t17 -41q0 -21 -16 -37z" />
    <glyph glyph-name="Uogonek" unicode="&#x172;" horiz-adv-x="647" 
d="M402 -143q-7 -8 -18 -12t-22 -4q-23 0 -39.5 17t-16.5 40q0 24 17 41l54 56q-13 -2 -25.5 -3.5t-26.5 -1.5q-57 0 -106.5 21t-86.5 57.5t-58 86t-21 105.5v328q0 39 20.5 62t55.5 23t56 -23.5t21 -61.5v-328q0 -26 9 -48t24.5 -38t37 -25.5t46.5 -9.5q29 0 54.5 13.5
t41.5 36.5q11 16 16 32.5t5 42.5v324q1 39 21.5 62t54.5 23q35 0 56 -23.5t21 -61.5v-324q0 -44 -12 -84t-34 -73t-53 -58t-68 -40q8 -2 15 -6t14 -9q9 -9 13 -20.5t4 -20.5q0 -21 -15 -39z" />
    <glyph glyph-name="uogonek" unicode="&#x173;" horiz-adv-x="543" 
d="M342 -143q-7 -8 -18 -12t-22 -4q-23 0 -39.5 17t-16.5 40q0 24 17 41l53 55v1q-23 -5 -43 -5q-56 0 -106.5 28.5t-80.5 77.5q-14 23 -21.5 57t-7.5 73v180q1 34 18.5 54t47.5 20t48.5 -20.5t18.5 -53.5v-168q0 -30 2 -43t7 -25q9 -20 29.5 -33.5t43.5 -13.5q35 0 58 25
t23 61v197q1 34 19 54t48 20q29 0 47.5 -20.5t18.5 -53.5v-183q0 -49 -11 -85t-36 -67q-16 -20 -35.5 -35t-42.5 -26q17 -3 34 -16q9 -9 13 -20.5t4 -20.5q0 -21 -15 -39z" />
    <glyph glyph-name="Wcircumflex" unicode="&#x174;" horiz-adv-x="904" 
d="M452 397l-122 -351q-8 -25 -27.5 -39t-45.5 -14q-29 0 -45.5 14t-27.5 46l-162 495l-5 16q-3 9 -4 18t-1 17q0 29 22 50.5t53 21.5t48.5 -17t30.5 -60l96 -314l112 339q8 24 28.5 38.5t48.5 14.5q26 0 45.5 -12.5t27.5 -33.5l118 -346l92 316q12 43 30 61t50 18
t54.5 -21.5t22.5 -52.5q0 -18 -6 -34l-5 -16l-159 -498q-20 -60 -73 -60q-25 0 -44 14t-28 39zM453 753l-34 -29q-5 -5 -15 -8t-20 -3q-23 0 -40 16.5t-17 40.5q0 10 3.5 19.5t9.5 14.5l75 69q5 5 16 8t20 3q11 0 21.5 -3t16.5 -8l68 -59q20 -17 20 -45q0 -23 -16 -39.5
t-40 -16.5q-19 0 -33 11z" />
    <glyph glyph-name="wcircumflex" unicode="&#x175;" horiz-adv-x="690" 
d="M138 48l-121 327l-5 14q-6 16 -6 32q0 26 19.5 44t45.5 18q47 0 64 -52l4 -13l64 -196l75 204q11 29 26.5 42.5t41.5 13.5q46 0 65 -50l77 -210l59 192l4 15q19 54 66 54q27 0 47 -19t20 -46q0 -16 -6 -32l-5 -14l-116 -325q-11 -30 -25.5 -42t-39.5 -12q-26 0 -40.5 12
t-27.5 42l-79 197l-76 -196q-13 -32 -26.5 -43.5t-39.5 -11.5q-45 0 -61 42zM346 564l-34 -29q-5 -5 -15 -8t-20 -3q-23 0 -40 16.5t-17 40.5q0 10 3.5 19.5t9.5 14.5l75 69q5 5 16 8t20 3q11 0 21.5 -3t16.5 -8l68 -59q20 -17 20 -45q0 -23 -16 -39.5t-40 -16.5
q-19 0 -33 11z" />
    <glyph glyph-name="Ycircumflex" unicode="&#x176;" horiz-adv-x="577" 
d="M212 96v189l-171 248q-17 25 -22.5 38t-5.5 28q0 30 22.5 52.5t54.5 22.5q38 0 67 -40l9 -14l122 -176l122 176l10 14q15 20 31 30t36 10q31 0 54 -22.5t23 -52.5q0 -25 -19 -52l-9 -14l-171 -248v-189v-17q-1 -39 -21.5 -62.5t-54.5 -23.5q-35 0 -56 24t-21 62v17z
M289 753l-34 -29q-5 -5 -15 -8t-20 -3q-23 0 -40 16.5t-17 40.5q0 10 3.5 19.5t9.5 14.5l75 69q5 5 16 8t20 3q11 0 21.5 -3t16.5 -8l68 -59q20 -17 20 -45q0 -23 -16 -39.5t-40 -16.5q-19 0 -33 11z" />
    <glyph glyph-name="ycircumflex" unicode="&#x177;" horiz-adv-x="490" 
d="M113 -21q10 -3 20 -3q24 0 39 40l14 36l-152 312l-7 13q-10 23 -10 40q0 26 20.5 44.5t46.5 18.5q43 0 64 -46l6 -13l98 -217l90 212l6 15q22 49 67 49q27 0 48 -20t21 -46q0 -11 -3.5 -22.5t-12.5 -30.5l-191 -402q-14 -29 -21.5 -42t-18.5 -27q-20 -25 -50 -39.5
t-62 -14.5q-24 0 -45.5 7t-37.5 19t-25.5 27.5t-9.5 33.5q0 26 17.5 45.5t41.5 19.5q15 0 28 -4zM247 564l-34 -29q-5 -5 -15 -8t-20 -3q-23 0 -40 16.5t-17 40.5q0 10 3.5 19.5t9.5 14.5l75 69q5 5 16 8t20 3q11 0 21.5 -3t16.5 -8l68 -59q20 -17 20 -45q0 -23 -16 -39.5
t-40 -16.5q-19 0 -33 11z" />
    <glyph glyph-name="Ydieresis" unicode="&#x178;" horiz-adv-x="577" 
d="M212 96v189l-171 248q-17 25 -22.5 38t-5.5 28q0 30 22.5 52.5t54.5 22.5q38 0 67 -40l9 -14l122 -176l122 176l10 14q15 20 31 30t36 10q31 0 54 -22.5t23 -52.5q0 -25 -19 -52l-9 -14l-171 -248v-189v-17q-1 -39 -21.5 -62.5t-54.5 -23.5q-35 0 -56 24t-21 62v17z
M385 869q32 0 53.5 -22t21.5 -53q0 -32 -22 -54t-54 -22t-54.5 22t-22.5 52q0 32 23 54.5t55 22.5zM195 869q32 0 53.5 -22t21.5 -53q0 -32 -22 -54t-54 -22t-54.5 22t-22.5 52q0 32 23 54.5t55 22.5z" />
    <glyph glyph-name="Zacute" unicode="&#x179;" horiz-adv-x="577" 
d="M111 0q-42 0 -65.5 20t-23.5 56q0 27 18 52l290 399h-217h-15q-36 1 -57 19.5t-21 50.5q0 31 21.5 50.5t56.5 19.5h15h328q23 0 36.5 -1.5t23.5 -5.5q20 -8 33 -28.5t13 -43.5q0 -26 -22 -56l-286 -392h225h16q35 -1 56 -19.5t21 -50.5t-21 -51t-56 -19h-16h-353z
M333 730q-6 -7 -17 -11.5t-22 -4.5q-23 0 -40 17t-17 40t18 41l49 51q11 11 20 15.5t22 4.5q24 0 41 -17t17 -41q0 -21 -16 -37z" />
    <glyph glyph-name="zacute" unicode="&#x17a;" horiz-adv-x="438" 
d="M99 0q-14 0 -23 1.5t-19 6.5q-16 8 -26.5 25.5t-10.5 34.5q0 7 1 12.5t4 11.5t9 14.5t15 20.5l172 224h-107h-14q-31 1 -49.5 17.5t-18.5 43.5q0 28 19 44.5t49 16.5h14h218q37 0 59.5 -19t22.5 -51q0 -19 -17 -42l-183 -239h123h14q31 -1 49 -17.5t18 -43.5t-18.5 -44
t-48.5 -17h-14h-238zM265 541q-6 -7 -17 -11.5t-22 -4.5q-23 0 -40 17t-17 40t18 41l49 51q11 11 20 15.5t22 4.5q24 0 41 -17t17 -41q0 -21 -16 -37z" />
    <glyph glyph-name="Zdotaccent" unicode="&#x17b;" horiz-adv-x="577" 
d="M111 0q-42 0 -65.5 20t-23.5 56q0 27 18 52l290 399h-217h-15q-36 1 -57 19.5t-21 50.5q0 31 21.5 50.5t56.5 19.5h15h328q23 0 36.5 -1.5t23.5 -5.5q20 -8 33 -28.5t13 -43.5q0 -26 -22 -56l-286 -392h225h16q35 -1 56 -19.5t21 -50.5t-21 -51t-56 -19h-16h-353z
M289 869q32 0 53.5 -22t21.5 -53q0 -32 -22 -54t-54 -22t-54.5 22t-22.5 52q0 32 23 54.5t55 22.5z" />
    <glyph glyph-name="zdotaccent" unicode="&#x17c;" horiz-adv-x="438" 
d="M99 0q-14 0 -23 1.5t-19 6.5q-16 8 -26.5 25.5t-10.5 34.5q0 7 1 12.5t4 11.5t9 14.5t15 20.5l172 224h-107h-14q-31 1 -49.5 17.5t-18.5 43.5q0 28 19 44.5t49 16.5h14h218q37 0 59.5 -19t22.5 -51q0 -19 -17 -42l-183 -239h123h14q31 -1 49 -17.5t18 -43.5t-18.5 -44
t-48.5 -17h-14h-238zM221 680q32 0 53.5 -22t21.5 -53q0 -32 -22 -54t-54 -22t-54.5 22t-22.5 52q0 32 23 54.5t55 22.5z" />
    <glyph glyph-name="Zcaron" unicode="&#x17d;" horiz-adv-x="577" 
d="M111 0q-42 0 -65.5 20t-23.5 56q0 27 18 52l290 399h-217h-15q-36 1 -57 19.5t-21 50.5q0 31 21.5 50.5t56.5 19.5h15h328q23 0 36.5 -1.5t23.5 -5.5q20 -8 33 -28.5t13 -43.5q0 -26 -22 -56l-286 -392h225h16q35 -1 56 -19.5t21 -50.5t-21 -51t-56 -19h-16h-353z
M183 783q-20 17 -20 45q0 23 16 39.5t40 16.5q19 0 33 -11l35 -29l34 29q5 5 15 8t20 3q23 0 40 -16.5t17 -40.5q0 -10 -3.5 -19.5t-9.5 -14.5l-75 -69q-5 -5 -16 -8t-20 -3q-11 0 -21.5 3t-16.5 8z" />
    <glyph glyph-name="zcaron" unicode="&#x17e;" horiz-adv-x="438" 
d="M99 0q-14 0 -23 1.5t-19 6.5q-16 8 -26.5 25.5t-10.5 34.5q0 7 1 12.5t4 11.5t9 14.5t15 20.5l172 224h-107h-14q-31 1 -49.5 17.5t-18.5 43.5q0 28 19 44.5t49 16.5h14h218q37 0 59.5 -19t22.5 -51q0 -19 -17 -42l-183 -239h123h14q31 -1 49 -17.5t18 -43.5t-18.5 -44
t-48.5 -17h-14h-238zM115 594q-20 17 -20 45q0 23 16 39.5t40 16.5q19 0 33 -11l35 -29l34 29q5 5 15 8t20 3q23 0 40 -16.5t17 -40.5q0 -10 -3.5 -19.5t-9.5 -14.5l-75 -69q-5 -5 -16 -8t-20 -3q-11 0 -21.5 3t-16.5 8z" />
    <glyph glyph-name="florin" unicode="&#x192;" horiz-adv-x="498" 
d="M114 74l51 286q-26 1 -42.5 19.5t-16.5 46.5q0 29 18 48.5t48 21.5h9l8 1l8 44q8 47 19.5 82.5t24.5 55.5q46 71 130 71q28 0 52.5 -7.5t42.5 -21t28.5 -31t10.5 -38.5q0 -34 -23 -57.5t-56 -23.5q-9 0 -17 2t-18 6q-10 5 -13.5 6t-7.5 1q-11 0 -14 -15l-2 -13l-3 -11
l-9 -50h14q80 0 80 -67q0 -72 -91 -72h-13h-14l-49 -277q-1 -7 -3.5 -18t-5 -23t-5 -23t-4.5 -19q-17 -63 -57.5 -97t-100.5 -34q-30 0 -56.5 9t-47 24t-32 35t-11.5 43q0 31 21 52.5t51 21.5q9 0 16 -2t21 -8q23 -11 33 -11q19 0 25 32z" />
    <glyph glyph-name="Scommaaccent" unicode="&#x218;" horiz-adv-x="548" 
d="M221 299q-76 22 -114 49q-30 20 -46 54.5t-16 78.5q0 43 17 79t47.5 62t73.5 40.5t94 14.5q43 0 81.5 -10t67.5 -27.5t45.5 -41t16.5 -50.5q0 -29 -19.5 -50t-47.5 -21q-20 0 -38 13q-2 1 -11 8.5t-23 18.5q-40 32 -78 32q-31 0 -53 -18t-22 -43t17.5 -39t63.5 -25
q44 -11 76 -21.5t57 -22.5q53 -25 80.5 -69t27.5 -102q0 -49 -17.5 -89t-50 -69t-77 -45t-98.5 -16q-49 0 -93.5 13t-78 35.5t-53.5 52t-20 61.5q0 15 5.5 28t15 23t22 16t26.5 6q21 0 39 -8.5t43 -30.5q29 -27 54 -39t51 -12q34 0 56.5 20.5t22.5 51.5q0 26 -18.5 43.5
t-59.5 29.5zM238 -81q8 16 20 25.5t32 9.5q21 0 39 -15.5t18 -40.5q0 -13 -6 -25l-34 -72q-5 -11 -19.5 -20.5t-30.5 -9.5q-23 0 -40 16.5t-17 40.5q0 14 7 27z" />
    <glyph glyph-name="scommaaccent" unicode="&#x219;" horiz-adv-x="446" 
d="M226 484q32 0 61 -7.5t50.5 -20.5t34.5 -30t13 -36q0 -23 -18 -41t-42 -18q-13 0 -25.5 4.5t-31.5 15.5q-24 14 -34 18.5t-21 4.5t-18 -7t-7 -16q0 -17 17 -27t63 -22q34 -9 52 -15.5t34 -14.5q31 -17 48 -47.5t17 -68.5q0 -37 -14 -67.5t-39.5 -52.5t-61 -34t-77.5 -12
q-39 0 -75 11t-64 29t-44.5 41.5t-16.5 49.5q0 27 18 47.5t43 20.5q17 0 33.5 -8.5t36.5 -25.5q15 -13 25.5 -21t19 -12.5t16.5 -6t18 -1.5q20 0 33 10t13 25q0 24 -44 34q-28 7 -61 18t-54 21q-33 17 -53 49t-20 69q0 42 25.5 78t68.5 53q34 13 81 13zM188 -81
q8 16 20 25.5t32 9.5q21 0 39 -15.5t18 -40.5q0 -13 -6 -25l-34 -72q-5 -11 -19.5 -20.5t-30.5 -9.5q-23 0 -40 16.5t-17 40.5q0 14 7 27z" />
    <glyph glyph-name="uni021A" unicode="&#x21a;" horiz-adv-x="557" 
d="M202 96v431h-109h-15q-36 1 -57 19.5t-21 50.5q0 31 21.5 50.5t56.5 19.5h15h370h16q35 -1 56.5 -19.5t21.5 -50.5t-21.5 -51t-56.5 -19h-16h-108v-431v-17q-1 -39 -21.5 -62.5t-55.5 -23.5q-34 0 -55 24t-21 62v17zM242 -81q8 16 20 25.5t32 9.5q21 0 39 -15.5t18 -40.5
q0 -13 -6 -25l-34 -72q-5 -11 -19.5 -20.5t-30.5 -9.5q-23 0 -40 16.5t-17 40.5q0 14 7 27z" />
    <glyph glyph-name="uni021B" unicode="&#x21b;" horiz-adv-x="308" 
d="M83 82v271h-7q-32 0 -50.5 16t-18.5 44q0 62 76 60v71v15q1 35 19 54.5t48 19.5q29 0 47.5 -20.5t18.5 -53.5v-15v-71h15h14q30 -1 48 -17t18 -43q0 -26 -18.5 -43t-47.5 -17h-14h-15v-271v-15q-1 -34 -19 -54t-48 -20q-29 0 -47.5 20.5t-18.5 53.5v15zM119 -81
q8 16 20 25.5t32 9.5q21 0 39 -15.5t18 -40.5q0 -13 -6 -25l-34 -72q-5 -11 -19.5 -20.5t-30.5 -9.5q-23 0 -40 16.5t-17 40.5q0 14 7 27z" />
    <glyph glyph-name="dotlessj" unicode="&#x237;" horiz-adv-x="257" 
d="M28 -28q32 20 32 95v324v15q1 34 19 54t48 20t48 -20.5t18 -53.5v-15v-354v-34t-1 -22t-2 -15.5t-4 -15.5q-6 -24 -20 -45.5t-33 -37.5t-41 -25t-44 -9q-35 0 -56.5 19t-21.5 48q0 35 32 55z" />
    <glyph glyph-name="circumflex" unicode="&#x2c6;" 
d="M251 564l-34 -29q-5 -5 -15 -8t-20 -3q-23 0 -40 16.5t-17 40.5q0 10 3.5 19.5t9.5 14.5l75 69q5 5 16 8t20 3q11 0 21.5 -3t16.5 -8l68 -59q20 -17 20 -45q0 -23 -16 -39.5t-40 -16.5q-19 0 -33 11z" />
    <glyph glyph-name="caron" unicode="&#x2c7;" 
d="M145 594q-20 17 -20 45q0 23 16 39.5t40 16.5q19 0 33 -11l35 -29l34 29q5 5 15 8t20 3q23 0 40 -16.5t17 -40.5q0 -10 -3.5 -19.5t-9.5 -14.5l-75 -69q-5 -5 -16 -8t-20 -3q-11 0 -21.5 3t-16.5 8z" />
    <glyph glyph-name="uni02C9" unicode="&#x2c9;" 
d="M168 534h-9q-38 0 -59 17.5t-21 48.5q0 30 20.5 48.5t53.5 18.5h15h165h15q34 -1 54 -19t20 -47q0 -30 -20.5 -48.5t-53.5 -18.5h-8h-172z" />
    <glyph glyph-name="breve" unicode="&#x2d8;" 
d="M179 675q11 0 21 -3.5t20 -12.5q17 -15 30 -15t30 15q10 9 20 12.5t21 3.5q23 0 38.5 -16t15.5 -39q0 -14 -7.5 -27.5t-26.5 -30.5q-17 -14 -42 -22.5t-49 -8.5t-49 8.5t-42 22.5q-19 17 -26.5 30.5t-7.5 27.5q0 23 15.5 39t38.5 16z" />
    <glyph glyph-name="dotaccent" unicode="&#x2d9;" 
d="M251 680q32 0 53.5 -22t21.5 -53q0 -32 -22 -54t-54 -22t-54.5 22t-22.5 52q0 32 23 54.5t55 22.5z" />
    <glyph glyph-name="ring" unicode="&#x2da;" 
d="M251 704q19 0 36 -7t29.5 -19.5t19.5 -29.5t7 -36t-7.5 -35.5t-20 -29t-29.5 -19.5t-36 -7t-35.5 7t-29 19.5t-20 29t-7.5 34.5q0 39 27 66t66 27zM251 657q-20 0 -33 -13t-13 -33q0 -17 13 -30t32 -13t32.5 13t13.5 31q0 19 -13 32t-32 13z" />
    <glyph glyph-name="ogonek" unicode="&#x2db;" 
d="M263 -143q-7 -8 -18 -12t-22 -4q-23 0 -39.5 17t-16.5 40q0 24 17 41l53 55q7 8 18 12t22 4q21 0 39 -16q9 -9 13 -20.5t4 -20.5q0 -21 -15 -39z" />
    <glyph glyph-name="tilde" unicode="&#x2dc;" 
d="M160 543q-10 -5 -19 -5q-18 0 -30.5 13.5t-12.5 33.5q0 18 8 34t21.5 28.5t30.5 20t36 7.5q14 0 25 -3t32 -12q27 -13 46 -13q14 0 22 4l20 11q12 5 19 5q17 0 30.5 -14t13.5 -32t-8.5 -34.5t-22.5 -29t-32.5 -20t-38.5 -7.5q-12 0 -22.5 3t-29.5 11q-17 8 -28 11t-20 3
q-14 0 -21 -5z" />
    <glyph glyph-name="hungarumlaut" unicode="&#x2dd;" 
d="M210 541q-6 -7 -17 -11.5t-22 -4.5q-23 0 -40 17t-17 40t18 41l49 51q11 11 20 15.5t22 4.5q24 0 41 -17t17 -41q0 -21 -16 -37zM380 541q-6 -7 -17 -11.5t-22 -4.5q-23 0 -40 17t-17 40t18 41l49 51q11 11 20 15.5t22 4.5q24 0 41 -17t17 -41q0 -21 -16 -37z" />
    <glyph glyph-name="uni0394" unicode="&#x394;" horiz-adv-x="627" 
d="M17 74l207 606h181l204 -639v-41h-592v74zM469 107l-158 474h-4l-161 -474h323z" />
    <glyph glyph-name="uni03A9" unicode="&#x3a9;" horiz-adv-x="685" 
d="M34 113h121v4q-20 18 -40 44.5t-35.5 59.5t-25.5 72t-10 84q0 67 22 125.5t62.5 102t96 68.5t123.5 25q70 0 124 -26t91.5 -69t57 -99.5t19.5 -117.5q0 -48 -11 -89.5t-27.5 -75.5t-36.5 -60t-38 -44v-4h123v-113h-278v88q50 43 82.5 112t32.5 156q0 42 -9.5 82
t-27.5 71.5t-45 50.5t-61 19q-35 0 -62 -19t-45.5 -50.5t-28.5 -71t-10 -81.5q0 -38 8.5 -78.5t24 -77t36.5 -66t46 -47.5v-88h-279v113z" />
    <glyph glyph-name="uni03BC" unicode="&#x3bc;" horiz-adv-x="543" 
d="M55 500h149v-288q0 -49 16 -76t51 -27q29 0 43.5 17t19.5 36l3 338h149v-330q0 -51 1 -94.5t3 -75.5h-128l-8 61h-2q-5 -12 -14 -23.5t-22.5 -21.5t-31 -16t-39.5 -6q-17 0 -32 6.5t-26 16.5v-207h-132v690z" />
    <glyph glyph-name="pi" unicode="&#x3c0;" horiz-adv-x="580" 
d="M89 402h-70v113h541v-113h-80v-229q0 -29 6 -50.5t32 -21.5q11 0 21.5 3t21.5 8v-94q-50 -27 -105 -27q-54 0 -80.5 25.5t-35.5 66.5l-7 58v261h-97v-402h-147v402z" />
    <glyph glyph-name="endash" unicode="&#x2013;" horiz-adv-x="564" 
d="M147 198q-38 0 -59 17.5t-21 48.5q0 30 20.5 48.5t53.5 18.5h15h252h15q34 -1 54 -19t20 -47q0 -30 -20.5 -48.5t-53.5 -18.5h-8h-259h-9z" />
    <glyph glyph-name="emdash" unicode="&#x2014;" horiz-adv-x="1000" 
d="M147 198q-38 0 -59 17.5t-21 48.5q0 30 20.5 48.5t53.5 18.5h15h689h15q34 -1 54 -19t20 -47q0 -30 -20.5 -48.5t-53.5 -18.5h-9h-695h-9z" />
    <glyph glyph-name="quoteleft" unicode="&#x2018;" horiz-adv-x="277" 
d="M99 642q8 21 17 30t23 9t26 -11t12 -24q0 -9 -8 -30l-6 -18l5 -3q49 -24 49 -72q0 -32 -23.5 -55.5t-55.5 -23.5q-16 0 -30.5 6t-25 16.5t-16.5 24.5t-6 30t9 43z" />
    <glyph glyph-name="quoteright" unicode="&#x2019;" horiz-adv-x="277" 
d="M114 526l-5 3q-49 24 -49 72q0 32 23.5 55.5t55.5 23.5q16 0 30.5 -6t25 -16.5t16.5 -24.5t6 -30q0 -17 -10 -43l-29 -78q-8 -21 -17 -30t-23 -9t-26 11t-12 24t8 30z" />
    <glyph glyph-name="quotesinglbase" unicode="&#x201a;" horiz-adv-x="277" 
d="M114 -4l-5 3q-49 24 -49 72q0 32 23.5 55.5t55.5 23.5q16 0 30.5 -6t25 -16.5t16.5 -24.5t6 -30q0 -17 -10 -43l-29 -78q-8 -21 -17 -30t-23 -9t-26 11t-12 24t8 30z" />
    <glyph glyph-name="quotedblleft" unicode="&#x201c;" horiz-adv-x="474" 
d="M295 642q8 21 17.5 30t23.5 9t26 -11t12 -24q0 -9 -8 -30l-7 -18l6 -3q49 -24 49 -72q0 -32 -23.5 -55.5t-55.5 -23.5q-16 0 -30.5 6t-25 16.5t-16.5 24.5t-6 30t9 43zM99 642q8 21 17 30t23 9t26 -11t12 -24q0 -9 -8 -30l-6 -18l5 -3q49 -24 49 -72q0 -32 -23.5 -55.5
t-55.5 -23.5q-16 0 -30.5 6t-25 16.5t-16.5 24.5t-6 30t9 43z" />
    <glyph glyph-name="quotedblright" unicode="&#x201d;" horiz-adv-x="474" 
d="M114 526l-5 3q-49 24 -49 72q0 32 23.5 55.5t55.5 23.5q16 0 30.5 -6t25 -16.5t16.5 -24.5t6 -30q0 -17 -10 -43l-29 -78q-8 -21 -17 -30t-23 -9t-26 11t-12 24t8 30zM311 526l-5 3q-49 23 -49 72q0 32 23 55.5t55 23.5q16 0 30.5 -6t25 -16.5t17 -24.5t6.5 -30
q0 -17 -10 -43l-29 -78q-8 -21 -17 -30t-24 -9q-14 0 -25.5 11t-11.5 24q0 12 7 30z" />
    <glyph glyph-name="quotedblbase" unicode="&#x201e;" horiz-adv-x="474" 
d="M114 -5l-5 3q-49 24 -49 72q0 16 6.5 30.5t17 25.5t25 17.5t30.5 6.5q32 0 55 -23t23 -55q0 -17 -10 -43l-29 -78q-8 -21 -17 -29.5t-23 -8.5t-26 10.5t-12 24.5q0 11 8 30zM311 -5l-5 3q-49 23 -49 72q0 32 23 56t55 24t55.5 -23t23.5 -55q0 -17 -10 -43l-29 -78
q-8 -21 -17 -29.5t-24 -8.5q-14 0 -25.5 10.5t-11.5 24.5q0 10 7 30z" />
    <glyph glyph-name="dagger" unicode="&#x2020;" horiz-adv-x="597" 
d="M365 -41q-1 -35 -19 -55.5t-48 -20.5q-29 0 -47.5 21t-18.5 55v478h-144q-32 1 -50 17t-18 43q0 26 18.5 43t49.5 17h144v144q0 34 18.5 55t47.5 21q30 0 48 -20.5t19 -55.5v-144h144q31 -1 49.5 -17t18.5 -43t-19 -43.5t-49 -16.5h-144v-478z" />
    <glyph glyph-name="daggerdbl" unicode="&#x2021;" horiz-adv-x="597" 
d="M365 -41q-1 -35 -19 -55.5t-48 -20.5q-29 0 -47.5 21t-18.5 55v144h-144q-31 0 -49.5 17t-18.5 43q0 27 18 43t50 17h144v214h-144q-32 1 -50 17t-18 43q0 26 18.5 43t49.5 17h144v144q0 34 18.5 55t47.5 21q30 0 48 -20.5t19 -55.5v-144h144q31 -1 49.5 -17t18.5 -43
t-19 -43.5t-49 -16.5h-144v-214h144q30 0 49 -16.5t19 -43.5t-18.5 -43t-49.5 -17h-144v-144z" />
    <glyph glyph-name="bullet" unicode="&#x2022;" horiz-adv-x="453" 
d="M227 160q-36 0 -67.5 13.5t-55.5 37t-37.5 55t-13.5 67.5t13.5 67.5t37.5 55.5t55.5 37.5t67.5 13.5t67.5 -13.5t55 -37.5t37 -55.5t13.5 -67.5t-13.5 -67.5t-37 -55t-55 -37t-67.5 -13.5z" />
    <glyph glyph-name="ellipsis" unicode="&#x2026;" horiz-adv-x="1000" 
d="M167 -10q-36 0 -61.5 25.5t-25.5 61.5t25.5 61t61.5 25t61 -25t25 -61t-25 -61.5t-61 -25.5zM500 -10q-36 0 -61 25.5t-25 61.5t25 61t61 25t61.5 -25t25.5 -61t-25.5 -61.5t-61.5 -25.5zM833 -10q-36 0 -61 25.5t-25 61.5t25 61t61 25t61.5 -25t25.5 -61t-25.5 -61.5
t-61.5 -25.5z" />
    <glyph glyph-name="perthousand" unicode="&#x2030;" horiz-adv-x="1095" 
d="M291 40q-23 -49 -52 -49q-17 0 -29.5 11.5t-12.5 26.5q0 9 3.5 20.5t8.5 24.5l6 12l245 526q17 35 30 48.5t32 13.5q17 0 27.5 -10t10.5 -27q0 -8 -3.5 -21t-8.5 -25l-4 -7l-247 -531zM554 299q32 0 60 -12t49 -32.5t33 -48.5t12 -59q0 -32 -12 -60t-32.5 -48.5
t-48.5 -32.5t-60 -12t-59.5 12t-48.5 32.5t-33 48.5t-12 60q0 31 12 59t33 48.5t48.5 32.5t58.5 12zM200 673q32 0 60 -12t48.5 -32.5t32.5 -48.5t12 -59q0 -32 -12 -60t-32.5 -48.5t-48.5 -32.5t-59 -12q-32 0 -60 12t-49 32.5t-33 48t-12 59.5q0 31 12 59t33 49t48.5 33
t59.5 12zM895 299q32 0 60 -12t49 -32.5t33 -48.5t12 -59q0 -32 -12 -60t-32.5 -48.5t-48.5 -32.5t-60 -12t-59.5 12t-48.5 32.5t-33 48.5t-12 60q0 31 12 59t33 48.5t48.5 32.5t58.5 12zM554 208q-25 0 -43 -17.5t-18 -42.5q0 -26 18 -44.5t44 -18.5t43.5 18t17.5 44
t-18 43.5t-44 17.5zM200 582q-26 0 -44 -18t-18 -43q0 -26 18 -44t44 -18t43.5 17.5t17.5 43.5t-17.5 44t-43.5 18zM895 208q-25 0 -43 -17.5t-18 -42.5q0 -26 18 -44.5t44 -18.5t43.5 18t17.5 44t-18 43.5t-44 17.5z" />
    <glyph glyph-name="guilsinglleft" unicode="&#x2039;" horiz-adv-x="235" 
d="M37 216l-7 11q-14 23 -14 40q0 8 4.5 19t11.5 21l53 78l7 11q22 32 53 32q24 0 41.5 -17.5t17.5 -40.5q0 -18 -13 -39l-7 -11l-34 -53l34 -53l8 -11q13 -23 13 -41q0 -23 -18 -40.5t-43 -17.5q-20 0 -32.5 9t-29.5 35z" />
    <glyph glyph-name="guilsinglright" unicode="&#x203a;" horiz-adv-x="235" 
d="M51 214l34 53l-34 53l-7 11q-13 21 -13 39q0 23 18 40.5t42 17.5q32 0 53 -32l7 -11l53 -78q7 -10 11 -21t4 -19q0 -19 -13 -40l-7 -11l-46 -68q-17 -26 -29.5 -35t-31.5 -9q-25 0 -43.5 17.5t-18.5 40.5q0 9 4 20t10 21z" />
    <glyph glyph-name="fraction" unicode="&#x2044;" horiz-adv-x="348" 
d="M87 40q-25 -49 -53 -49q-17 0 -29 11.5t-12 26.5q0 19 12 45l6 12l244 526q17 35 30.5 48.5t31.5 13.5q17 0 28 -10t11 -27q0 -8 -3.5 -21t-9.5 -25l-3 -7l-247 -531z" />
    <glyph glyph-name="Euro" unicode="&#x20ac;" horiz-adv-x="588" 
d="M469 160q16 6 31 6q31 0 53 -22t22 -54t-19.5 -49.5t-47.5 -28.5q-26 -10 -58.5 -16t-61.5 -6q-63 0 -119 21t-100.5 58t-75 87.5t-42.5 109.5h-11q-36 0 -57 19.5t-21 50.5q0 33 22 51.5t60 18.5h8q12 57 42.5 106.5t74.5 85.5t99.5 57t117.5 21q22 0 44.5 -3.5
t43.5 -8.5q17 -5 33.5 -11t29 -16t20.5 -24.5t8 -34.5q0 -31 -22 -52.5t-52 -21.5q-16 0 -30 5l-21 7q-13 5 -27 6.5t-29 1.5q-58 0 -105.5 -33t-69.5 -85h141q38 0 60 -18.5t22 -51.5q0 -31 -22 -51q-11 -11 -26.5 -15t-44.5 -4h-132q21 -59 72.5 -91.5t118.5 -32.5
q20 0 37 6z" />
    <glyph glyph-name="afii61289" unicode="&#x2113;" horiz-adv-x="527" 
d="M245 356q37 44 57.5 84t20.5 85q0 32 -10 49.5t-24 17.5q-18 0 -31 -26.5t-13 -97.5v-112zM25 191q20 13 40.5 28t39.5 30v188q0 67 13 115t36.5 79t56.5 45t73 14q66 0 107.5 -43t41.5 -120q0 -44 -12.5 -81.5t-36.5 -73.5t-59 -72t-80 -77v-17q0 -94 70 -94q36 0 63 22
t47 46l67 -65q-39 -66 -94.5 -95.5t-115.5 -29.5q-73 0 -115 33.5t-58 111.5l-1 8l-22.5 -15t-21.5 -15z" />
    <glyph glyph-name="trademark" unicode="&#x2122;" horiz-adv-x="684" 
d="M522 358q-8 -28 -35 -28q-26 0 -38 35l-41 130l-26 -121l-3 -8q-5 -17 -16 -26.5t-26 -9.5q-17 0 -29 12t-12 30q0 7 2 13q0 2 0.5 4.5t0.5 4.5l59 246q10 34 40 34q25 0 39 -30q13 -36 24.5 -70.5t25.5 -69.5l48 134q13 36 40 36q15 0 26 -9.5t16 -26.5q14 -60 29 -122
t29 -122l2 -8q2 -4 2 -8v-8q0 -17 -12 -28.5t-28 -11.5q-33 0 -41 36l-2 8q-8 30 -15 60t-14 59l-43 -131l-2 -5v1zM104 596h-58q-19 0 -30 10t-11 27t11.5 28t29.5 11h200q19 -1 30.5 -11t11.5 -28q0 -17 -12 -27t-30 -10h-58v-220q-1 -21 -12 -33.5t-31 -12.5
q-17 0 -29 12.5t-12 33.5v220z" />
    <glyph glyph-name="Omega" unicode="&#x2126;" horiz-adv-x="685" 
d="M34 113h121v4q-20 18 -40 44.5t-35.5 59.5t-25.5 72t-10 84q0 67 22 125.5t62.5 102t96 68.5t123.5 25q70 0 124 -26t91.5 -69t57 -99.5t19.5 -117.5q0 -48 -11 -89.5t-27.5 -75.5t-36.5 -60t-38 -44v-4h123v-113h-278v88q50 43 82.5 112t32.5 156q0 42 -9.5 82
t-27.5 71.5t-45 50.5t-61 19q-35 0 -62 -19t-45.5 -50.5t-28.5 -71t-10 -81.5q0 -38 8.5 -78.5t24 -77t36.5 -66t46 -47.5v-88h-279v113z" />
    <glyph glyph-name="estimated" unicode="&#x212e;" horiz-adv-x="727" 
d="M645 158q-29 -45 -58 -76.5t-62.5 -52t-73 -30t-88.5 -9.5q-73 0 -132 26.5t-101 73t-64.5 109t-22.5 134.5t22.5 134.5t64.5 109t101 73t132 26.5q72 0 130.5 -25.5t100.5 -71t65.5 -108.5t24.5 -138h-501v-225q74 -74 180 -74q78 0 135 35.5t104 113.5zM544 378v180
q-77 74 -182 74q-107 0 -179 -74v-180h361z" />
    <glyph glyph-name="partialdiff" unicode="&#x2202;" horiz-adv-x="524" 
d="M373 382v18q0 52 -12 99.5t-33.5 83.5t-51 57.5t-65.5 21.5q-46 0 -77 -12.5t-48 -23.5l-37 86q11 7 27.5 16t38.5 17.5t50 14t61 5.5q56 0 105.5 -28.5t86 -80.5t58 -123.5t21.5 -157.5q0 -98 -22.5 -170.5t-60 -120.5t-86.5 -71.5t-102 -23.5q-50 0 -87 18.5t-61.5 49
t-37 69.5t-12.5 81q0 52 15.5 97t43 78.5t66 52.5t84.5 19q26 0 47.5 -6.5t38.5 -17t29 -23.5t20 -25h1zM239 91q24 0 45 15.5t37 42t26.5 60.5t13.5 71q-9 28 -34 51.5t-63 23.5q-23 0 -43 -11.5t-34.5 -31t-23 -47t-8.5 -58.5q0 -60 24.5 -88t59.5 -28z" />
    <glyph glyph-name="Delta" unicode="&#x2206;" horiz-adv-x="627" 
d="M17 74l207 606h181l204 -639v-41h-592v74zM469 107l-158 474h-4l-161 -474h323z" />
    <glyph glyph-name="product" unicode="&#x220f;" horiz-adv-x="703" 
d="M60 763h583v-893h-121v786h-341v-786h-121v893z" />
    <glyph glyph-name="summation" unicode="&#x2211;" horiz-adv-x="614" 
d="M15 -53l203 366l-191 361v89h554v-107h-397v-4l169 -333l-181 -338v-4h433v-107h-590v77z" />
    <glyph glyph-name="minus" unicode="&#x2212;" horiz-adv-x="553" 
d="M39 313h475v-92h-475v92z" />
    <glyph glyph-name="uni2215" unicode="&#x2215;" horiz-adv-x="348" 
d="M87 40q-25 -49 -53 -49q-17 0 -29 11.5t-12 26.5q0 19 12 45l6 12l244 526q17 35 30.5 48.5t31.5 13.5q17 0 28 -10t11 -27q0 -8 -3.5 -21t-9.5 -25l-3 -7l-247 -531z" />
    <glyph glyph-name="uni2219" unicode="&#x2219;" horiz-adv-x="280" 
d="M139 247q-36 0 -61 25t-25 61t25 61.5t61 25.5t61.5 -25.5t25.5 -61.5t-25.5 -61t-61.5 -25z" />
    <glyph glyph-name="radical" unicode="&#x221a;" horiz-adv-x="566" 
d="M97 315l-75 -28l-22 65l173 70l127 -373h1l173 751h107l-218 -890h-111z" />
    <glyph glyph-name="infinity" unicode="&#x221e;" horiz-adv-x="757" 
d="M559 97q-28 0 -52.5 8.5t-47 23t-43 32t-38.5 35.5q-19 -18 -38.5 -36t-42 -32t-48.5 -22.5t-58 -8.5q-36 0 -65.5 12.5t-50.5 35t-32.5 53.5t-11.5 67q0 33 12 63t34 53t53 36.5t69 13.5q28 0 53 -8.5t47 -23t42 -32t39 -35.5q19 18 38.5 36t42 32t48.5 22.5t58 8.5
q36 0 65 -12.5t50 -35t32.5 -53t11.5 -65.5q0 -34 -12 -64.5t-33.5 -53.5t-52.5 -36.5t-69 -13.5zM556 188q31 0 52.5 22.5t21.5 54.5q0 33 -20.5 54t-50.5 21q-18 0 -34 -7t-31 -17.5t-29 -23.5t-27 -26q12 -12 25 -25.5t28 -25t31 -19.5t34 -8zM198 188q18 0 34 7t31 18
t29 24.5t27 26.5q-12 11 -25 24.5t-27.5 25t-31 19t-34.5 7.5q-31 0 -52.5 -22t-21.5 -53q0 -34 21 -55.5t50 -21.5z" />
    <glyph glyph-name="integral" unicode="&#x222b;" horiz-adv-x="363" 
d="M22 -50q17 -5 39 -5q13 0 26 6t23.5 23.5t16.5 48t6 79.5v8q0 63 -2.5 111.5t-5 93.5t-5 92t-2.5 106q0 130 45.5 195t133.5 65q17 0 35.5 -2.5t26.5 -5.5l-15 -91q-8 2 -16.5 3t-18.5 1q-19 0 -32.5 -7.5t-22.5 -27t-13 -53.5t-4 -86v-8q0 -53 2.5 -95t5 -82.5t5 -86
t2.5 -106.5q0 -27 -2 -52t-5 -48q-6 -51 -21.5 -85.5t-37 -56t-49 -30.5t-58.5 -9q-19 0 -40.5 3t-33.5 8z" />
    <glyph glyph-name="approxequal" unicode="&#x2248;" horiz-adv-x="553" 
d="M23 348q24 37 62 65t91 28q34 0 58.5 -11t45.5 -24t43 -24t53 -11q18 0 33 6.5t27 16t21.5 20.5t15.5 20l55 -58q-23 -42 -61 -69.5t-89 -27.5q-35 0 -59.5 11t-46 24t-44 24t-53.5 11q-37 0 -61 -20t-41 -43zM23 138q24 38 62.5 65t89.5 27q34 0 59 -11t46.5 -24
t43.5 -24t52 -11q38 0 62 20t38 43l53 -56q-23 -44 -62 -71.5t-91 -27.5q-33 0 -57 11t-46 24t-45 24t-55 11q-34 0 -58.5 -20t-41.5 -43z" />
    <glyph glyph-name="notequal" unicode="&#x2260;" horiz-adv-x="553" 
d="M142 116h-103v92h158l63 120h-221v91h277l52 103h95l-54 -103h105v-91h-161l-63 -120h224v-92h-279l-52 -103h-95z" />
    <glyph glyph-name="lessequal" unicode="&#x2264;" horiz-adv-x="553" 
d="M51 294v89l451 175v-99l-325 -120v-2l325 -119v-99zM502 85v-85h-451v85h451z" />
    <glyph glyph-name="greaterequal" unicode="&#x2265;" horiz-adv-x="553" 
d="M51 218l325 119v2l-325 120v99l451 -175v-89l-451 -175v99zM51 85h451v-85h-451v85z" />
    <glyph glyph-name="lozenge" unicode="&#x25ca;" horiz-adv-x="564" 
d="M43 326l184 371h109l185 -371l-185 -364h-109zM285 70l117 253l-121 266h-2l-118 -261l121 -258h3z" />
    <glyph glyph-name="grave.cap" unicode="&#xe300;" 
d="M149 788q-16 16 -16 38q0 24 17 40.5t42 16.5q12 0 21 -4.5t20 -15.5l49 -51q18 -18 18 -41t-17 -40t-40 -17q-11 0 -22 4.5t-17 11.5z" />
    <glyph glyph-name="acute.cap" unicode="&#xe301;" 
d="M295 730q-6 -7 -17 -11.5t-22 -4.5q-23 0 -40 17t-17 40t18 41l49 51q11 11 20 15.5t22 4.5q24 0 41 -17t17 -41q0 -21 -16 -37z" />
    <glyph glyph-name="circumflex.cap" unicode="&#xe302;" 
d="M251 753l-34 -29q-5 -5 -15 -8t-20 -3q-23 0 -40 16.5t-17 40.5q0 10 3.5 19.5t9.5 14.5l75 69q5 5 16 8t20 3q11 0 21.5 -3t16.5 -8l68 -59q20 -17 20 -45q0 -23 -16 -39.5t-40 -16.5q-19 0 -33 11z" />
    <glyph glyph-name="caron.cap" unicode="&#xe303;" 
d="M145 783q-20 17 -20 45q0 23 16 39.5t40 16.5q19 0 33 -11l35 -29l34 29q5 5 15 8t20 3q23 0 40 -16.5t17 -40.5q0 -10 -3.5 -19.5t-9.5 -14.5l-75 -69q-5 -5 -16 -8t-20 -3q-11 0 -21.5 3t-16.5 8z" />
    <glyph glyph-name="tilde.cap" unicode="&#xe304;" 
d="M160 732q-10 -5 -19 -5q-18 0 -30.5 13.5t-12.5 33.5q0 18 8 34t21.5 28.5t30.5 20t36 7.5q14 0 25 -3t32 -12q27 -13 46 -13q14 0 22 4l20 11q12 5 19 5q17 0 30.5 -14t13.5 -32t-8.5 -34.5t-22.5 -29t-32.5 -20t-38.5 -7.5q-12 0 -22.5 3t-29.5 11q-17 8 -28 11t-20 3
q-14 0 -21 -5z" />
    <glyph glyph-name="dieresis.cap" unicode="&#xe305;" 
d="M347 869q32 0 53.5 -22t21.5 -53q0 -32 -22 -54t-54 -22t-54.5 22t-22.5 52q0 32 23 54.5t55 22.5zM157 869q32 0 53.5 -22t21.5 -53q0 -32 -22 -54t-54 -22t-54.5 22t-22.5 52q0 32 23 54.5t55 22.5z" />
    <glyph glyph-name="macron.cap" unicode="&#xe306;" 
d="M168 723h-9q-38 0 -59 17.5t-21 48.5q0 30 20.5 48.5t53.5 18.5h15h165h15q34 -1 54 -19t20 -47q0 -30 -20.5 -48.5t-53.5 -18.5h-8h-172z" />
    <glyph glyph-name="breve.cap" unicode="&#xe307;" 
d="M179 864q11 0 21 -3.5t20 -12.5q17 -15 30 -15t30 15q10 9 20 12.5t21 3.5q23 0 38.5 -16t15.5 -39q0 -14 -7.5 -27.5t-26.5 -30.5q-17 -14 -42 -22.5t-49 -8.5t-49 8.5t-42 22.5q-19 17 -26.5 30.5t-7.5 27.5q0 23 15.5 39t38.5 16z" />
    <glyph glyph-name="ring.cap" unicode="&#xe308;" 
d="M251 893q19 0 36 -7t29.5 -19.5t19.5 -29.5t7 -36t-7.5 -35.5t-20 -29t-29.5 -19.5t-36 -7t-35.5 7t-29 19.5t-20 29t-7.5 34.5q0 39 27 66t66 27zM251 846q-20 0 -33 -13t-13 -33q0 -17 13 -30t32 -13t32.5 13t13.5 31q0 19 -13 32t-32 13z" />
    <glyph glyph-name="hungarumlaut.cap" unicode="&#xe309;" 
d="M210 730q-6 -7 -17 -11.5t-22 -4.5q-23 0 -40 17t-17 40t18 41l49 51q11 11 20 15.5t22 4.5q24 0 41 -17t17 -41q0 -21 -16 -37zM380 730q-6 -7 -17 -11.5t-22 -4.5q-23 0 -40 17t-17 40t18 41l49 51q11 11 20 15.5t22 4.5q24 0 41 -17t17 -41q0 -21 -16 -37z" />
    <glyph glyph-name="dotaccent.cap" unicode="&#xe30a;" 
d="M251 869q32 0 53.5 -22t21.5 -53q0 -32 -22 -54t-54 -22t-54.5 22t-22.5 52q0 32 23 54.5t55 22.5z" />
    <glyph glyph-name="caron.alt" unicode="&#xe30b;" 
d="M214 642q8 16 20 25.5t32 9.5q21 0 39 -15.5t18 -40.5q0 -13 -6 -25l-34 -72q-5 -11 -19.5 -20.5t-30.5 -9.5q-23 0 -40 16.5t-17 40.5q0 14 7 27z" />
    <glyph glyph-name="commaaccent" unicode="&#xe30c;" 
d="M214 -81q8 16 20 25.5t32 9.5q21 0 39 -15.5t18 -40.5q0 -13 -6 -25l-34 -72q-5 -11 -19.5 -20.5t-30.5 -9.5q-23 0 -40 16.5t-17 40.5q0 14 7 27z" />
    <glyph glyph-name="commaaccent.alt" unicode="&#xe30d;" 
d="M214 669q8 16 20 25.5t32 9.5q21 0 39 -15.5t18 -40.5q0 -13 -6 -25l-34 -72q-5 -11 -19.5 -20.5t-30.5 -9.5q-23 0 -40 16.5t-17 40.5q0 14 7 27z" />
    <glyph glyph-name="uniF8FF" unicode="&#xf8ff;" horiz-adv-x="485" 
d="M210 174h53v-63h-53v63zM211 238q0 25 2.5 43t9 32.5t17.5 27.5t28 28q30 29 38 46t8 34q0 34 -21.5 57t-50.5 23t-50.5 -20.5t-26.5 -69.5l-48 8q7 69 42 99.5t86 30.5q52 0 85 -33.5t33 -90.5q0 -31 -12 -55.5t-48 -57.5q-16 -14 -25 -24t-13.5 -19.5t-6 -20
t-1.5 -26.5v-28h-46v16zM438 47v585h-391v-585h391zM0 680h485v-680h-485v680z" />
    </font>
</defs>
</svg>
